<mxfile host="65bd71144e">
    <diagram id="HIP3nbAZw_EuaXWnEj3U" name="Page-1">
        <mxGraphModel dx="946" dy="494" grid="1" gridSize="10" guides="1" tooltips="1" connect="1" arrows="1" fold="1" page="1" pageScale="1" pageWidth="850" pageHeight="1100" math="0" shadow="0">
            <root>
                <mxCell id="0"/>
                <mxCell id="1" parent="0"/>
                <mxCell id="7" value="http://ics2o.mths.ca" style="swimlane;whiteSpace=wrap;html=1;" parent="1" vertex="1">
                    <mxGeometry x="40" y="40" width="760" height="480" as="geometry"/>
                </mxCell>
                <mxCell id="8" value="&lt;font style=&quot;font-size: 20px;&quot;&gt;Watch a Movie, in JS&lt;/font&gt;" style="text;html=1;align=center;verticalAlign=middle;resizable=0;points=[];autosize=1;strokeColor=none;fillColor=none;" vertex="1" parent="7">
                    <mxGeometry x="275" y="50" width="210" height="40" as="geometry"/>
                </mxCell>
                <mxCell id="9" value="&lt;font style=&quot;font-size: 20px;&quot;&gt;Enter in your age.&lt;/font&gt;" style="text;html=1;align=center;verticalAlign=middle;resizable=0;points=[];autosize=1;strokeColor=none;fillColor=none;" vertex="1" parent="7">
                    <mxGeometry x="40" y="100" width="180" height="40" as="geometry"/>
                </mxCell>
                <mxCell id="10" value="Age here..." style="rounded=1;whiteSpace=wrap;html=1;align=left;" vertex="1" parent="7">
                    <mxGeometry x="50" y="140" width="160" height="50" as="geometry"/>
                </mxCell>
                <mxCell id="11" value="FIND MOVIE TYPE" style="rounded=1;whiteSpace=wrap;html=1;" vertex="1" parent="7">
                    <mxGeometry x="50" y="210" width="120" height="40" as="geometry"/>
                </mxCell>
                <mxCell id="12" value="&#39;You can see a R movie alone.&#39;" style="text;html=1;align=center;verticalAlign=middle;resizable=0;points=[];autosize=1;strokeColor=none;fillColor=none;" vertex="1" parent="7">
                    <mxGeometry x="50" y="270" width="190" height="30" as="geometry"/>
                </mxCell>
                <mxCell id="13" value="&#39;You can see a PG-13 movies alone.&#39;" style="text;html=1;align=center;verticalAlign=middle;resizable=0;points=[];autosize=1;strokeColor=none;fillColor=none;" vertex="1" parent="7">
                    <mxGeometry x="50" y="300" width="220" height="30" as="geometry"/>
                </mxCell>
                <mxCell id="15" value="&#39;You can see a G or PG movie alone.&#39;" style="text;html=1;align=center;verticalAlign=middle;resizable=0;points=[];autosize=1;strokeColor=none;fillColor=none;" vertex="1" parent="7">
                    <mxGeometry x="50" y="330" width="220" height="30" as="geometry"/>
                </mxCell>
                <mxCell id="16" value="&#39;Kiddo, you are too young for most of the movies.&#39;" style="text;html=1;align=center;verticalAlign=middle;resizable=0;points=[];autosize=1;strokeColor=none;fillColor=none;" vertex="1" parent="7">
                    <mxGeometry x="50" y="360" width="290" height="30" as="geometry"/>
                </mxCell>
                <mxCell id="17" value="" style="shape=image;verticalLabelPosition=bottom;labelBackgroundColor=default;verticalAlign=top;aspect=fixed;imageAspect=0;image=data:image/jpeg,/9j/4AAQSkZJRgABAQAAAQABAAD/4QBsRXhpZgAASUkqAAgAAAADADEBAgAHAAAAMgAAABICAwACAAAAAgACAGmHBAABAAAAOgAAAAAAAABHb29nbGUAAAMAAJAHAAQAAAAwMjIwAqAEAAEAAAD0AQAAA6AEAAEAAADSAgAAAAAAAP/bAIQAAwICCAgICAgICAgICAgICAgICAgICggICAgICAgICAgICAgICAgICAgICAgICggICAgKCQoICAsNCggNCAgKCAEDBAQGBQYKBgYKEA0MDhAQDg8PDxAPDA0NDQ8NDw8NDQ8NDA8NDQ0NDQ0NDQ0MDQwMDQwNDA0MDA0MDQwNDQ0N/8AAEQgC0gH0AwEiAAIRAQMRAf/EAB4AAAICAgMBAQAAAAAAAAAAAAAIBgcFCQIDBAEK/8QAZBAAAgIBAwEGAQQKDAkHCgILAgMBBAUAERITBgcIFCEiMSMyQUIJFTZRUlVhdIHTFhgZJDNicZKUsbO0Q1NUcoKRwdHwJTSToaLS1BcmNURjc4OywuGElcPERWR1o9XjhaTi/8QAHAEAAQUBAQEAAAAAAAAAAAAAAAECBAUGAwcI/8QARBEAAQMCAgQJCgYBBAICAwAAAQACEQMEITEFEkFxBhMzUWGRobHBFSIyNFNyc4HR8BQWNVKS4fEjQmLCJJOCskNjg//aAAwDAQACEQMRAD8AqfFYpr2rQhZue44WlK+PNpzElwDnIhvwAznmYBxA/XU2Lw69oY//AGLe+ET8EztvHwnaxI7jr54eS27QYXb6L4bfk3S4Z/7MlrawivER9Pxn4zM/T+XWF0bo2ldUy5xIcDBI7l7zwl4S19FV6dGlTY4ObrEumSZjYtVP7XftD+Jb/wDNV+u0fteO0P4lv/zU/rtbX+hH/Ez/AL9HQj/iZ/36tfIVL97uxZL8+XfsqfUfqtUH7XftD+Jb/wDNV+u19/a79oPxLf8A5iv12tr3Qj/iZ/36hHet2xsY+hauVaTck2sIzFJLBU1vJioLixnsEVKM7B7/AEBsPro8hUv3u7Efny89lT6j9VrZ/a79oPxLf/mK/Xa+/tdu0H4lv/zFfrtXZ3e/ZPCyd6pQqdnXtsXGBCRHKV9pXMC0mzMqH+Drg5xBH0p4fX5atjxHeOKl2cuRj24/I2rZoCyrpwhFU1kUriItWbAQR9T2SClEUab5Dpe0d2fRL+e7z2NPt+qTv9rt2g/E1/8AmK/XaP2u/aD8S3/5iv12nxzHiCP9jtXtBSxtjIBYrVbU06zg6q1OHlZ3YQyE+UiS5cJ95L29n00Fjvsj9x9GxkkdlLp0KpKW+3ORWNZb3SqBVBxVYxn8Mrc0JZAkwOXAflNHkOl7R3Z9Efnu89jT7fqqL/a79oPxLf8A5iv12j9rv2g/Et/+Yr9dps/Bj4q8h2mfl5tU61SvSihNZaCaxxebK5DOu5pgE9Lyw7CCF/OL/N01ArGYiY9Y+j10vkKl7R3YlPDy89jT6j9Vqk/a79oPxLf/AJiv12j9rv2g/Et/+Yr9bra50Y/4mf8AfoFcfy/p0eQqX73diT8+XfsafUfqtUf7XftB+Jb/APMV+t0ftd+0H4lv/wAxX63W09mWRDYRLVw+Rk4T1I6pBHxKF78ygfv7a9vRj/iZ/wB+jyFS9o7sR+fLv2NPqP1WqP8Aa79oPxLf/mK/W6+/teO0H4lv/wAxX67TZd/3jiDs/kGUrGEyrQHp9G4PTXWtya0GUVTaUCyEk6EuOSHps+P1Z1HcP9kT8whtlHZbtBZQkuDbFUU2K6jEYkhJq37bjBxJf52k8h0vaO7Poj893nsafb9Ut/7XjtB+Jb/8xX67R+147QfiW/8AzFfrtOR4ZfGlU7TXH1EUrFWVVPOAbmqPrLi0VRkCKTKY6bB4+/8A1fDdk+jH/Ez/AL9L5Cpe0d2I/Pl57Gn1H6rVJ+147QfiW/8AzFfrtH7XftB+Jb/8xX63W1vox/xM/wC/R0Y/4mf9+jyFS/e7sS/ny79lT6j9Vqk/a79oPxLf/mK/W6+ftdu0H4lv/wAxX67W1zox/wATP+/R0Y/4mf8Afo8hUv3u7Efny79jT6j9Vqj/AGu3aD8TX/5iv12j9rt2g/E1/wDmK/Xa2udGP+Jn/fo6Mf8AEz/v0eQqX73diPz5d+xp9R+q1R/tdu0H4mv/AMxX67R+127Qfia//MV+u1tc6Mf8TP8Av0dGP+Jn/fo8hUv3u7Efny79lT6j9Vqj/a7doPxLf/mK/XaP2u/aD8S3/wCYr9bra50Y/wCJn/fo6Mf8TP8Av0eQqf73diPz5d+xp9R+q1R/td+0H4lv/wAxX63R+137QfiW/wDzFfrdbXOjH/Ez/v0dGP8AiZ/36PIVL97uxH58u/Y0+o/VapP2vHaD8S3/AOYr9do/a8doPxLf/mL/AFutrfRj/iZ/3663yIxJFMCMRJSUztERHrMzM/CNHkKl+93Yj8+XfsafUfqtVH7XjtB+Jb/8xf63R+147QfiW/8AzF/rdNjk/HnWdcs1MJhsx2gmpv1rFBERV9kyDYS5pD1JBsSvbb5QoPh1B92vb3bePTF5LIVsV5HLUb1k2JgLqECuu9ajd03yq401kfTkFgQQRlAxxDSeQ6XtHdn0R+e7z2NPt+qUH9rx2g/Et/8AmL/W6P2vHaD8S3/5i/1ur/7+Psl9fDXLtJeFyD31DcqZtNVSS0kSwZen/nDm1Wcfk39Mep7/AGxw07gqj/jfSjQVL2juxJ+fLz2NPt+q1SfteO0H4lv/AMxf63R+137QfiW//MV+t1tb6Mf8TP8Av0dGP+Jn/fo8hUv3u7Ev58u/Y0+o/VapP2u/aD8S3/5iv1uj9rv2g/Et/wDmK/W62t9GP+Jn/fo6Mf8AEz/v0eQqX73diPz5d+xp9R+q1Sftd+0H4lv/AMxX63R+137QfiW//MV+t1sB8Q3f8js7WXasU79wHMlW9QFdOvPHcSsOc5IJA59q/wCFYxkwAAZemol4VPFkPahmTFePOkrH+S4Gy4D2P82DyLmlax8v0ehx9zWdTn9Tho8hUvaO7Poj893mfE0+o/VJX+137QfiW/8AzFfrdH7XftB+Jb/8xX63Wy3vN7eBjKFm8Ve3aGuO/Qpp69lkyyFxCkkxUHMFO87sCOPrv8NLf3KfZAFZ7M1cVVxL667AWGlZt3UiYBXV1CEa9cbHN0zIfJk8PZzPcuG2jyFS9o7s+iT8+Xnsafb9UsX7XftB+Jb/APMV+t0ftd+0H4lv/wAxX63W1jpenw9dvhvO2/8Ax/F0o/bL7JFicfafTs4nPg1DWr9yKK+p02sT1Vw7KKZKGSqZWwwDqD7tHkKl7R3Yj8+XnsafU76pX/2u/aD8S3/5iv1uj9rv2g/Et/8AmK/W6cdPjjx54T7fjic8VKb/AJJa4qJ8y2Oh1vPAM3YT5D0kPMS+PlI+b9OsZ3M/ZBsVnMinGU8bnAc6ZgnNrVirIjpG8WWGVb9g1A4VzCzlfFhff92yeQqXtHdiPz5eexp9TvqlL/a79oPxNf8A5iv1uvn7XbtB+Jr/APMX+t1tc6Mf8TOjox/xM/79L5Cpfvd2Jfz5d+xp9R+q1R/tdu0H4lv/AMxf63Xz9rt2g/Et/wDmK/Xa2u9GP+Jn/fo4R/xOjyFS/e7sSfny79jT6j9Vqi/a7doPxLf/AJiv12j9rv2g/Et/+Yr9dra70Y/4mf8Afo6Ef8TOjyFT/e7sR+fLv2VPqP1WqL9rv2g/Et/+Yr9do/a79oPxLf8A5iv12trnl4/4nR0o/wCJ0eQqX73diT8+XfsqfUfqtUX7XftB+Jb/APMV+u18/a8doPxLf/mK/Xa2v9CP+Jn/AH6OhH/Ez/v0vkKl+93Yl/Pl37Kn1H6rVB+147Q/iW//ADFfrtYftN3SZWiqX3cdaqpghCWuhcBBsLiA+xpFyMpgY9utu3l4/wCJ0tnj1Dbs+U//AL/j/WfWf+cx9/XGtoWkym52sSQMJ2Kz0Xw1u7m6pW3FUxruDZxkSd615c9Gvohr5qkoh2oJXsxGKn3h6+6DC/n6/wCybrbGr4T/ACz/AF61O+Hv7oML+fr/ALJutsSvhP8ALP8AXrQaC5J/veC8E4eeuUfh+JXbo0aNaZeaI11MXBbxMRMTG0xPrExOu3RoQtDI2o7M9qBhoc14XtAsTZMEcDVRaZA7CcRAQFWwBL2+lgfgaab7LDl68ZfEKGIiwGMssdvvEMR56qdJcyG8wEWqzZLnHw+ZyL01VP2T7u/8p2nc6S+SylOtaiIgogWCttEoGImIe3qqU7p++eJ6sTsoFztTgu2WbbXgGLo4Wpj1nwewLHZysGTuqXMByILTGA4N55s8w1c8xV6RiTMKUAMCVY3hB7610u7zKS45FmDXkFL5zJcvOJ85jIVM+7g6byq6+UB7vT2jtv6sj3fRiu6YkyPufjal50+7kbshcr2WQQnAyJBDQXI8fqaTnuLzbLUO7NrXzT2myGCQRwyRldehcdaYfEZ58Qx4oXzCY9FgXLl7tbOfH+uB7G5oQ2javWgRiPhHnqsREDH83XXYgsAcB0pC/B14gLuBq9orFDDWMsXToNdIbLrUVJ+2kzYuNCHPKD9xCtaJHilhE5PLTv8AhG8baO0zHUmVYp30p81wS6bNZtPmlYuXYlaiE+bhAkMWLB/JpUfAgUfaLt7IzMj9rAIZFm0Tyo5WeS532gpL/Cf5v4GsR9jWzikZ221zChVfA5RrGcpP5t3EueQiPJ5HEqZzB3NhSEjG4hx0HALtVpsDnRs6ehXbhvskOSydu+GE7Pqt1cfTs3mdfIwq4Vao6EN5IWpqk2CmeousbSly45ARz7RtDu88dtDN4++eOoZB2SpqWbsMEpG4abJCC7CWyyFmgRaJsMDhqfrK3IIYvHcx3y5PtjnLNKpZjs5iSpNvuRhkV15SynzC61TzdxyWyNlwO6k9GOkpce/3GJao7wFW4PtHVH1kIxmWAo6sMWCpqQUL3iZ4eo/PIuR8PcRbaawkrkKYMr1eBvtxbx+b87XxN7M2DxTwYFRgFYJUuokVs2W+JuUbmQAwbBMOPzBAdbka7JIYmRkJmInjO28TMesTxmY9P4pf/fU/9ieDfP7zv9zlqPjPoPnsNx2j4REzz/l9+ttGujVxfnC10fZbDiHdnt/hNfNRMz8IjzGB9Z/k1XXhg8YdLsx2YyiQmLGaPIWLNPH9MziVRQopG3ZIemMVYmsZlwb1pHYYHl8LB+y0vHzPZsZKN+llvbMx9a1guPpP4XEv5usX4P8Aw20u03YzI1XdJFosu/y2RiuD31XeUx5nxgpDmsjNym1uqA7GYx0yAOm3agZK4M3icXhG1e8Fs2VHdxtcMhRxtUXLtWMipbobJsYEVghnvJjWLAi4EbOR+6Qdyfj4rZ08wNfHWFfazGlkUgTVss24CGdVPQTyBbRmK/HpvsQXmQ3Jc7QeST320QymM7FJGcjLca6nkbCiEU0AqUGDIOTxdMvfIgs0G397Q6vy9Xh1EJ8PWdLsf2vBF1y1prPsYa8RlC4is2EGm2RcDkVSNbFu3mV9ZjGLEijmOuJeQehOgRKb7wpePc8xGZbl106dbGVRv+brEyUqrMYwZQ2W7y54Sv2Gkdnxw2CCPhr1h9kaB1Z+UqdnMxZwlZvSflOVZMD67SYoY/eVxuEz1GKkOoHIQnStd92IOOydjNCpdVHajtWNsKwxK1jikUshGJU0dhgOu5C7POOnG70TsPzdSrwx9nM/2h7PZDB0LOIp44shaXkrlmGvypTdKLRcKapXW2PqDAWesmGcPk/mEenscSMUyBmm2zvjy7PpxNPMiduzWvSYJVWrS142EwEtrPjlCEPXJiPyjwWfxBjB4EUawf2RfEnishlLFa3VineRRVSOVFctMsphqOI9UULOZXbggJ8wA1GFzn0GMJg/CSrs72X7V1WZBuUG5jbDWiaoQlLquPZAktQOaYObsljGEzkcrUX0aUf7HN2Dp5LPsXeUuwtWMs2TrmPIGWDfXpi5qo2CTWu9bETMPZ12cfme1oe7WhEBNXgfspWHNHKzjsjFuHErydOE3hnjIbGFqW1k7j1I5rb0Hp/wiwjgRTO1456pdm2doE0mkUXPtf5Fj1qldomQAzbswJChQxMMJi4b6H7YZOvb4iPCjRZ2St4bFVAR0Im9SQEk0m3a89eOZNlrrLX8SWRNJhs5e7fSG+GLvurV8b2kxL1RcLOUFxi6sh14flXDNRNQ+MSsJsvtI6XAlhXihY34MWehz3TAXQNBEp58R48cYPZ+vmr6Wqe19qqOOrxD7DrdIiGz5YWdEoQuI6ktf0OkJgB8TMAOMn9kFsVF0buX7NXaOLyYE2jcTer3XMVAQwGOqRFfoc0T1uMPcXTidoPSW+LTsE7E2cZiHDJBj8EngZFDPMX7s3LGUtIlvIRfbu+0nHvyXXBf5NXZ4wlkzsT2G2368px8R67GJ/sfdBbwO3HZvCD4jsE/e12BKGNBIBTU97fjoweKCmf78yE36g36gY6v1JbUOZgXQ6wyvW9Sjj0er1x/xfvDlWGW+ycUQoKtpxV51kyMbKJmF1qEyZeXXbyMgaPM20wLARXF8r9wulHT0muYtvPsTiiOZJRdq780i26YkiaRyZKEVSG0W5t9Ppj8nx9khx9tq9j2DPdXnC9k8cvJLmeJDH/KWOmJHcYGeYTvM8PlBMiLnzKTSSuvFsHWnz8P/iNodocceQrckDXYxFxL5GCqPSIm0CYEypioAoMXgUgQ/enmIVZf8f8AVaduMThcxmEUOJ3LtdSEUwQcPIbCmWXrJyiGu4oZ0wXIhv1PWNJl3G5Fy+wvbOVwWx3sbWZ0w+bUsFRVZFS4GY2mu9vsAfgfKNZbwK2czYRnMbgVYblbTWbasZGxYCEKYl1PimvVSybL+cOYb5ZAcvkyL5kQsrm5gE/exbF+4vxBY7tFVm1jyaPTOFWatlcKtVGSPOAsK5FA8wncWLNi2fUM+Jaw3jFRYLstnwqxJOLF244xtJSqVz5mBGZjmXlutxD68+2PjqtvBz4Ji7LtfZLKststVE1mIXUGrXEkdOBd6kZmwIXwGSgPaZ8hMj5avLvw71BwmKuZVld1oKYAcoTIiw+o1aY2JkiAAEs5mcz7AEi9fhp2xcVqt8MPi2f2XO0tdNN+lcsw9gQ2EnPGTUDqttZ2lu4qFK5TK4XyScddc8tMtQ7ddmu2mYwd6vZs4TOY+/XsCm7VEG5RVaZYdRRg/wAtZiYXI9ZTGMBUz7IGdte7tH4FeznaWsGZwFxuNi+HUAq6xdRI5a4my2i6AOu+HGaWoS1K1GBj0OXU0i/iO7hcl2WsqTYMZOFebq3KhSYvNLRiscwaltCwu1KR6ZdQBg/Z9Ba54hPwKtb7KDt+ySwsd454SkMcpERHcsgMeu/tCPTff8v0aaztb9kypUrC1twmaXWJUOh1lK6bmVumbZtVqb2LY9AKBhFPJZez0CNJx9koe884R2FdKwfZ3GlYCN+IuIbssEZmPWBPcd/4mri+yueuS7PTwOSOnfnaPUo4sq8YKA9/1yD8E+ch7uWnDauwY06oKdnvj8UOIwmORkrTmNVbEToqqq61m7BK68eXUUrjjCflCY41LWPzjCTDlSDPsi/llUruU7OZTHYnJTvRvy2vZJiI6f74dSUY2EBswWBEQ0mp+UX1I0hniJsmdfsoE/KhHY7EksWTLoJjbFwnbwyS4c7Kai5mPnfJV/cLuiTC+LaZnsT2DId5IUYuYIfnCUYCWRtMfN34wUh8DH4+3lpSUgptw6U6neR4tMFi6tK2+2bV5FZtx4VEOtutrUsWNNa0gUwCVlzYTunC/re701FMJ4+MA3Fnl2zeqVgyRYpS7FSZt2rUIVZjy9asdhhLNLecS2Fl7S5CHs5odYQw+7PiwGylfaZgU44RIdAgJpdCCHaUeel+/DeOqLPpDYJd3TV4Puy7WQ0ZLbLMKOe/t4qw25bz7h4e7efq6Y50BBptA+auXvx8T1DtP2O7StoV7al1IxqpK4CglvWuVnLNYpe+eHCRP5bpl7vUYnlqO/YnrcS/tHHrvI4co32+BFl9o/l9s6pPuaWc9i+3XIZ385iY+bMe6XVZYMRtHHgcyPD/AAXzIgBCB1lPBvlnVsD3g2FyxblYSoazGJEhkE54oIZ29JGPdv8ARprHE4lLqANOO36Ju6X2QCpcyrcXhsTlMwdeSJ9ir5ZaIQDFKZZTD7ANckWNEQMgXD/eSpYPu0kP2PLIDPa+iMe2CXkOKpEYNC5oyYC2Y4bnx5/U9NWf9ibkQyuYSMcBHH1I6UGUiJqbKzmRmZ9Smfnz66rbwEHE9s8f7pKJjNmMSySiJKqEjw3mdglc8xgPbx9w6YHEkSmloAK3Ea1A/ZKij9lro2n/ANGUYn73t80c/wDZn/Xrb9rT79ksbt2rfPKIKMdj9pkYLaCixE7xLV/R+TS1nEDBcAVZ3bnxhrxfZbs7gq1oAvXcJixyVwRixGKo2q6YM5VEQJXWIYbRS3bpoWxs/wCB6jsdz/YjD9nsKpeO4Lxqq0WytFPM7IDWEyvOMFx13MQqDKQAfkwAQABEAjVF3/8AcWGKw3ZfK1RaNbK4ms+51+dkJycKrMJTD5QI+drN4KQBixacfZ4CA+b3eL7GF33RkMS7EOMps4VsArqGMuZjbBE2mRksiWZp2ZXPo+wAWgZ9xTroSV2e0RIWQpfZRezjbKkrVk/LnDOd1lTgoWCspBS0wyblhzHwNWAVVmOswPdtvOuHd59kzxV/KIx04/I1YtuFNew8UTEEc7L82lTzZTg5+b1N59YKYEeWyUd0C4HvHrBEQIj2lzAgsfaIBFnIlIgA7CKwYITIDHEJENcfGtxV25ysjwGZyGCLadpiZijii3IC3CdiIi9Y+tpGOJEp4Y0mFsn8SfjIxHZgkpuRYs3HrJyqVMAN/RDcesctYla1myOivc+o1ntWtnFnGFL8f1WpkVYzP4q/gLDxrmpto69irC7ZGFcnPrvLo9Q1NAvYQqJLIMw4aQjvsyzz7xm+YmZ59pscnZmw801mY6awSsogTWpfTMZ4esHvufXPnZv2WhW+dx28e0sMYsnbbcIuMnaSj12gpHb3e2S/9p7x7yBIXJjQTCaXvy+yRYTCW7FGa+Ru2ahEuzFdIKQpgCJkuW2mplhwsoZ8gDR4+vL78p8WHjKrdlPI9alYuneG0wRQ1QCtVMVE4ylk7z6OjhEB75jaSH01r88W/YtzcJ2JzLx+Xu4FePstkeqx3GkJUyYZtGTdaS9rCL+F+T9C9msF4iu9Cz2gx+KyYwDK2HxmOxOR5hIyzJ3osPtKTMejF+Xo1Z5L+J2AEPnlGlDjGKeKYwKd7vI8f0VO1FTBIpg6m1uLRZty012JPLQgq76ixiRKusbSOcsMDI+uMB8nBMc/WtLw6xW7U3uxHsGbXZjGWn5hoCR8nVLNehh0NuRBLcxj6bb8RuY9NbenMCZ62W6eFHKNGjRpyajS0+Pz7nz/AD7Hf3kdMtpafH59z5/n2O/vI6jXPJO3LQcHv1S1+I3vWvENfdcBnRrAM9EL6mOZ3nvU/wDD190GF/P1/wBm3W2JXwn+Wf69anvD190GF/P1/wBm3W2FPw/TP9etFoLk3+94LwTh565R+H4ldujXE520hvii+yA5Xs5mG42cZQcmIrvRYKw+TOq6GRu1QLkgclqigh93tlZbe/WlJheagSn00aqHw699BZ/BU8oKhXYatg2K4zMAFys1iLCYkpmRAmrLhz39hgXrtpLO2P2RTtOvJjiyxOPxLguV6lhDWMylxZPelYgLFNRWndTROH8GAz5w/HRKUBNb4p/CLW7UeTltplNlSLKpalYsl1e0K+ddgsmA4dZKm78SKJD2cOoU69vht8LCezlG5jxtuvV7jpcwXrWACR111nwKljw4OFYyQSPHV3hYjlx3iC25bfTI/Df+dr0aIQkq7sPsayMVkauQrZq2LKdoXpWNOsASnkXUqGQjJyhyZ6JcSD09fnceF7eJPuFLtFQjH/bG1QV1Ra7y4iUWBDeQW2C4nIAzg6IBo+9Y8uerd5fRrlohLKTTsb9jtCjUzNNGdvCrN000rHBQxKwW2JOVxLCj5ZE2KsifoI2G7fE+Z3RfY5lYu6Nr7c23qJT6tqlCAr1rVB4nM0WADCiEQw+p82T+rz05euBnERMzO23xnSQESUiXY/7GOzH5Jdul2kuVkL9kAiuaLsV5EQYjzqbwLPqpWtHUOnJLBSSD5RfV17+yX2M8KOXC9VzVlVJVknKpwgisChxmNigN6bPUXWegyS5wL8zY59RjuSwLTe4HvBoWnOr1btSw+uIk9KLC3NSLJKAJoLIiXzkS25x68fy6kJnERvOiAkkpDa32MJte6b8f2kuY5HUIkeVUwcgkGTwNY5ALqyParwqibks9AA5GS+c7XZPs/FWvXrQ1z4rpWmG2WS6w3pjA9Rzi9WMPbcz+ktJ/23+yHW0Zu7haHZtuTOo6wqGqyBwZjUBZWHGlWMsQlSyPjEy6d59PYXtiIYj7K26y1SKvZqbD7BQKEqy4m1xTvsKxjHTJzO0+g6JAToJVm+IrwGO7Q5J113aC4pBQMVseSCfWpx0Kym9GPOKj5d1aHn7B9xz/AJ8xTs19jmylNRV6vbfM1axHLZRSUdUYdPxKCC91ACfrLA45fo16OwH2SBuQXl4X2fdF3FUfPeSjIRJPWq6NO5EmyiqV+Sg+u4hU2dh4QPLbfn4VvHRkO0ue8kdWnToRQt2hWBOsWZYltMF8rJQlUrmLBH7awb8J9fhpMEYqU+FHwFq7L5B9/wC2U3ydVKuIspwkkEbEmxi2TYefyopgWxPqU+6S198S/gBq9pMmGSLJPoSVUalpSELZ5lYlMSXNp7LKUl0+XTZtwSUfwextgBRMbxO8T8Nc9OhJKgfeJ3N4/KY48VaQM0iBYAtM+X8v0ZGUHWJXGUGiRjp8PT6sxIch0mGH+xlZajYluK7WMoCQykmIpMr2Sr8pMBbNXIIW8wMjP5qlmfvkN9bC9GiESlhs+C2U4W3i8fmr1a5k7EOzGZshF+7kxlbFvSyGMWKQNZCsOgQEABtPUk2kyD9xX2PS3gb1a5V7SviEyAOrhjliu1U5VWWajJbasGMWWV+fVj3q5zx/L4e3f2S77XXbNOx2eurbXNgwDbakMYEGfSdC3KAoW9YdcZmf4P3e7TF+HXxBVu0WM+2SgmvAOsV7CWMA5QxExPq4NgNbEmmwJx6SDhnSQE9zXNElVj3x+PjH4XNjiLNWwSgBBXr4TEroTZHqK5pGCY5fCVy1iyiF8/rz6arfwu+H3HZHtFf7UVK704ZdonYNbVSgLtyyna7kxrNWo1Vkmxi6QGv67GjxkeOqp7c+NPstlroZC92P881QmC7dl1czmmoZNTDVHJZmJluVc+bK0Hz1sN7nu1jr2Nq2n45+KYyGDOOswIurAtxpASEREYg1rBgxx9FmOkzKacFBPE/4VKXaissHsOrbr9Uat1YQwlA/hDkursnpWUNgA5KZ9IAQEE6ou/8AY+srfqYnF5ftEqzi8T7UqrYuEWSR0/L+Xh53HriIrexTirmdf2Sv1DfTz6NOhIlX7+vBJOWTjqVPKRisZi6/Tq0Ax67IDajksbnXJ6WyzoGxRAcnylhs35mcnFaf2P8AuowNvAI7RSFW3kkXi3xSpEVrHdlaB8x1B6tldSz1AcMiVXiMbPdp0tUD4rPFanswiqU1W3rd42xWqLaCPZXATe43GtsAC+ooI9hyxjFiMeukgIkqG9wHgePDRkq9rLzk8blKvRt0DoggTf6rGzDvMOYvhX+SEF8Pf8pJbrXxqy79jLv1bs2sJ2jbQ2KYS2Ul51Cp3Lo+YQ1QNCXfKWOaIO9uXWPl79N/3E98CM7i62UrjKwf1BNJTuaHoYxD0zOw8+DlnAnwDmHA+Mc9WJogIkqi+4Dw0RhmWblvJW8xlrgwp+QtsdsNUGS1VRFdtmxCEKMiMYljGbkfv1YHfB3fxlsVkcaRwqL9KzUhsh1OiT1EAugOQc5SciyB5j6h8dTTVLeJrxE/scqLtljL2QWwyBhUxHpVRGRiDtuZ7EgwmCC949x+3S5JFR3YPwNZ/BGZYHtVCwdBdepdxkOqNOZ5S2VjZkQecz7mrgCkfT3akuA8Elm5l0ZrtTl/tzZqdPydJFWKWNTKihqyJXNhv4Ojq8ZlcGUDz6g+zUK7O/ZOCuEwKfZjKW2KVL2rruS5i0RMRLSBC2yKhkojefwtSfuw+yT4q5ZXTu1L2LNtjyoPsiptWLEnKui9iThlaRd8kRNQC1l/CGqPXTcE7FYHv6+xyWe0OStZG52hGJdyShMYgJGtSFjSr1oMbqpZ0xcXJpjyYwzL09ghnu/LwLX8+WLK52innjccioyZxamebs85O/bKYsqNXneFYeiBSKujvG/PTgjOuWnQEkpPs/8AY+F28DTxVzKE+7jJcGLyo0EqKtVaPAaTaksaFmssYD57Bb1FrMTXw1Er/gCzWQrY3F5bP1WYrFc01Qq42IueVNYp6JOe01RKa49FLukwklwd72JVIO/lMupCya5i1KCORtaYgsRiJkiIzmIiIiN5mZ1jO0fa2vVpOvsYI1a9Zls2hIlHQUuXEQz8JElhvHH46SAiSqo73PCTj8h2djs9V44+vXlLaJguHeXfXPqQ0xLY3m45Z5hhs6zpe4yZzPlpdex/2Mu8FS9Tt9oXRWeDJXSpC5FOxZnl0nZRc2JO2kDneawGrlsG7fZq4vC345K3ae3YoxQsUHrSdpHWepwurrYtTOUqn5C0qXIltU9yAXCXL1jk0OiAUSVr/wCz/wBjLyKaVykPaYFpyMVgvpDCqJVlVJi2U5mWXJeFhJww5dDd284g/m6sTw8eBJ+BsXOWaC7QyVUqmRozjBr+ZCAcNchsRccxJJ8zYjiEbMFxcvUFyLeaNEBErX32V+xl3qORU6n2ifWqK5KB9dZpzEUyLkVTzCnBWkWbBLLEp5cg5AsOfHWS7C/Yz7FDKjkKefOiqvbltZNeqbX+W5PGFPtWbZ9Rp1WhVayEcTAPmRp3c92jr1Fy609NZIzEE17RSuJmdoiTZIhG8/l13YnMKesHIYDksGDW1RwxbAn4EBhMgcT9ExP/ANyAiSvfpB+9b7GrkMxkbORt9p+o15TEdTFRPTrgxk1kD0byA2Qo+G/Dcy5kXztM94h/EfjezNMbmRJhQxnTRWrQB2rBwJG3pA1qV8EJg3MYxyxiI4782JWyjcr4/wC/TWN3IdjM7VxRxBDcE1NcC/oOxWMUhX3H3fKWttvraDCBOxeDtH4BcrawFPs+7tRM16duXgz7Uhy6S0Vl06oQNwJBVUwttg+puzrqE/4L3R7ur+xqZbC3BvY7tcSLIr6fOcRBi1UtW061hZ5GQZXOVx95gl7oLTUeHnv+q9o6BZCmp6VDafVldjpw2DQURMzCWtAeYkBx7/p/Tq1NEBEla/8AsZ9jMydTKry89qIK2ORjItYOGXye1jWsslMnbOAN8OYveA4iLD9p67e+b7GlfzOYu5dnaNa2WrUvWqcRyhKlQC6deSDIKB3QQlKyZK4lvCSLffT96NLCJSX+IH7Hj9vIr3ftpFfOhWQm9kBogNfJtrcJTZdUW0fLvVx4LapkkC+K/cIAOuGU8C+QzeVq5LtVla1wKihrxRx9RldL0gwzgWG5zJX15L99EkAY5ZyjqKXHvc8g323iPT1jf6J148XmUvGTS1bQgiCSUYnEGM7EEyMzHMS9Jj6PTRCSVVfiV8PS+0OGLFw+Kcw1L6zxRDYrtrnurioTTuEBunYSH5MtVl2T8BaK3ZTI9mivS1mSYyw+9NfhA2RKvFSV14dMghCqtcJT5nkezJhi+p7Wx0aIRKoLwl+FRXZanaRNqchZuPFli4aBrkalLFNVELE27LQEHPuMtzc4vrbav3RrrNsRtvMRv8N9KkXZo0aNCRGlp8ff3Pn+fY/+8jpltLT4+/ufL8+x/wDeR1GueRduWh4O/qlr8Rnetd8aNEaNYGn6IX1KczvPerB8PX3QYX8/V/Zt1tgT8P0z/XrU/wCHr7oML+fq/s262wJ+H6Z/r1odBcm/3vBeCcPfXKPw/wDsVxee0bzttHrMzO0REfGdaeO/bu/LN9n8p24cG7sh2llavlfko7PJicTTWYhHTFyLYDM2R579Lqe7fbT8fZAe9r7V9lrxKKYfkYjGVCBsrLrXgYMGsxmJmVphjI4z9X72qkzH2P8A7RFiZw49tXHj4rdAaBYZApIRGenXl42eoCIKIHfiX+bHpGtIV5sFCfsSfemUszWFayNxKvkkBLPWTbHRvkuJ+obAQ7gPzSbP+fpb/FbkOHbbKlwk+OWoFARvJHKftewVjERPubPFcfe31E/CD3iThO1GPsWOahhw0bIGyRbCLJljbYugN2G2tcaizC/nQup7fqbyzxU/d3kfXbfNY+Ny9ozP/Ju8ci2Cdo39N/hpuxSKYBJlM3+6aZWhln1s3hE06SHQFquo2sydBZwJi1pTvWtxCWpfPlwUHSaEifxEGK8VXjOo9mlIGEleu21i6vWUyFBFXnAnac/YuC43mEgsWNsM9giI9RgIx9liUCu0aDAR5Nw1Y3/N95havAkCGPeXUCJQQlHygEA/CPSt/Gd2VyFfIUq1+GHaPs1ga4G+ZMiMKbKz+JHJSuTysRz58PlThh7c+euTnOkwjVaYKcHOeObtNhSxNrP4jGtx+ZqncrjiH2PPIStSrDAaFoui6wlDRaSw4gWx8XR83Vl99P2RHFYtNNlataygZGiV+o6uaU02LFpKYorjWxEPQYkNhC1tbX/wgfO4rd9kptAzE9jyXO6Do3JGRiREoKhQkJEJiD9USz6nzeY/Ttqge2tGyHZDBy4HQNzNZ21UlpnJSgq1ZIlXCOn00td152YuI9xFH8MBsVrnSZStptMSnwf9kgRVweNyt3FWpdkhyBgqoxRU1+SvPqCvz9k64sa0VAzpIW1nHmfS4x6xLtn4sb2e7GZy0OGHpnat4ixKb0wujQPFotFk3NOrJ2QVNiAkFoVJjxL5HVFd41iP/Jb2a4EPL7eZGR2MeUEf7Jelt68hOTcrb6wyY77alnhrZC+7TtkQTwHzuR6cj7dtsZig2iB90SJxIba6ykc1oEjnWG+x19qb9LIXF4zCzkK92cTXvuVYRU+1S+vZQNxi5Wbmg1PWsCkTn+B/hN2ezbHrXD9iVUPW7SDEDIAvCrgR4kITvlzIY4zIxHyu/wB73l/H1se0rclwdmqO7B+H6vhE9obINOzay9i9fsPaAiQCzrNVUWK4gRQg3POPpJj3nPz9h1P+FRUF2g7NQO4TGQoTMwU7yIsZMjPGR9Dj0nlyj8mt2nbZkRTtzM7RFV8z8fSIUWtH/hQ5xn+zMzyGJyOOiJnceXNpztG+2+4fQP0aa5ObktpHfX4daq7Wc7SqY1dl/ZrI0LFdYjwsTNeNnmwolkGK66FwASAfIgXx6nPXp4I+3VzHZQrNPGXsvanE2lIppNQTLCKgcNcw55KrACzBjFAw+qSA4ETg1tm79f8A0Jmf/wCFZD+6O1rK+xZhv2l9v0YK9Je2R9PMYeI+dEb+6dcnzrABPZGqSU0fhO8f0Z2/GLu0gp3Gdfy7UsaVaxNda3Gji9IOVZBM2DkGfGKrPh6am/fJ4yl0Muns/jse7M5l+0RWU9dZCilUv4vtN5dM1I4WWwCmdJDFsL+FHWv/AMHKCDt/SiYmCLMdoef8Yl4/LDElt8/hLDiD9Y957TqCeHntzkkdo6dlDKP23sW7qzZmCfNUcldFta35iVT11yJ9OI+vzYAegWgI+gOCc5jcYWy/uS8bAX8qeByuPZhsuEHEIZZVZUbFwoyRDBhbBcQN6qOSJXYrh1QcfLjpodJXjfA22cunPZ3tBB3zylK6CqVRNKtNusCVV0Ads7T2DK0CngErNge3bTngERvt6R6z8Ppmd510C4FazvGh2BC3le2DgWR2sZiez2RWQ8d4UplkLoxEjJzvVM2SQsDfpyEx7+UUX3Dd9b6eJ7Q4it/zjNpqVaMKQXCL9tw0rDBkWl0iPG2lMmRD5yfT+Dnm+3ZTBhZ7c9rq7o5JfgcShkTO3yTgeBx/JIyc6VDwL+HS0rtbC7aikOznnOqyEH0LFxTDpIMGPAQ2ZFyxbjpERfvVRfgRPDHWXfX82CqF8TnZutRzmVoVVEtNG0mpWETmSWtNGpA8SGVyuepJs60kfzuErPfcdrfii8Y+O7LLAXgy1ceDmpqKMF/JpDcnWHNmAQrnxXEAD3NIvkq7/lOGp/xfRLe0naWdzOJyFsOAlOzJSEDxmN/fIGKPk/ne1ZCPENT37IG9/wCy7LE2GREMxor3iSjyQUqjPaPr8j5jqnsMfwnOY93PXQJWsDok86dTJeP+1iLlOv2owJYpF6uuymzWyC7/AJcGshcDbV0q5xCPjYcom9PdcQoufLXs8Rf2R6lhHup18dbv2lpW8Dliq1F6WqF63VbMm5lpfSKC5VarR39CINU59lgKZv8AZ+AhknFTL/wW4sGZbjeE8/bC/cM7GZQPpqH96/dhZd3fdk8mUM6mNk4IiifksZkGuCnZmS+VhSBigSuPqKz9kaWSubACRKvfxWePG7ik4ZuKr02hlKE5PzNuGHXNS1iwqquk5HB3EuoRyxkgA/wRFrA+LfxA9mL1LGqzGPyrrDaFXMomgUKml56FktH2xcaOMtZwXslZ/MDcVevGpO6rtBHaHAYXsdMSFxecgmRIkTauAqyzITaTYiCWt6/MKxY9M4MSH4cY5Fav2VVfTq4ER2WA2b4RCphUgM0pSELLcRCBg+Ehv/JpJwXQBsgK2+4fv6wuN7FUcz5eMTilLsLRTCxFs903rNcVgyYV5q3caDHlsPz2HuR9PqFE7P2Rhiqisu7szkR7PvdKa+Ti5UJzCg7C53owcSG5I2H5fifKdi/CTHvWvn+xLsQPP5Dl2naUQREDHJyorUxYfCTgDYSuMcoFjOP19X53N91+e7U9msfjRu4jG4SgwK8MUD7WYJ+PORiHx1U1UME9nRC2nMnsXsHYdKkcxoE9K2A933b+rk6da9SbDq1pQOScTHqJxvxLaZ4mE+0w+qXt1Tv2QAf/ADRy/wB/jSj5xR87I04+oQz/ANepP4Yu49PZ/HMx6Lrb4+cs2DczgPTc6Q6yRBXsWImMn0/wjPf11F/sgRf+aGY+j20oj6PdORpwP/Xpdi4tjWCRv7HP3nY7F5TI2clfrUVTi+K5tGtC2Et6ZZAvIBk3cIXwRBucz5TYfZ6073zsTmu0WS+1a5vRlcm9dAAFnOzJFEGSPk+VcOqbrBWmBwEKxlPz/ZYHhU7qCzFPtRjwGfMFh0WaPApgxyFNjTRIEH8HJMb02Tz3MH7Dz4Hw9ngi78pwucR14FdHMzGPtC0BUVVkPJVFpFJR0OLP3q1H8GAfK/O1zXeoAD5qczvy8YS+x1XE46yksnkJx6DeYOGsnpJFVVjxN3UdZc61/B1UJYyVywylcK+U+1PHyFPIIxnaPEWMFYcNcurNuvcqLiyfTU1prIHLqS75Cbcp6S2+xkq+OoL9kL8W0YWzVqUqVCzkqyCvRcv1YsjjJZyBEU5iNwvWJAzIzMAUpaimGdWI0t3jy7LZKpZx324yU5S+3DWmXXQpKqyIE5FtWiFZVYpqiwvdNlTXN4AfyPygw8mEwNBGK5/ZJu3R3c7A2aeQoqo496FLudMQtRvkBm/VWttlJg3gSBlkc5XwZ7PmabzsX4h61fslM5jCZWrRq0aGKKudYDLJrsVFo2oCs1gdck+pkwkcRKY9hBx0l/2QcjJuE6skbi7HY+GEUywyZMZA5kme4TOZWw5LnPr/AJ4c9ky1QzsfMCMFz7N7RHGNi5YuNo2mIid99IEgiMUoPg+77Oy2MtZp+Mx2WBFXELsttWrS8paiqq2KE0KtSkdkUiTnblys+zpiTeAwbQtTAfZRcXZsGpeJzBJ6ZxXldcX3btyTX5enUo1jdy8wjzVkXvsoGPKMD1KfauH2JexJ5y6DJk5ns+uZ5n1JkJtVeMTEkU7cJ48fq/N9NQH7HjeT+yzDyMrIRq5UuUTEyO9R5lPDfmHLff5muIc6RvT3NbinT8Pn2R5OYyysRcxRY59lrEJau8u6kHqQT5TaKU1JTLoWS6/AXE1ns4LnU88SXjix3Z2wFLy9nJZAhEzq1JWPlhZIDX801xjC5smYioABhbQZTA+zqa8K6OXeJ8IKA7ZlEb7Txic71CiN/d/Cxv8Ay+urQ+yGdxNuv2gXl65BanM2aflKqmyGRm7ja6RisqqIEb6zvL1pG0iCNDHcW9NZiZ9pMLlqiV4fEv3jRls3FLtiq5goQmkePVVfVydDHFbYAFZyCzWsshNgoNbHqmt5NQwoVtLqvPYt4eu59GBxFLF1Wm9FZZSLzLeXG5hPYYjBEK1GbJkFhPER9Pd84te/fZ3OZztznYt1cFkcRTdSqU22M0mKZV5DzHm3dEmjZYcLsSlIJBgv2AmQsQ9mzHsJ2UChRp0VFJrp1UVAKYiJIKyhSMzAxADMwHqIxtpwzSHJazfsq+NZOcpkfUhLMNKkbTEDE+Zf5zp7qIYLZlTlyLqfDb2+msp3R/ZSWhXOr2gxQ3ay1wk7VGV8iSUEvjcqXHClomPtNkWAGfX5P3aZrv8AO83A3M7X7H5+ms03ate/Tt2WQtU3ZsOWqsklyp1Z7BrsWux5gesZ+V4H14CwvnfF9iggQY/BZBhSEwfksisCNsqI2zFe4tMwg5nZS96RB+EX1ialkRip/wBznep2W7K4W7m8bav5HFZPLrEKyEx1cdZmuIRTcVttfpCpQB63ngMj0enz6q5bYfc/48qmXp9oLw465VVgaX2wJbzVD7VeUXGxwATkFl+8mD6sMPesufrPBMPsYmNZdyWfxzYk8fewXlshA7nEsBiqFWOcR0y512XCAuPw6k+yNQrwzdux7F9rH1soQBVUu9iMkUpYZmiuEORY6ce1gsbCDAuLJGm3h+TTsl0e0CYTx+Hn7ICi/h81k8wgKI4WUm+KxMcJhZNqa6QlkRJ2TspNEBz4FzQXyYs9MN2m+yF5BWMDPK7NzGEZc8ip1rLLRae6TYmDJS69ivTQt6TU11qzEQccf86Ej4Z0x2Dsebfjuz1vLXl5wRuPmnQpmyR+1+Ic1ww0VrojCTV/CrabY4n6yShvw/a7ssMEBvpY+zO4SLBymEti2T6SiYQ2sW/qLg+iBnFkg+IQXHSSVygJlfHl4kft52ewrKtDKIoXzXda1wSmo/Yb6PtdJg0CbaBiCurnfpdIFO+U5gOrS+xe9u3li/ITi74IizesjkiBI0T+UUMV4KCAzswcnB9JHCSSZct5YIL94tO+cs52J7OX21k17A5mxVsIQOyOpWRdWwkDMQMLYIgyQHfjJcNz46uTww5tqu7HNMqzIOQjtKa5EiiFSPXKSDpzErJYHzWE7FyHlETpNq7ODdTDOVbWW8eA2L1qh2cwt3tEyl/zp9Z6atUeDui6UNsFJvETFgLYCYVZYs+kbBE2D293v2RPB38ZeyMqu1jxyRfYoNWE3GKlq60MrCLYUxPnWeU6zGIhbAmW9APfpGvsefbbODeyWOws4VV2zVSJsypvAYHHGSoisusBnacldz+DOYVClBMHx303fhU+x/F2dySslZzRW7chdkqia4Vq5xblY2JKJYTWrEoSzbiAgcJ9vtDdZK4QFicB9lXx9q4VZOGyhgVczpCoYs3r1yDiV1FVagvQIGjk/wAzN6YCB/gy+OsP2B+yx1nuem7hLyomTGl5AxvttM57V6vREVSD3jsI8SmOft2H52lW+xpQUdrsXBciOKd/lMEMxEDUctnP0kyjrDAbwcDyH6/pr52FIR7xxEVwMR2yvhE8JH2jfuiEbzH1RnaB/RpJK7Ma0zPMnJ7jvsm6Mnl4xV7FtxvWtRUrsmyLCTZPnAVr6WhXZXeRjKdghsC7Zf8AG08mtJff4yB7wbO+0CPabFkPr6QXWokUxv6CU82HO34bNbP+/wA8ZGD7N2K1TINcVqyItFFZMuYqsTJX5l25AC0QYzHz+ZcD4gfCdKCuTwJwV66Wnx9/c+X59j/7yOr+7Mdo0XK6bdZgur2VLelwTuDFMGCAx39NpCYnVA+Pv7ny/Psf/eR1xueRduV7we/VLX4je9a7h1918DX3WApnzQvqU5nee9WD4efugw35+v8As262wK+H6Z/r1qf8PP3QYb8/X/Zt1tgV8P0z/XrRaC5N/veC8E4e+uUfh/8AYpZO/wD8AOJ7R3jyF67l1tNQphVd9aK6lwEAfRCzQsEs3CMdQwPkXw+b7dT7sJ4aqmOwtjB17mSmu9d1Y2mWom9VG7EwQ03ioArCj4qAU8BIeRCc8+dxaNaWF5rKRZ/2Irs8XqWSz0zLJaf75p8TMvaZlvjZPmYTIyfPf63x12B9ihw8qsi3J5d1prFGi8x4y2uCeMQErEBRZJgCIMY5czPAOPT+s8ujRASyUp3d/wDY+qFfJ/bbKZHIZ6yBqan7ZkBiDkD0kuZ0xEnsSqIEOr7BLmzhyLcbP8RnhixnaaqNe+LAaqGeVt1z6dmtLRgWQBe6DWyICGpZEg3iO+0wMxcWjRCSUmuI+xw12njxy+byeWp4xUoq49kKrVgRPEfLfIx1fLdNSVkqG+8FwPLj7NWp4hfCZju0GMr41keT8iSixzqYCuKMrWKYBKImFjX6Q9PofMiBDb3LDV7aNEJZSIUfsUWMihYqsyVx1tj+rWuGA9KlBGLHRWoQyUQb2CPVezk3iCxCVwBdS1u5TwL0MPUytI7+RvpzCiVcXYaK07EJATEqQC4VZIC2J8FyngH4GmZ0aICSSkJ7JfYpq1a0DmZ/JMrgEL6SFhReaoKChTbtc4YQewPqR69Qh4kzT7aNGgCEEyqy79u6FuapRTVk7uKnzC2nYonK2sUIkJ1jmJDkl3LcoLlvt96dtKvS+xQVFEtiM/k0NSYGp1ZFWq5JKmZEkurKUazjf2zy9NPro0QiSqv7cdzDLuDjC/bS8opqIqNyIkDLtgFCsHE82iUGdwBOHzt7uqeqO7k/sdqMFkE5Gtm8iTFVn1OmQIEGLeglTz4r5TwZCLA7FvzQG++nB0aIRKSfsN9jNRQuVLqs/levVsrs9WRRD2TMu8wvrwHMV2gexZR7vT8LWf8AEt9j6p562d2vcLG2LEfv2PLRbp22BAAlrK/mKpg8YgPeloCyUpJgyS/e3OuPH6dEBLJSo9zngWGnar28vmr/AGgOiazx6LZ2Io0nJ9AsKr2b1+YsBt6SLAWP1VB7dmnencZiCkZmJiCjbeJn6Y33HfXp0aEkpMexP2OuaWVTmP2S5h1yLarVhhSK2XOJib61pyzE2VLMLWskfNEI4j8/TeZOgTFNWDCUZgYg0YiTURDMQYwe8SQFPON9o1ktGiESkFyP2KFDzNj+0ORcxzCY5p1q8uaZzBMaTimT8ycj7rH8Jt6asnvQ8AlXL46jWvZO5YydEbCYzTRE7ditaexh17QcoBgishSs9+auHISHkfJsdGiAl1ik4Z4Bm5G3Qf2lzx51WOWtSqg41FBTVr4EIXCF1lr4YxYsZ7g6nuH5k8dM32o7u6trHuxhqAaja81YUCxEEqgOC4WuIEBFMQHTEY9nANtSzRohJKW/wteC6r2YfasDcdfe9Ka6zepaorpXMmwQFXpJ2GzDGMn1nguPo93T4lvBuXaW0qw/NXKqayiCpTSlJ11OYJg6ycMjdrDAoiOUxw4e3TLaNEJZ2pXOzXgaQGFs4K5k7V6sTvMY5xLUl+Kd6nzqkuCGPl5JvEo4+4hmJ5zqquyv2Mu/RYXke112ipkh1Cp1n1LbQCJiBaytllVnGW8lL21DZM/H4afjRogI1ioL3Q9z9LB0ho0AIVww3NY0za+zZdO7rVhzJk2vbPqRzP3hHgICMQzxN+HIu0lVVKcpax9eDk3prgs13C5KNMWRZG5jXJXMAgojnsU/wYau3RohAKTvuK+x6RgsinIV87emVl8ugUrSq4n2yNezwOeawOOoP3iItYnvJ+xnVb+Qu3l5V9OLlqbU111VkCmE1Dp4HDQMYlqZP/4x6drRpICWSkZ74fsaM5VNEiztp2Qq1TpWbuRUVqbySdZeuXiNhRw6v5mVrPqH7AWM/N15+2n2NmzkKVHzXaOxcydJUV0vvVZbTXT6UrmsmqNhLQZO8Sdxz3vbxGD29vB6TbEfT+Xb6f8AV+nXBLhKN4mJjeY9J3jcZ2mPT8Eo0QESUknbL7HAd6ljAf2ga69jUlVi9Zog9TaPVrtXUNA2kFCkdFoCfXkzh7ORfwfGWdhPA/epYm7jP2U5Nk3U1qfVICaipj0wYWa9Gnas2QQy6tjBJ/UOUbr6Yx0/e22jSwESUj3dt9jYfh3ssYvtPcpuYBpNisdVgjSRJPpnG/Tn1Ty5wAlucz8derua+xsBhcpRyis5ZYykyCkPJqXNgPLxXNDGQ0p4MCJ39Pr/AH/XTsaNJASaxSDWfsXEze+2ZdpbvnYtFdK0NFIumzLpsQ+Dl0gLAOY2Lht7Pm6XbxCd37cp2zOtT7QV7GThUQeQtmeMXRtUK4rZRq2Ek3mYOBrTChCOg2w9bpexc9PcCWqh7b+Evs1kXMs3cLj32GzEtdKYBjSj0g2kvjLDiPb1D3Lb0320ELo2pGa1bd53d52nwQRes5wgWdtap8j2otMfEvOBlgx5oHMjgRsg+HKBj3jtrZJ4Eu3WRyXZjH28nJsslDQB7BIDtVlNNdaycM3MpcoROWz6t+f9bXrwngb7JV55r7P46S35fKJ68b/egbEtGAL6Q+b66uvGURWALABWsAEAAIgBWAxsKxEBgQAIiBCI+j+TQBCYTKXHxQ+CGr2ou1bj71ilNaqyrI1krM282w5ZdV0H0+ifKR4L5ci5CwC1E1eEPtcuuWPV29teRIen8rilMvAn2bAN+bXm4Zxjh1BcPt9YgJ+Lj8dfdLCSUhWczuM7rqdOjQx1rM3sqbXWW+YFT2qpQhIkcwps8EjZFNWotcj/AAhEfPmZR0e7bHdvO0lHOUkW14ummseYbZV0k5C8khOti1LcM9Zqhma2SPeUyAID53AjdvvK7lMVmQUrKY+vdWgpNIvXBQsiHiXSncZjcYjf6J2D8COOf7H9jqtCsupSrpqVUxPSr11CpK+RSw+C1gAxzYRsIuO5mZlPrOkhLKp/xa+FlXaipVUVxlF9GwVqq8Q66hbK5CJbXJgLbsUAYlJch2KI9GM3p79otnSwy+zZdpq44QAFJLr4aBttQJnY4G9t58xE2C9eMx7QCR4e5ZO9rhwjbbb9H8ulhJMJcO8rwRYy52bqdnas+TVjmJfRsSEPJVlRkbXtGSXLJtdR/W4mHq6SHbiMag3hm8A1nA2Vuf2iu3a6yez7VqFtPHPc6v0Sbbr+bsLaUgRTx6Q+7jM8+PucvRohKtfnaL7FOtd4rOBzr8MvlBqrjXa9qJiSkYC6rJU7JAuSb04ZzLb2mbeA6uHsR4NLVVdu0/tHkL/aB1R1OrmrYSyMal3SlkUceywxKiOVRJH1ec7z7h5HzaLRohJKSbuS+xsDhMrTyqc9bcymwtlHVWMMrmLxZWIxby4GTyMvj6wHpuASOGwX2LqU305Oe0t5lxd6MgTSpqgm2Ov5hhF8rO3UOTmf8/T5aNEBGsUjPb/7GLF/K28vPaG6mxZvMvr4VFTNY+tDKoKZLOfCssVp9f4TpCXs+Gsr4l/sfLO0FmjbjNnXemjUoXWNpi4rs1pZxtiQPQCLBeYduqAJR9SPQeGnR18gdEBElRTuu7CJxePp4yvMymhWTVCSmJMhSsRgmbfAz25z/LqlfH39z5fn2P8A7yOmW0tPj8+58vz7H/3kdRrnkXblf8Hv1S1+I3vWu4NfdfA191gGeiF9SnM7z3qwPDz90GG/P1/2bNbYVfD9M/161PeHn7oMN+fr/s262wq+H6Z/r1o9Bcm/3vBeCcPfXKPw/Ert0aNGtMvNEaNGjQhGjRo0IRo0aNCEaNGjQhGjRo0IRo0aNCEaNGjQhGjRo0IRo0aNCEaNGjQhGjRo0IRo0aNCEaNGjQhGjRo0IRo0aNCEaNcCPVM98vijxOIg0m+bOR9BXjKPGxfMyHmEEoeY1hMff17XSXx+mZ9NNc4NEkwF1psdUdqsBJ5hiVJu+e3a8nKaXMbFh1av1liReVQ10ebsESyFiuNUXipwfNfKv9Gvew3b+thwirGNtqptuWXFbrIrnRqleuGaUOCtYZaA/lkjuFQwXzDmaw+U0pneB25fav2MlMPpnBEtDl9NmTMbjKS7QklBIA4xmOiyFSnYJpOZWxlltYHNt9WzOxXeAaiaROsHJW7DawW29W7UqOFI10vOOt1DI127R8bXt88a+M9P2UFfSLMHUngjfMrRW+h6r2gPaROOscAOjH+45levdD3pZDI5G2LfLrqop1i6C43lVixYdMAbTmGMYKVShnyaQXYW8eE7AbL30rvdt2sledQIeicrTsw6C2kftlQOsaTiduYHYx77kFHw/egaaLV1Rqiq0OCqdIUeIrupgQBH9o0aNGu6rkaNGjQhGjRo0IRo0aNCEaNGjQhGjRo0JUaNGjQnI0aNGhIjRo0aEhCNGjRoSI0tHj9+58vz7H/3kdMvpaPH79z5fn2P/vI6jXXIu3LQ8Hf1S1+I3vWu8NfdcYnRrz9nohfUpOJ3nvVheHj7oMN+fr/s262wq+H6Z/r1qd8O/wB0GF/P1/2TdbYlfD9M/wBetHoLk3+94LwTh765R+H4ldujRpX+8/trfymXyeLp5ocDjOz9Krbzd9S1ncN11Niwqut1sCq06taqmLdi1sZ+9a44jLCDTLzRNBo1ru7f+IrJqrYNJdrqZoPMZOjazuApqyjbCa9NdnGeZpBXdA2zM4izWpJeiQOC6s/NLwds++TOLoVTw/au9l7t7tBiMYg72BVhULOzVyLBTMWqVfrptWVK6kr3lKeAjyKPlGynQtkGjWvjvg8XuRelt7D2H1K5dirOXVWJKZOtka+eqUbMsNqmwbKYddE1/mTwmJ4chmOeM757c18k6r2zy2Us08DlshWoWeyw4wScrHtlTmWm41EMFLmA4VA2eUjER1Y3gyUQtgmjWuvun8SF51vs6NLtj+yG5fsUU3sIeKq1elWbUh+RsHZRXWxc48eb4mTKT4dH5QuerQ7w/EZlVdplklhB2ZoZXH9nckIJScPyOVqOZ5orZB1KqcZYsYtLR5gJE/4nM8NLKITiaNU53O9tLVrJdp1WGyxOPyyK1MJEYhKSxNCwYiQBElya5jNz5l7+O+0xqTd93eUGGxN/JsgTilXNq1EfCHv24Vq4lAEXUsWSUgNhjc2BoSQp7o0iOf8AENn8f2a7TKuXET2k7PXcdXK+NRPSbXydjHylwVxCFz1VuepXyYc4Wky6bOqCbt8RHeZfo5PAVqdgErvfb0rKyUBS+aOGfbrfKsAxSpdgRlkAPNnt+qLdEpYTA6NIvju2XanHYPFdqbPaGMrVsxhbFzFOxFKnvVy7aqiGtZq8WRYRNxUgTD4F0/f+Bqv+0/ijzUO6LM+/FVp7U9qca28rDV8m5dfFrofa6sukpDiIPlmdV4J6nV+d7flNc9fGE7UkStlGjWv/ACvfhn1Ucc3D5yz2jsvzrQMLODDDsfXx+HbkbWKCuympnGypcmNpKzZ1OmtXULqalPb/AMZrS6uRxBxaoP7M0reOrtUoQHM5DN/amvNl28nB1mFAWKsP2+Qdx93u0+U2E6+jStz2L7U4bzN5naEMxVHHZJ+QTbprrnVtLqsfTdiQQpg8esPTZVtPgBSXLdh8dqg8N3fjdyTcINvtnkmWrXQK1iHdklJS1sVydYpDkxxwKACgTiLAP5EqfTgR+xZRC2B6NIL3NeIDKXchRXb7ShUzDb0DkOyuVxPkKyqhOgX1cfamuLrF1KB6ldnmnC8/QgXDS0/AFvGgFIQuWjRo0qRGjRo0IRo0aNCEaNGjQhGjRo0IRo0aNCEofjz7a5KmeG+1z1TJusnZxXVem3llLBahFJVR6rK9HzTbVhJOWEjwIupAcdKp2GxDKlMzsyCSbDnnKiBakLYaZrjLKy66jmIhi3GhCJL3SXPWxDv+8PFDtFVCvclyWV2dancrFC7VR3GR5qOYKJGYnY1nEiyP0TFHdn/sbVCDAshlcpkQEok68kmqlwxPzHElXmOmW3uFT18vh8301Cubc1gADA24TPaIWo0RpKhZf6j2ec30dsk7MsIjpmUo9bt0+1d8hgqTsnZkAgiQv5FfKZ2YbImAisZlwK7ZNMD83kzbaJbHYK9j8wFTKWVMaCKbN6iTCsg7EWTisDpgIYIAoNmMXzdPL+D21sj7Dd2dDGJlGOo1KSp23CqkEQUgMCMs6YwTS2395yRf7FL8Ve4dpqvtiIZi6zJKPic179pexfD4ecGY/wBP70c6W6sadGkYz6vvNX+j9P19I3obWA1dWAAIg8/T2Ly4QugVS11Y/eOQr3mSURC5X8rTeEFMx6xTytux/wDgV/gae7SQUsULlnVYUCFkG1D9Z3GLKuiR/D5gxx01ndTluvjMc8iMzZTrEZs2hsnKg6nUgSKBZzHZgCRbHvGpei6uu1zYyjtlVXCSm3jhUGE7NwEKZ6NGjV4sajRo0aEI0aNGhCNGjUI748VD8VkkEs2i+jZQSlTIsMHqJRwBjIyByBlEMgvk/nevw0IU30aUen9tqjrKmFlBeV67NdiqjXVsrdpYzA18W2y4V2GKq2a6LJ2BOVJOwu98t8gkmYDLdn8pWfYZRHLWgKnapHD6/nFWumnt28RaqyoOsQXwxy18pAZXZpVtuD+TGynwnX0aXLNOy/mL5k3IhXddmoIhtA16g28NXW6nwqkwWtS+8yCmbJsIC48d56Ec74BvXuzGMOPP2LrsXeY0EqOG2GWuyuYUoLdca8EJMsOVxEqoRFmA+TGdw0SiE2GjSld5ZZaFlRX9sy6q87WM4WxvmU2KubGm2GV6NmStKZXxsi9xoQpVpSwS8531Ku83tRla1TEMxaci/lTE7ADXF7OlRGlkmrswxa2FbyFWtaxCAEF/vnIcvkCXvBKWExejS24jtLma9xg2ptMhfll2mjV5V+mm9iErsogFwvnkE2MtYscDNlVNdIEH70UTa47yMnmX4WwZfbKs3JYZSrRhROLM2yw/aB8q8vCJYiBsBQqNFNcGm44ADDmLDNZEJ2dGqq7f5m2u/UBR2Vgc1iWpFaGqtEd1Sr/nH+Wf5YalKQav5Wv1eo8vlPLfJUL2fx2Uo8FqbdEGIo132r65syvymDrspIlS6MS5dnI2r53YiENY0D/fCidKzCYREpz9GlT7UdqMsA5ZD7NpSZW41uXUgiRD39qUrUmYQ6WqhNDEe+A6x9WbHJZXOOmawkT0E8okS6a+UF86J4xvE7yfrH8s/wAulBTSFktLR4/vufP8/wAd/eY0y+lo8f33Pn+f47+8xqPdci7cr/g9+qWvxG9612DrlriGuWvP2eiF9RuzO896sDw7/dBhfz9f9k3W2NPw/TP9etTnh3+6DC/n6/7Jutsafh+mf69aTQXJv97wXg3Dz1yj8PxK7dL93p+Hu+eUPM4PKLxl2zVGjkF2KUXqd1KpkkNJHUTI2lb9Hq8z+Qjjt6e9gdLR4qfFoOCkKdVQWcg9RNjqltWrK3gYZZkJ5zJlOykjxls/WCPdq+rVWUm6zzAXmL6gYNYqHo8EOUUxVur2mFWTVmb+ZK6eFS6CbkMXVxr1DU82uuoeCnT7eXtcqPQq4mciynhbzl0sf9t+04X4x2bxOZr9PCIpcJxw3hciOnZZyO75pHyx84r+X9qplmku7U9/Wbvyw7OXt8JkiNSj8nVUn4FApqSBmCvpJ7LMl9UIneZm/d14Jcvl09dsJqIOBlZ5CSexwlM7sWpMLb0uPuEmOQbOfptHu1BZel+NNhIUWnd8YJY2Qr/7yPsfVW9e7QW61wKgZ/HnVanycuGvbbcp27V4CG3X59dlJJkgo/h5Y3n7mLPP5Pw69qbVe7TyHa5V6pext6g1E9na1b3W6k1gfDUW+qJqYUv4juJeo7bcOFP5L7GO/bkrJ48ziNog8SSBjb6IJd1sxv8ATPDf+XVJdv8AudynZ56wdLK8MkyVcoWbA17BL9GxDq7ahosDvy6NlbzKOezGcTLTn3b6Yl1MhdDXeBizJPl258N52KHZyqi6tD+zlvG2kW20/MRZjH1DrEg1DYQxQWoPmXScXHpx8fbtWbPsaOJbirNe0+zZzVrzthuamxcWJ5O2w2xfnGrvRS3WfR+T47shAbs5/KaXDsl4kc/WKJHLWWREj8na43EkuPiBC6Idyn6GjZCdbA/Dn3nOy+LVcsLUp0ssJYKJKVEVdxqgwg/eAnAxPAiLhPpzP46fbXba5IaMkUbptUwFVivDH2lr28lbodrUU5ybk2bK/wBjqrEeYVUTUloE/JFIcxQJ8PmxPpttqyO+vuMLOVsdSs25iqi7Vt5IAXIHkAqCZgkGqas6cHahLiYn37BxAg+E2/o1PhSpSf8AaX7HdizLIJp2LVCnk8SulZri19yfOU79W7jr/mbr3mZVegNXyheho9oErh6y2j4bMvZtVLObzishONqXEUBrYwaYzYv1nU3Xr4lZtRYbFd0rhK/Lp+ttvz6jJ6NEIlKt2V8IWTFGLx2U7RDfw2K8jIY5GIXQKz9rIT5ELVqbto2ISxK2msQDqlHqWsU3wQXk2hv47OqpXhzXaHLw8sONsR/ZB5QWVxS28IjKF1IX1eXynPbgv4k32jSaomUSl6xHcDmDt4q5ls8nJMxOQsXFkOHChuqxjX0jrx0rphsJO60OIDLf2/CPSKXvALj2XO0DYdKqObqQkKalEBY63FgbZ3azJbISRXRi2AyoRUftD5M5DTYaNLCJSz4/w75y0Mhmu0RX0px12lXXWoljQsOu121Tu5NY2mDbauu0hUoOkoS+UiRP36+d0/h97R4pWOpfsnrvxtFdav5SMCKGtqIEFmuLgZAzS0wieLuBnE+78PTM6NEJZSwV/C/mHLoY/JZ8Mli8fka+RWdjHHOasRTsTYq1reSK8SpgZhYMtLpg9whMfJ9QtmcGf+I+G+uejSpJRo0aNCRGjWNy+XWhZOcYLUsZNjWEILUERuRmZzAAADG8kU6pPtN408GsBKi+cwZMgCDFyuwFeC5RDbtomLq0k8g9Je0WN/wSn6aXAZroym5/oiVf2jSbn4/4hsb4mTTvxLy+QU20MmawCYUSl1uG0zz/AH5vEyHEWe4hY/uy72KuWQTa/UA1TAWKrx6VmsyY3gHKmZ48o9wHEyDR9wEceukDwTAUi4s61vyrY6j3Eqan/Ltrs1Du1vebRpMSixYUNqxBlVqcom1b6fGDGsjfqNkOY8uEe2PcWwwUwj/e/i+1/ad0KbjL9OpvyTQ+QqVhEpnptv3G2rEttI3hn72rbK22hDyCebX1IwhLb2xrHznBrec/eK2G9SNctam+wH277GmWYUmZxIWFV8tFC3UyuOhIWVjZF4VZW6rkFdX5J3TKOTpE+mPPntN7Mdpa9yum1VcFiu8IYlyi5rYsvUSEh3iY0rHE5iE24ocU6GuDhzjLtWZ0aNGuiiI0aNGhC4QGlR8VWHD7dYRpTOx1MgkoiJ3Lp2cawRj/ADuofw/B01+2lW8X8iWT7NwUTstl50zzgImIZjk7b7/Hd8Ft96J1Avo4oz94q60OT+MZHT3FYm1VFUlJSEEEGMxsRSY/OmRkd45T82OPzNXd3Dp6dWyjffo5PI7bzMxEWbR34iJ+9EW9hiPQB9segaplLwkwH0AFyXtiCjeeoc8o3j62ro7iw2Vcj717+ulSn/bqssPNeQFoNPCaIO0HvVo6NGjWiWFRo0aNCEaNGjQhGvkxr7o0IXRFeN9/p2iJn6ZiJ3jfXPp+m3r97467NGhCgXfS1UY5vWpJyAMZWr+RsxvVsHbtJqLGxEotD0RY4GlJVncIDlx9NVTmPFDNJJcMZyGtRyswlR2AWqzhoy4Ggnxixx6qTzwrV1rJvU8uYkNDp+urr7xOwdfJ1G0bQQys+VQ5ZRuJgtq28JiOJcTlcDOxDP3tYG33FYpkollCuUoSyuoZgyWtL02VPWAbwEdYLllZlw3JbjifyNMpwhQzI9/Log1hTEyLJ18Uk7Fi3WUy0b7VewQ2SxLETCbFY+j5VlySgg6kUjgE6wnZnxQWnKrWopVfI3LmMWFjzbUjVTksXh8gI2CKkxZ2ibkjXWl00a9ngtJPrWn1UXLijuro+YbZ8qmXubVcbSGZOW0yaVdm5EUbpJziDgK9uqf4WsO7uQxK1qLyCYimSHpAZIVrKkmsqvsMmAT010aYjLfbvVrFP8AvgYpcFF+8HvZtY608YVFlRRXTVXNrpfKhQy2VuOfwx7XLOUUOmpC5tg0uj8lVE2HOdo97k+SyFxiiBGPcxfIHg9rKyFJl9psCrpoavqMLyxl/gZIjAT9mFtdtcDmKCX2OEKvrotkHQxDonIrRVqraS5WxZtjKIrbc/cNr/Fs56z/aXtzjKQPQ1YGRypl2sK5ZMjftIqOa4ZEgYMeZWbFcjOV/AJ+TgkSqPZXv+WK0MWgrKr0qlAiuzYUVGScU2FxjsZkLBSdOFWxByV156y1+ZTvyZ4sR4jvNOt1l1rKDrpYZuliXALUPfSuoAPd1GUcggKZR8GRYlw7x6a9XaXJ4Mhx6JqVjpPYtVd4yK6tYamNy7xOyvkqV0018W2rPOOkfUFcxxUXDs7P94HZ8ic4FJXzO8wmdE4KympFa7kLYjA9SUrfYRLiMB5OmPnka+QhcLPiBsDN5YUUk2qZysTumoXoU7MqNpsnHyK2kWEtmKFDY9GqkjUM8tXRj7UGsD9YgwEo3232KN/Xb2/DVH9qcLhcnLsas0ItXq4w6IUZNKubMlEpNZgHTImOzkQDSQ5bAsT0p6bIC8ai9hGPX0GI9Zkp9I+mZ9xaUJpXq0tHj++58/wA/x395jTL6Wjx/fc+X5/j/AO8jrhdci7cr7g9+qWvxG9612DrloGNGvP2eiF9SuzO896sDw7/dBhfz9f8AZN1tjT8P0z/XrU34d/uhwv5+v+ybrbIn4fpn+vWk0Fyb/e8F4Lw89co/D8SuTNad+93tYd/LZS03aZdfsREbiQdKqfk6u23sLjWrJL/P93z/AHa3Fa0jusSXM5+JG45/LJMMp/r120vyYXj+kqhZSkKUd2eAG3fo1TKRGxepJLiPMtjsCZenr7CBZgX/AL3/ADNbiF1h2gYGOMbbRERxjj8No/i7emtSvhzTyzmG9duWSrfRvtwFrf8AtdPj/pa24LjXXRfJJdHs1aS56XfxvdmIsYCwyBKSqWKtoeMFM8Qetbfh9TomyS39u3un7+mI147dMTEgMRICiRISGCEomNpgoneJGY+MTqyr0eNbqqyeNZpHOD3LTVi5kjLj7ojj833REFG4b8d/nD7o+/rY14GjmcAuZ32K7kiCdtoIPOtGJGdo5D7fjGp+Xh1wE/8A7Dw/3v8A0XU/2o1OcPh1V1ghC1pSsYFakrFaljHwFYBEAAx96I1Ds7P8OSZmVAt7XijMr36NGjVorFGjRo0IRrjJa5aqDxS95tnEYWzeqSobIHXWqXKl6gl1hSiOVgxUyQLMzH3ceURy3HTXTGCc1pcYCtvnHr6x6f8AVoW2J+mJ/k1rRb3y52wMS7OZOSiXRB1lU6adgcwFySl028iIBCfU5j8n0atDw/8AfjmCy2PqXsi23XtwwIU6tUExkUuYBk9CVMYXyO3zV/O3Ln8NS3UHNZrlTHWj2sLyni0a+Dr7qMoRRo0aNCRGjRrjoSpJvHP2wa6/i8NuPliW7I2EzO4WmLcFakixxiI8qUy+yxbJ4n0i5CYonjXnZTshUtVcPNyncSeZai8OWrXoWeEpWGFTwtVSmKts8tlQBbjrEuajLVlvU4KQsEYf7IeJLzN9hGYkXZ6vNY4OYhIgzK8p9N5Dd3Hcv9H6++mE7e9oMOJbVJpru4JycevGXsnOHSY1hXYrVmJMJRZQuuH2xouaLxSyepAe0w1X6+sSeYwr01HU7akxh9Il3hH+UsXe/wBztNI5RGP8+E46jlLwZi1lvNqytjEKWGXxRYwkhXR5XrHHm1KDZoMAJ9PkZh9jxyLBzloIYRLs4uwxvOdp41LtSKUs9pF1FhcsB7iGeB+7cVpEZp3s942IHE5Y2nRPNZXD5is/yNht2rWOUdFtebkSVNNqFQhZLUmrOQt1z2BZHxX88GeOXTdlLdg01FV4r4iHOMVz5oOpbvKGSOI5hXGt7Rky6kl7OCuTHggVNToPh9V1dUJtqpqGcQBPPiT8uZRvueyORyfeNZyOQxz6qa9e/Wq9ZThGuuoKaiyCzMAkysxbc0krIh3eMlyNSSC8e7rLXlrthRxMI2qZW0aTqtS37bxYWuhVO1cfWrXyemWMc2W9Ey6fTetPT1J8ZkKx21sp5VNyjbs3EsCq8HrCxeAbCxbNQ4HeG1T6LT4mAMYuTZ1+S6zz3am9llkhyFobSvphhY/PXMPZUy3kb2FriU169hvvJJm6DmBap62pkjXxnuWbVAd5wlpgQB9/OVx7bdn8jlOz3aetMPGHlNnGy6gNC3bOuKrTUHVNONbKbDKnQlz1KsB1XiDri0V7djLfY56tpOBKtaKJIbc2qw7xJhRyVatkK8nHFXDlNhsdMQjpTBL/AMHqN9nu11+bNXomkK1BN1TqVFxjXxhYS1NAar+uZNuMzRRXqVvMIqzWVWstWgjc4tMr3MdhSx2NrV2ERPhSSsyTJZEWISoGiqZmZhMSvisN/aOkY/WK4Vm6rVP9GjRruoZRo0aNCRfI0oPjPtiN/Dco32TfOJKPbMecwodIJn05z8/0920fe03ukq8Zsy3OYityGOVJxLifTYpyFIiL+Ynht/H/ACaqtImKc/eYV3ob1xnz7isvj8kAe6Yghgi9sTzaPE5npyMzJjx/Lq3+4a7seTryXMlWKrZONpH5bHVY4xI+nPdUsmPwXL+qQaXOMjHUZPKR3I547bwMlMz6n/8AVx1enhvQUNykyQlDSx7RmC2ONqK0EJK9ZCN6/MGSXyos+aPH3Vmjnl1T76Vp9PUtW3Lp2hXzo0aNahefFGjRo0JEaNGjQhGjRo0IRo0aNCEaNGjQhGvFk60GtgTEzBgQzEbcpgomPTl7eX+dr26NCEvvZjuEfXsYprX+aOpaJ9m0ItqQxMYWviVV/KdW1DJa+pSvMKWB0W1eUcOXGZde7rWstseFkwq27dO++qSOZxbqfauVn1psj063SxQK6AV5Z5h7Gk01/JatTRpITpVKdsvD2u4sVHbsfNetnEI3YL6Obpn6kXCNvt4bvdM+6ssfX6vpudzL2pvLsXOs66q6trxrStUDcr1UBxqjYYTPLxQTzUxnB4Nav5pdOLi0aIRKpzs93F9F6Xja49CEcEppLq1QYg89y6SFkMAmSzMcQPqFIVEkTrJsY7Vupgto5TEltG8xG0TP07Rynb/XOu7RohJKNLR4/fufL8+x/wDeR0y+lo8fn3Pl+fY/+8jqPdci7ctBwe/VLX4je9a7w1918DX3Xn7PRC+pTmd571PfDv8AdDhfz9f9k3W2RPw/TP8AXrU34d/uhwv5+v8Asm62yJ+H6Z/r1pNBcm/3vBeCcPPXKPw/EoLWkfHhyiPTceRRP3tuUxOt3utNmb7PTXsWEF7SRYcgh2+BKYYTPx+tty0zTYINJ/8AtBx/xtXj2k6T6tIaoyOOIHeph4cEx+yDDREekXwmIj4Rsix662x61MdyNgUZnFPM4EF5GrzKY2gRZ1U+s7/AjaA62yRqXoqRTdPPI3LtZCGQVQ/iqyfaFCabcELygWOi6NZVd9iQ6cdCQXaU3nEHE8un7vhpQrHim7UKJin5Cwly9uQNoUVNGJnjBSkqcFAEUcefzPy62aaTr7IFjw6eLZts2W3FconaZVKIMoKY4yYiYgULKen9PHfhtD0rSqNY6tTc4HaJMREc/wA1NqSGkjmPcqQr+LntH675U59fTepQH/8AVvXUm7Gd+Ha3IvhFG5ZstgRI4XUowCxkZmCc9ldaFhPCfntgz+aG5cI1QtKpEQW/rvPx+H0affwMURDEvOIjk2/YJkxG28itAhHp9ABED/2vraz2jDUu6vFPqOiJ9Izh9dqqbfXe/Fxjer57IxZirX8505tdBPmZV/By/pB15Df6nV58f4u2s5rjrlr0dmSuijRo0aekRqiPG6vfstmJ+sFcCCecL4GL1SJyUxPtGY3IP8KPJf19XvpV/sg/aQhwKVV+mw7eWxteRmBZHAXzZZMhyHkIjXgpjf4aQrrT9IJRO7rFc0Kl/JxtKGFIRPT3hsx8mP1APbcV/U34/V1dHdPjA/ZJ2en2ztGQjaY965Xj7E+7f8EjDbSndje9bKsydKgcUhm3k6dE2eS9wTauqr9URG0Ico6vUhe4x9Xl9bVl9yfbnJ2O1mPrXYUpeJzGSW8FL6PBdSrcS626xL2L8qBqKJGZjcvmkzadp767XUg2cfmr+5qtdS1QcYW2DX3Ua7M94VC7tNO7UtbxBR5eyp3tmN4L5MynaY1JdQVnd6NGjRoSQjXiyOTWkCY5gKWPqbGGIAEfDciKYGI/l17dR3txh0vqvCxWi4rh1CrSPOXEmessBGfST6iw4fxtCVa/PsiGTgvJ5dSnBWsJvdnrLLtdtKQNoTaQ0U20IY1HSm2HU3ASCGceest3Vd6OQ7T49rx8mu9XVZr5vHOcVcb8zQu4ylkqxPFlby7/ADLhsC9bAYWPSPL5ERKQWqqpx9/HlbS0sxWyNIZLqrXeyVzKFiBYTJm22Axtp5te5iLVoxagie5ePSTqt8NHh1OjkgHIvsIt2EiFe7jsgdOu1DasuVWQ5aazf3yZXbErJG6jw13aT+Q6nDzdbVw7FdAS0N5ssNijnipg8QoKTXVm5Gz8s6K0Q48JjK1wcxXx8LkjPzGSyrFN6kyiv0agKrp6YSWr+8E70XcfZszC2tpZO+MTChka67DatsLKkzyMuqiYrLuT8oAViEWew9Ll3h+FrI3crmCp8bSq118HYJsvt2ZNrB6C0BCTuHW6cBZfPB0tq5COreKqjr3h4OPC3UqknLWMhVv26znIWFEWKr1HFJAytZa2EWrfyJC6E26qQSXwnj09MtxrPx5t+0JKnJY5E44ZmMJHdPSr07a9jlHe+TZXrNZWsOv2fYlxVKjIVUObfRaCGDdkLnmXJcQzV9nD5fVZ4vPoyKRfkezzsxNoFT5zHRVqXndNvsx2ZR52kB2KT49DS59JxdNwDV6/S1a3bDuqbeyC2tZXXQGokLKCXLrNu5XtttVQiZmKzaJm6XOXPOWMWsNlfOHyWcQdLITRow9JZdc2CsDwYda2hlSvk7pvZ1VlaZjrNawoLSHKZaqKKVs969TKrSRDVHY9rc/ls7lCMdYi7XyqoEMVWxkwc42owWXW5FIhNW3afj3QJBVuIimxddt/qWqz1PvsKm1FVh872qu0SNtlC7FCORnZp8gdVXHGeT6jDYTlrDmZvrWOe3wqfW1Vfel2DxdcMYqXnQZDRrINa5sssU58v9sqz2WOs4V3kJALVw2S6S6LTmwxfvvpeW+TiS9DgYmdxkPdEf4uZmREi+rz+H1tJxRGQUarM9CyaXQURMbTExEiUTvExMbxMba79QTuix/QQ6pESK6Vt1ZATMl0qscG1VxM+7iFdqoHeT9vH11O9NUco0aNGlSQuJ6Rfxa4SH9q8VJHP72x9dix39m5273V2/KfRRv/AO7DTzl97SX+JZgl2nrbT6roU4/l3blmTH5PSInVRpMjiSfl1wr/AEE0m7BGwE9i8KVb8pEePKSn0j4bzO8zq0vC4czcy0yMxLK+LcRRE8ZKSyKenEz9KwQPp9EGGqiFkwcjHpuO38kyO/8At1dHhrORt3RmSmWUqRTBFvw6drJL2j0+n52qnRnKffMVrtO+pu3tTCaNGjWtXmiifb7vRx2LVL8jdr01DG8m9kB7ZKA32n3THMoj0j4zGqu7SeOHsxVFRHkucOmRDoVbL/ms6RScrRMLiD3j5SR5bFw58D2hvfd3YYbI5J2Ssnj7titRpJppu5AgpJlzbgEb0IJssS831nCMo3l1JUi5Xzgjnaztl2UxVVs17PZZWQWokmsqsZECmrGz02RqdfJwAEbOmZ7yIM5St3zdIpLKAIkymu7F9uauRrKuU3C2s/l0mbEHKQIgMZBkA0DA1mBLMAICA4KPTUk0rnd536dmsNTv2IvUamMK2u4oK9d6l1xuV66zFdfy8FMvuptPAUBt03cttM5XbBDBR6wUQUT6+sT6x8dAUd7C0wRC79GjRpVzRo0aNCEaNGjQhGjRo0IRo0aNCEaNGjQhGjRo0IRpaPH59z5fn2P/ALyOmX0tHj8+58vz7H/3kdRrrkXbloeDv6pa/Eb3rXeOvuiNGsDT9EL6lOZ3nvU98O/3Q4X8/X/ZN1tkT8P0z/XrU34d/uhwv5+v+ybrbIr4fpn+vWi0Fyb/AHvBeCcPPXKPw/Er60fh67eukG8YXh0sotvy1NRHSsGdm3CFyxlV0KDqGagjl5R3TOy14CbAe0ufFW86f3Rq4vLVt1T4txI3c68ye0PGqVpsxl0ZmYgojlw4lt6gQGDFHA8JP2GAn8kQFuIzp0u7zxzhCRXlKrusuIgn0h6oMgfiZodK2pIh+IQb/wCX6NMX2j7ncTcMmWcbRew49zWVlE0v5W8OrPx/D1EW+EXs4UyX2sWEz6/JvsK4z/FhVgYD/Q21QUtHXVuIoVW//IE4LjToCnketRt/jgw0ByALzS/xQVdmRv8AD+EYsP8At6VHxAd/T85YVvX6Fet1YSHKWnuzYTJ3GOCjkRjjP1fUfp06I+EXs9tMeQkonbeDu3GDO33xO1Iz/q1mMN4cMDXjZWIofHeJZXB8jt+CT4OQ/wBHT61lfV26r6zQNuqDiPnK7OaXCFrMwzRI4CN2GUwIrAZayZ+9C1wRz/N1sR8JfZF9PDgFhLEMZZuWOm2IExWx5yncd+QclQGwHxkBiBkQ+GrexeGQgeKFLSPp7VLFcenpHoERGshGuujtEC1qGpryYjLD76lypW4pmQURr7o0a0YUiEaNGjSohKTnfscGFsNcw7eYInslrDZdW8iIzkzj98VHbQzcgLYvm6TvsB4fZZm3YP7UJpsrpfZW60uymzKU/wAG2fJ5SpXMGreIQQWHdEzDmKy9wbetVNk+zpV8mthNAq1uMgTFM357nWp845H7RUEU9+UkPDqSHzdNKmU6xGBAO9JPgPBvXF67abYLlNus+q8oyHVhx2pKi2EOy72EZuXDFSSXQ2A63E1mPLy94Hd8eMmjl61FGeuZK1ZaqyGNyANlpkQPbarBdOa5stXZWNVVGvI2WWDb7nlwbfs5g6nXZhV4nNJR1Asxfa+wysIoWmUNrZNl1708DDyyselvDpQzkiEvPnIK3Z1Fq1TXTMRRTquAinmwmKLIVpOAIp3kzdivdZMyI+obB9889KFKFyAZDGj5f2o93V91q/IU8nk1PS9SFXTouBK1UrKZ6sPBaObosQEcPlrbp4TwNcFzAbY7G9q2vJqbFY6thS6ziUbQbPSsCcBJMV8j1Ial62AqSDde4kYmM67O8udsbkJiPhStz6RvO8JZPpEfGeWvCtIxkKzQn0dWvKKIncTkbCXLmd/dyDd/t+jqH97SZKtc7WJKzvaXtKuquDZDCki4LUoCY1reJGKlgP1ygC+dIj+EURr72a7QhbQuwuDEGjBRDAkGDO8wQGBREgYFEgUff1HM6/8A5RWbTAK9Gi+y6J+EE5g8GF97pBWbtP8AHPWT7tqRBTXzCVkw3WSXIyMrm49lrpFBfXV1uB/xhLSpilOuEjv/AMfe1z1yjSpCkA7bdo/+Uch1mIiPt1YFcu6MQFjpRTUzkShnzUVUTXWcMlooDp78OOuecxJOiqQOhdmrYQ2nZlJOWERfotsCa4EWStixsmfBnu+U9OR7MwPetTChnMhYaYqrJz0taUlEAEZDFViF7ZMWQAdZruU7RAcA9Y3PXoxF8LdzoViS5ahJli0Ew5Cyb6VVAamTDGWjn2/4oY90e8NYapx9KuSwzv35YRgF65QpUH2lNpEeaDI/ue5d+PsTWCwx52pE+pLzsiDbC662mVNLQqw4z8rVKJYa+t1rR5G0z3vlp2p3J9qedtsqZBqt46s+SBnskUMhNexHrHOX17yy6kRJcaqALbprHS+9k+9GPk1ur2WZUWMr+TGJArTRYwCBDi+T4MVAcpZPH5Y9/bq2PDVVJXkBPy8MVjMrVd5biddR+exE9NBiTAYtEtlQGJyPs9v3tW+i6ri9rs9bDo5+vBRdJ0WUaDqYaMMROeCYuxdKYiZ3iYncJ39YmfX02+brx4XtHWU0a5GsbNhhiEEPKDdCltlRPgWLS9qgWxabBg160w1a3Ag+HaR8omNtuPrG35Z21havZuknJhcnnORavklZHMySkqBUvVX2OOUL51RZ/C9B1wl+wHa1ztu9eZ5KF9veyub7QKxzqgYimiTTcVZdZt2bA07tFqnD5McfVV5qCcs0s82BJlXKCEvXVj9mu3xNlKngsWOGz8yB97a1s6TRMWNbIcD4ctmM90/P/BhHdT3mDjqtfG5EwTeo16Kgri6bJXwhYCLMZIVkTkId0pABQHMWg4WgvojLvPchyC7PGxHlbLG5ZhKbxNimXmDYlJdImLE2SXMvefAg+dpm3BPnWwVzdjrm13Iq22k/I3Yj/wBnYr+VGd49vz6DB2+Ps+9w3neoFVAhyKZGYKTo2VH6RG8VblYQmdvphdlhcf43pqbvZAxJTMRERvO87RER9+dRzmuJXdr5y1UWU8VOCURh53rsXMCQU6tq9MFMbwMTUruiZKPhtrL9nfEBh7UVpVeRHm1w1AO5V2EMn0oglvFZrZ1fk+kyAPl9XSJxpPGbSN4Vi6R7vz3PtK9kxEAgalaJkxGI40LFgpiCKC5CVxIekb+/73PZ3w39d9v0a1594WYhnaHN/ERVeIYnnPM2DjMUuRiI3iFhA89j9xkfp7dUWljFuT0rT8G2a1y73SpHMFBRO4j82Y5hMH80ImfUOXEttW94fokck2PWYPGqPlM7zvFk9h9fX4mZfpP7+qJo5rflvxmRiJ3iNt9/hvHrq4fDlkd8rxn5x42zBR+DFW1TgZj/AD/NFy/zA2+nVBoyuTWDedajTjP/ABHD59X+U0muh6IKJiYiYneJiY3iYmNpjXfo1vF5Ytc7vsfGH+2tmrWtZSnX/fTSVXVSGAlEUmSobzUAwRMcnXcCYU9cJFi/MpNZqXbH7XzskNSt2eJNGYVZmUIB8zlSvEoLDbPm0QFuGuriiXNCJXClLXzEQWAXj3xYeV1yvJcuo+sUum0XTFYB0HIk7bGCURUrk6LNkvZsmv8AH2apfPd5V3rycJaq0UDsmpiyXbexa6MqonkGptpXXvS+0hVxzKkLJKvlFx15Vwe/UVhSqOeNyxHdx4RcJQ7QIbTwcD5UwaNqyVu2KoGs90kubRjXW9dmzj11p4NsAFN/orYD052qc8NXZuK1JgiYsGbbV8oabvdVEKlhUm1thxzVuIsVObnuNgoEyYZHvq49dW5KHVdrGUaNGjTlxXEi1hO0HbGpUgStWq9YTKAAnuBUGc/ARlhDBTP3h1kMhYAAIzmBABIjIvgIjEyUzP0RA8tUF2k7wIxqUWJWJZPKpkyZKZOUKgQ6Q9JMhZepLW1qNLHVTBt63YUPNR2LFlVfXuRRcC7Lb0LoxusYVo1O+fFt36VxTyjnyVX5PcsVnK2G1CRNylCccJaYCveQ93vDfLYDt1UtSwUPWw0zENCJ2YqZGCjqKLY17xP1xjSj53tHmnOmIys1XpBRbMGoYiTmAqmWRJFEqQle6DGojZoVfb0rlnr7BM+6Tt27NJLzaPI53EvgNmwUSlhTIAJnAqKzSu8ZA+McY+cPuESCpGmqRrNBMMdkdvRt7YzjJTTaEM1z99iajRrBdkO0E2q63Eo0EcTzScxJrYBSDFzI+k8DGY5fW/JrO60ygQuuWbf7I+nWNyHaNCiAGOUszkYAGMEDOSOFjAiUiUyZzADtvuRba1+eNLxPZm7lbHZrs2To8qmByL60CtxPOUskFXZMfLxVEliw0zDObSD6npT8+DBl9pMv5mWva7jZIUTetS5YQBpm7buMcz37ceuQdIgiQ21GdXaHau36q0tdGV7ga7Rh9FtwVaEpKImJ4zsW07xEx9E/xtenWl7O9msx2TlWTweUdkKvm7JWGVYdFSLaTFPRyVXrwplpsM2Yx6uAcfZyLjrb/wBg+2SL9OrerlBotoS9JR9INCDGJ+9Mb8ZH6J9NSFCr0DRdquzUi0aNGlUZGlo8fn3Pl+fY/wDvI6ZfS0+Pz7ny/Psf/eR1GuuRduWh4O/qlr8Rvetd8aNfB191gKZ80L6lOZ3nvU98PH3Q4X8/X/ZN1tkV8P0z/XrU34ePugwv5+v+zbrbIr4fpn+vWj0Fyb/e8F4Hw89co/D8Su3WOs5xATMG5QFHpMGYjMb/AA9JmNZHSkd/2YSnPY1Vmx5KjbnLlZMHqxx379ajihxlQsrzW1Ethj+mgLNWWsr+7qAEBGkJXnEJop7SVo/9YTv6z/ChvtHx+n6u+uQdoa+2/XVttvM9QdvXafv/AMYf9ekf7J9rpb2V+2mPVZvPTi+0D6NrL1aDL9ptN9dS7TV1CsIedcfNCvkbG24rc536uxwhXfQqLWPr0M3Ys0Rv9oVTdtXaBuyp1cXib9RazrYla7S1styscbYFb5e1ahscVgpTZRC2Lj2hrzv8srf13jmO8bek7+v0TriPaGvJcYcqS3mNoYEzyEYIo+d8RCYmfvRrWP2C7/Mo5+Kr5O8uhHW7KJuWgsKrJuIv4vO5MXlYOm/lGUHyC7cGDBZdqM2dSBquhF+zHidzi+zp2fNvsZd1zHuTWtp81dZUVUyGSuXKi69ZBrxF6pSr0ikev0CrZGGWBEwJayiFtoDMpn4OVP8AIYz6/wCvXEs2mJ49VW/p6cx39d9vTl9badtLb3N97VAh7Vusur2Bw+StXJ9AMq+KZQTbqmHyIwKzBVmQEZP5p8i5chBTK3ihyYYgLOTeyhbB/aAWy+mSuB2+z9jJ9m1OC0oWiA2iYvH8OYN8pAj1I+U0SiFtDDtBXn4PVPw+DAnff4fTrrDtEiZ2hypnfaPlAneYgS9PX8EgL/THWv2t3hWov5CtXyFuwxOUUi7VKspy8TE9r8FicSms1lGVJbkMUzJw2sNu2svc8QXzIdVife9mSxp2qeRddbXpdsn5cTyBsaAVixNKo5ArqQmjfxzLa7qELZYUmsqDC4yW9OCUQtqq8ymZ2hq9/vcx39N9/Tf+IX80tdqLwHtxMS3iJ9swW8T6xPp9GtefbrvOKazG3czaxlxXaWnVyqEPZjFY/FwWYsU2VH1aZOMMxTFNplxw3fPu/e4+V+RhFz+C7PzcWbSyDcqVa/m6oZJpkY31OLF2gdTBik+TrKCRrsoIAkJspaIFwheiUQmw1Be9rBG+pyWqbBoPq+WjhHmVEs0Wq3yprVJPquesOsfThkrIvmb6O8LvNRjoV1uZsecjWrpEZc8lh1GwPUNSRgFwRkxzViP8vHlWHbHxTsWpk1sW2GwJcDuWEDWlsxslfKo62cSw/SCfFWuP+Eso576aXtGCmW9pXrDXpsJE5qD3e6JoIW3zGPhAy2EP6+UfDJixXlCkYErQpKzKFWUnjqz/AC9i06RKmwWMTq8u4fuzjGVATINCQBaFi1/mGhVRzmuDWxPFj5Jrn2DgYHzFhwLJiFVi0pnZ7vMWp0XK9QX5lpW3eenF+Qeb2+ZFVLLPtXRnytTqphoUn3ildcFKGTWAlYdTxE5giLd9ASLnKpRj2imZ4j7nLbcbZtwudh2rHSlm/oXppvGNVsNC3lVpcGGBz4Jt7MxxneOUbbSO2/KJ9Ntp9PX+NqlMNlBx68cp3XaqlkbWMWxCX5BnT6bopeYmot7A4V4Wp9ixsIuD5UwM9Sru/wC9OLOP83Z6VViybXfLCFdfzKfQyWZsn5EyjkG58oj0L1HVcdlL2UgahY/qWFvxy7JOcqBpuKxQu2yudRU8ZvWcsdMXbA/hXPZdaebnq6KjNNzHFrtkg78QpEyJspuQVd0/bq8quoC+TbOMOvVr2LEw3Y6wRTVafC3CBdUuHT6liBO7x1Q3YvL2Kjqh5R/l+uVoVBkX1ytSMUKJzMktkqUZHUu2Wprl0l8z4wIQHC4cxmoXXbYCYMVpY4eM8oOBXJxttPry29OM6WVzqYKBd9nfzVw1eTmRsWjYCU0waIsJhjLJJkzy6CVIFlhjTj5i9hhhmpbEyyHjg7RGbDXYxigiBZ01YtrwhRR7WLe3IpY4OPpJsRXLmDB6IQO8wHw7dkQ7RXLVi0UVSfiX5W5kIEmWFm5g9IYJhEdlQHBMZ1JNcLQpChQYGw5nh/DUphDyyj7fJarCEUsLNTI2ZsjYsANc7eVmmlkVUSfSsLKBDpnKw6g9Sjqm5qummABvW/s7XRVprU7wOe4QcAQBzRGak/cr3h28lk7ksH9/3rGJvHFcYWi1QSeMVdQPXtlIHClMKUM+ehLvbO+vV3Yd5eC3tmrIVkJtXL92i5i20qT0MtWjgEWbaKyJOtyTDEc/kT+b7RDVUZDsGteSoUatq42tkbWHOrakoqXApZApizWOK4JBdutWC23zSAV0vkB22NvVsun3Z1sunGkzehdzGMyOWsXqUKREVSbT8kq1XFILydVa8klSWMPzVcEj0bKCJhnHp60HjM5PSEl3xdOu19IkMLWwMiBjhHRGXSpj2b8QOCTnqA0WKyDHhaoWbNNZ8a8W30HqM7c9NDRDptKwpHUbXBcuZ0QrHryeEuwL4pGoCWptDNPTvAbSk7eMNUwpewLCQkJENg2/zh1TnddhYCk5rCc2xYr4xGQZxkhuYPNhNKatVDeUVV10WOsfT9k3aiDMWgMqO0u5jtlYw5VRv0zaCEfaIToSprZfWdbZkbs1YJXGiscchSUV1y/hB8QfunabatL6jdXYZI5h/mFW3TXUW1WuxLoAOeU9WaafyBT8Bj8vrEag+W7ApDIedMpY04E1I6nIQcFZtSbZI5yJymqTqym7qAAbZI0sYlM67G+J/CwUC1tutJRMj5jF30wYz/Bn1PKGsAn3TuZgyI+cAar/ALUd5eJZkgyA5HzEIgFIr1KFmwDTJFyklktRVibJpPIZNUCuz0vl2cg6qF9HRkHm2lZdlJ4EQrqxsDERMxG8RMQUjElEMmOrEFtuMN4hzj6/COXzdQfvUtku5hrQGJQuw6kxU/R5pE2FO2L2yUTi0gO3uAXM+rz14U984GYrrY7JWpnaJhagSyOfR2KVPMDUsPMr6knBceWoBm++E71yjW41VwuzDDSl43XC9NJxcrFmvPk6qzTYKa9WPM2rO6yYyl7xl4BOAGKdxbgmQU3jkKLPcS/L5VBFvO/VcyjbCOPxMpXVf6iPpt/HHkpvi+78rl3KlgsYdqwnpjWbVpIZvbyUshj0utKgjOrTq9PzNcJrxs1hNYxVewANdfVEWcaW0Tws2ZGZiJmCnH2I+O3tHbl83ULu9yNHFZSc1Ux9Gvzls3LgRI2AXZmAfJKKCSSwcQXDtc0kiuqwnjwPUGq2C4feSfRPFunbs37EoXY/uB7S3LE49oV6Skj0bC4ZjlV6QnAHAdKnlMlkIEELW5QLTjmv6kqKxUT8rqa98HcXc8s1+Fs08zVWCRv013B8x51KnG+wpXK0kHLma91Vem6m9XleIxb58Dv/ALQdzjVExlUottbN9Z1Mo+ZrBVylh1nIgFqtX86IjLglYuY5C0yAAoG/La9Ce7Ovjq/SSkSuZKxiqxH1IW04pkBrEPkwcytiaoMJIv6juguYYbdRGENmVMN5Ww1nSrU7rc02zj6Vh0jLXVlMMllyWcyEfKB6RsDP4SBKNx58S9Y1ro7bZiA7Q9op+ETkiH09ZaYpXEbDG884iIj+NEfxNbKeyXZ8KqRSuTmBkiIjEBJjGFLWtKFLUoTc5huKFKUEEZcFqH2DrG7xRj7f9oYneCHLt5x8BLkpbBjfbeBJMjM8Z5cvhO2q7SuNAnoKu+DBBvHTtB71lwzpzxiIjhy2md4guRRvxKPnwUfen4aufwsdoBPOpGC5TOKysekFPrF3DzvPp7Y/jFpbnWZ32iYjeRkY+j0jaII/8DEb+hM5yf39Xz4P2NPtAMjw6cYa7LZkdpiDuY0EcNttiMkNI+W/zPThrK6K9YatpwjEaPfvHinw0aNee5bFYkZTsICRlP3hGN516MvGF5chWWwSWwQYJiUEooEoMCiQKCCd4ICGeE8vbpY8r2zuJ8yildosq0T6QtsuJ2R6Rgg+jUrpFir51+v5NfPn1Gx0plzOcau2j2N85CrVuy1+4g1akG6nT4TwYrnVB5dafSCnzJu39PaA+zWOR3C1Amei60oN2SAA0J8t1h4OGg00nYxoGsmLgMe6rCoYfS6JcJACkUqjWTKlXYnyQIBVKVSpUkvZUiUgzkROhsBvxdLeZN5+4m8+Xu1J4LUBLuSxwrWCUzVJQLAH02HVscV7cYN6SE3x7d5CxLRKfUonWT7J3CBr6ZMe+UAlo2HyuSaFqXSMRKlqD5MlGHzN9uG+/wAdIuBzJUs0aNGlSKD99AxOHysTvt9rb2/HeZmPLM3iNvdvqhe8XAWrXaUPKyUTOMrrqMiFGmiS2ZeLV/osLdjhrWq9VAGII805HU6oJYItLlKItWxRREiwDAo+iYIZGYn9E6WvDW/KW6NlawsWFxYxbykAm3Zqrc0XLrtgRI3BbqHait/hATY4xE+6MdpmtqVqFKpybzquOZmcP7U63GDjzCfn9heDs5XBeMeqaN1Va9kAfam4rIZKzDnUV3nBYXarrccE1SKXwGvDCNHUF4AsvX3edkSx+QRVAbEdfFVrDFG9lgKDZbCjQh1wptSien1lIcZjW8kwQ4za4HIcp3hUfO9cMxZ4wMOIFNL7UhI12KWt59JyaxByl51GWazWM6Mkm58gvXhx3ak+uGRdALqldmo6DjZ1NcJX9rhyHFjIQyy22y2+TiOkL6gsBDOtBdNPWutZxSAOrG8fMdq703QJOR8d6tvumvA2qTgmSB9q69ZTExyWy4+Qn3REjuED7Z1MttxmPv7x66rruGySixtVAEPVp1kVbSNxlla0lYi9bxH3A2S9/v26gyBjG07lLe0PaRdRRudJQsJCJ4rY05lhwtYLWlbGOYxpgsErAzIjGBiZkY1pKTTTYA7MDHeqp+DlrvtdiKiMrnXLOHWrl2xkGJNTa7qle8/Zda0wyKZJjUGwUpV/BwHMgjp8JH2MXaSyFAkayhr8jKV1hUNhV9ZH5dNeMjKqB0/MiVq8l/K8a2/KqBmpx4jO2XUXZyw4s0JxssTZuWLaOdgKjpEqxKpzcCuMzYia53XV7C2cobUER963ZntbhMg5NkrQA9axS6peunhymvDYZtZORILKAIf4JUdR4zPEvlIGK6rjVw6PBej2VanVtG09aCJkEwdqYDtBnys4nIeeWFhF1DiYugYHJU7piFZCX9IBdbSp6FjcYjp9aPndTTN9wfZUaOJoVFpNCa6ZSlZlJHKFsZFd7ZIQOH2k8LLQMAlbGGMiBRx0tXcR3g4fJ2GeWvolFAByNslw6uqYpFWZtWl6a/UqVnwltoumkQ6VIQh3WaQNT2O7xkW2NQuT6iQUyRauVESHxJV7Icp2al4R7SVvwZBrYCWAxQWjQQZWW0rUbUqBlMYNAxiOhTTRo0a7KgRpafH59z5fn2P/ALyOmW0tPj9+58vz/Hf3mNRrrkXblf8AB79UtfiN71ruDX3XwNfdefs9EL6mOZ3nvU88PH3QYX8/X/Zt1tmV8P0z/XrUz4d/ugwv5+v+ybrbMv4fpn+vWk0Fyb/e8F4Jw89co/D/AOxXZqs4y2PizfXYuKBkWQk1HfhfHapQIOSJbHT9nTPbh9fn/hY2szUQsdvREiCamQ3GZHcabDGdp+ImESJCX5J1pCvN1ifO4mWA2byzYsWCBzkymQFvHnt++NvdwD7230fTrLx2qx223nkbTH+X+v8Ar6/LXz/yhhP/AKtkI/lou/2DojvDj6KeQn70+VKN/wAuxTEx+kdR9f7hOhY3tD2tqils1rddruMyCzyXESKdtok/McgH/N1HJ7fwIrGPLN3WEs45sYMG9biSve73CCffz6hbn7f4+pqXeGP01Mh/Q2T/APLE6P8AyiB/kuQ/oLv+7rs3EJQFDMh24VBDwdV49NZzvm+JC2ZPrKKOtsQx7OJ7/h+kaxeK7eqJww6zUUuTKCL7eyXEZ3iPSLxblPoMfJfzNWNHeCP+S34/lovn+odd49vw/wAmvx/LRf8A9zSkdKQ4KtKnbT5aJ81XlW0RITl4kQnbeeT4vyZx/G8ny/Jqdq7Q4yJgpyK5/JOSmR/t9e9nb8P8nvf0F8//AEa6y7wB/wAnvR/+AsT/AFBpDgJSwur9m2LH0+2Nf9ORiZ9f85+vNisrVZfrwiwLiilc3ELU2IgYdj4mSHqGPLfb3z6/O/DnXuHvBH/J78/yULEf1hrGYi4hVizYBWQ52JXzEqtjpx0+W0gEhw5FzLmcfH2fe1zY7WTSFWHiXyiYyeFW5gqWdbKwRME4DfnjRGJbC5SM7z8GMXv9HPVBZrLJM5GsYsgIXzkYnhs5UMGIOI4HPAg5BBatrxBNyFzJ1hq43NNq16kshtN0UFts2HitirQPQwX9BKUuDmshiSnjznVMYPuqy67N2CxWUOCduBFAu9oqrJGPMtfVB3omPcqsAfPKPva4EnWIXo3BrSDKMUqrgBGsJIAmdpxRDJmdymZmZjf6fSPh6/5sa673a5FZiIc9SPMEYgTmCkSlcDMiJskQ3HqD6Ee58vbvqST3cZP6cVko+nboqmf5N4eX/wA2sTle7XKkymYYrtCEix4sOjcDHWABgpiJhwlPyc8C5Qcx+TnoOC2l9pigyiS2sydjWnWn5wI6imL8PKnWKVsUnC1zkLAmxlc+fAq1Ig6AWRECghn5xrJfp809Ul287rsZap01Ny442lQsW7WCyNhC34O6u6TA6TkNtyi3dq2Q8xUI21uqLUsrKcPXBNq91ePvVMXka01smuwysba7bDHX2MsspmPM3SpME3qiAyuEIHfj/LqzuzOZrqSALp3kguBWlQ0HohSViIpSILjaFqCICInUpokBeJ1qhfUe/nJPWZ8VW/d32GGXY2VuyNZScceOxM2kpKLFOuCpc66L0TYh18oXZTSI0gtFFTIVVPr19XgOOZCLIXbCmKMDiSFXl4VXlfFkMKWmM8ffPU2XER9X01BO33aCWRXNFXJk2pepPEAptDqLhsJswBGIL2ipadJcz+UFUiO5asaM6ExMEp/ruMjKGFG28xv7QIfdp6hPWuTwVsCrZyNtRzaq4/EEJEM8YmoN2syrYk5WwOo2jXO2tHEiP5vs56vyyzFSblsYl2FgzvJrVcPAYg3kua/UrZiqqKT7F+wxv72B7rRW2MTAH8NZnth3a1SvJWnEErH1q77cBXoEtbsrkGSqX7LWswsY+otvSeEiUTd9hAaR4V6/ussSd5yKV1dxlfIxXtFj2CwHOv0SrEo4OGradYXeaYtifNhsLuoSPdG1RRbDVdXF024fx4wy8FEE9mrhdqyvWUWOgmteOlZUuHVoitjuVJZuWUpSxTrGVDosMH8uhyXxaBRZzEeUr0hkZIqXY1jYCY2WbFjjR95fU95fNGPh6/RrC+ITsHbm0eSxmPyDbF3HZTG3RTShZGBQV7HyyI4j/Dl5NjgnqtGNmEccNePOdn8xZKoE43ILBWKydAhFBSBScY5VYGTE+iYgbBjtz5cd/qaqqoLXEBhdtmVaCsK0VC8N2Ru8M1Hi7OKCgAwe5P7LF5aTOSA7WP8AL3lgcwM9P5Z4mJ/xJ+GsDc7CVrl7tExq7VOzGRtOQddghYroyOH8+RnKjGT6xgLZWx71QRceO3t1Kcf3d3pHFgeMy08MZlKz96srFLbeJGkvaBZ9LOQfTEQfL6m+uvu47K5VZmdnEXlC3CYlJcaZzMW14YKNlcQs5P5E+a/f+TVrolzadZzn5apHaEy+r03VPNeD/n+l5Knd9kkNIq2UBpw27IRcp12kM0GUsiphGlUbsGyhXCZDiO8l9HHXjt4fKx1pHLkkTYMGNevSXDBp4+naRK5bRa9LHwmtzPnPB6zkPaUategm5DXsnFZH3RluP7wYMTL1ohIxsyf4ThIb6jj+zuRHzBhir7IIJmFMpnE+3E00gCj3359eHBJz8f8AQ1qvxVHmVZrt+4UMzvc0iysxuWbl0a02ePnD82A9FsCuV1nnFTc0vfyOKvIJBe2s/U7PJpW6NZK+EDlrVdRSXIiWnE5oCGPaPPiDksM+AfJe76NtTTLYi3u/hj8jucW4GftewhOHAghmRk422OGDryh2YttytUzxuSGukrh+ZKoc8GMehYmKoKTiWVXWll+EuA/xfq2pc0iCVyqvaQmRy0QV/Gj67hN216RvHFSAqlE/6dkNtJt44u++2/I2cNSstWilVQdldeSBp3GENsD5AaGOiqEUtkIdHuuAZ8wEw02tbtFJZIWTWvCpFBoLMqToFjLdhbHBExBTzWFRMRyjb3/O0g/fn3J52zkc7ZRjss2LGRa2kQVB9FsipXliDOyJgRJrb7zw9oL9gfN1lbqo4tmntTLUMdUGvlBPzxXj7MeJrL0qq6LGxZqLYAVnFfclq1BLAVXi/Sbj3OSkDjp9fzUXNuHKlIdXWJ7a9897I2EtuNVAV6sV0V1VpWlHOdrUwttq66zZcIADEWbU8gMyBvL1PG9pfDJ2hfCZHCXSFcMOUTTQsBYyOG0Q29PsUG0piJ+TP3euu2PDh2i8ttOGysWACB5CuvElITHEombZx1ziOEu4/D6I1VTXAh3crM0rd2TtXt7k+/gm7fFdwsKNnWZjrBUSbIjG6oQizWiJDaDhNW0qt1OA7kg+XKRMjR/tFVj9kfaKxG8k7JZAeYxvwim9CY+O3y0m2eAfXEHe6Onpu/BlhLNCpfC3UyFWG31OUuzWnkQxQqVzMBQJiAyadp3PeSAj4wJ+q34zugzjCsWHYfKLfZY5zDZXrkUm+9kLR+qLjSguL1xHs2jiHrrlpE1HW4DRJjLap/B91KjevNRwAjAkwHc2OMfeCjjvj8J9YGfT5xz9M7fh/fj6mry8IHBWdiJLYnYm2le31jr3KjGQf4Z8Dghb6cvlNQdHdPlpEp+1GRGQiICCTEkc/SUF1PYRfT9/U68P3ZHK1Mzj3sxt9SSDIJsuJMAta3rFgya2N63vfWRA7Qzb8HjuQUGi6dVtw01GFvatdp26tatjUYKrNbAgNdrz2YR2/JPOJai/efZ4Y69MfOmo8Q3+Ema5WuJ/lMh1kF9oR2+ZY3+O3lnfT67fweon3j5/qVxWNa4wWWKoNFdV0nCuuEsONgjaAgd53+j6NeiFeOMxiV6clcZGUq1hLgiaFlsgO0czU6sgIZMwUyAhYkljH1+W+k27yu9jI28lemLmQqITafi01aVskytaLEV2GC68E52Tdxm0EsWfRVxFfP5UtNUztAX22FpVL8qnGyuHDSd0gPzMsNZRMQfUOFrmNhn6PXUU7edyWEyForj6eWFztvM+X8/XCzELlcC0FkMBtE780dE5mPccxvExKzJ2lX2iru2tKrn3NLXBbA6CpJ3Kdpn5Ts6hjXNCw5FqsVlLAJ8El9inFlLQ5qN0ivrLYPMDOOXw3197qWtNlC405M7+Ax/V9OZk6qUsNjC4hHz8mXrEevv9ocNS3D5+uoFqVVtKWsQWtY0XCtQjHEYEQVMBERO35I1B+73KNFeIGad5XSp2az+VY46E8ahLIoMJkuZK9u3w2nl831kDABVD4cXOAgEyBzAq7BnX3UfDtaExEym1G8RO3lW7xvG+0/J/OHXYPaof8Ta/ozY/rCNPlcV39oKjDQwFNOuZDIi9QrM0zPpDRF4mkuHzuJgcbfRpWE4+wiwxAiL71euYTa5TVo4x14YI2KJi7GTsZN6WTbNjBb5fznT58WGGmdZ2lCdvkrM+sRMeWZ9M7evs+rvy0tzIyAhkAr0MhVsWstftJbFObMAgBklmZPOQL7YMT7E7/vbzXzRFeo1S3p1Hte8Tq5TlPOpds6CWnI5qBdr+7HIPKN8tK5UFlVeUVgTKF26bqtiRbCCe6d3HaTL5Fy7TXM6kicDqW4TDsri2aNm71XQYsm0U5Fl44WNdRXfMyzzEioY+Y1Qh8zjx1InW7JxH/J1+D4jJT5FsDvO+8REn9XUT7VjlxICpVMkAJSTXJjHDIWym3XUSDJoG/qTVsG9B1zHpeRPf1Zx1IDQNaAIdmPorFuqBGHYmF7joX9rwlSVI3dahi0cukLgtOU6AhhGQRBrkYT81UfJr9gBrDWZKznbEH7wxdKpKF7fJA3IzcG3Zb67NcNeqtKh+ckGP9Ji1rHd2vatlaclLaOQBTbwWq0RQfJSNulXfYiVDBbSq35gWe755fT8dVD389jrF246zRrdoliVaHmuo27SC1fkRQMcIuVQBwVqdZfP5NfEz5Fu02hzq5KAyk11UhxgRMnEKzKGKi83tLRtRDEusoTYBi5mJGxgMaDFQURA8OUrbxUfOSE/jpf7PhOXUXSdlmZLIvO/UoJHs2ttFSqjkjXeV4B6rzC4uJHIPc8Oaz4wa+Hrd3YTExRvXJRjsmmhYq4019Su15zZCLcWgOTsusScLKpu1ns3ExE2TvqQdss5daCvtcVyg2L1VjzbiXWIsUgZEOpjyg/L9VczHWjgS/nDIfHXCTzdmKeSHN6ejDLLnVaN8L7qtXtCpNrzUXMFexGGrs2A0BYQ+TRbPcFWhB8Iq0ndCCr1FAkuXrOp5i+2iGI7MZLqdCLDEVkCZAM2AyFRoTUiPw1nXrWZ6e4GVf2SQ+7UqyHayDFoDUygTxcEEum8CnfqQuVs+bE/Kchkx9h+ul38K/c0eNtVLNvE2wZ9rmA970BYYFpZUiAhnk1wE2Ssn8iMbT6F8zQ6q4EDnUhrGvovqPeA4RE4l2wjPDtTvctctQ7H94UMeKRpZAILl8syrKkDMfQRGUTuX0bAWpeG+0b/p1NVMVy0tHj++58/z/Hf3mNMvpaPH99z5/n+O/vMajXXIu3K+4Pfqlr8Rnetd4a+6+Br7rz9nohfUxzO896nnh3+6DC/n6/7Jutsqvh+mf69amvDt90OF/P1/2TdbZVfD9M/160mguTf73gvBOHnrlH4f/Yrt0aNGtKvN0a+ba+6NCRGjRo0IRo0aNCVGjRo0IRo0aNCEaNGjQhGjRo0IRo0aNCEaNGjQhGiJ0aNCRGvozr5o0IX2dEa+aNCSFynRGuO+jfQiF9jRM6+aNCWEb6NGjQhGjRo0JUaNGjQklGjRo0JJRo0aNCRGjRo0IRo0aNCEaNGjQhGjRo0JyInRGjRoQjX3fXzRoQiZ0aNGhCNGjRoSo0aNGhCNLR4/vufP8/x395jTL6Wjx/fc+f5/jv7zGo11yLtyvuD36pa/Eb3rXeGvuvga+68/Z6IX1KczvPep54dfuhwv5+v+ybrbKr4fpn+vWprw6/dDhfz9f9k3W2VXw/TP9etJoLk3+94LwPh565R+H4lduuOuWtbve/Sx7e2HamMni+02V6aMHNH9jsXnMolNEib1Qp2krST2ihqPMBwIqzJH5reekK84hbHzL8m/5NcEP5RE7TH8u3p/qKdapO+HvAya6OFpZPMBVznZrBqzsw+2us61l33684/HOF0QNh9XFKdDg98tYyJLnBsnVs96/azHZrP4q0zHZbM4292PG+ujiLDl2FtdkFr61haL2PWXTS1lc/lzMTjj0vkwkG6yRP8AqsRO/pMem+0/Hb4fD530a7+XrrVugRu0MRXCrlMjTntjmKlbBvyB08rUprxDoLF3LLrKiS+u8G2+DL/8EwV9WeewZ7vn7rW18bjqdTGZTss7JdrsBV8zYy/22c2WVbyAeJIyVriFb2bpYxayiA2j2ew1kuHOtlBF+SZ/L6a+G2I+/wDHb0iZ+M7aRHu27Tr7VZurUyxH1R7LZCpm8bXt2KspyuOztKu1h+TtKJIPIWMrceJElhiRHHtGssLiaGGw/ajLrbZnJUe02Z7P4d9rLXASuLRropIodZKq4qNazaslZcs/4JpkXJcEtZSCDktn3LXLWtTJd4QR2O7VYWjk5u/aPLY8cZfrW/MNfjMjlqVmmXnFOLzL1uO3SmV8R+RBXHflGtkthm0fpiPjEfGdvp0spV8Jnu2gZn78/RH+v/ZrsIoiN59IjSGto1e0BdqctnE5bIHhc2/D4zFYZtoLVJNIlQmxSqVG1zfeuvdFpti3LAWKfQkprmGs13B9sjfley8xkcjdr/aXtJUY/ILik9rcdkaSoi3TE5Dr1APoS84k28JMik+rpJSgSnYgvyTr4B77+kx+Wfp0ibsw37fMUTm8C7xqq4AmHMSouyTTlUTy/gep0i6PzAnp+3VedguyML7v0dqqd/K185Ur2742yyV1yrE1cg9JV7NGxZbUNFlQiBQCAmfYXKff1DWTVsy1x5fRt6ff+jWvfxI+IwE5o755aaZ9lgwJHiPMgj7ZMyTibnlpqmUMuOrYttRa+QENcjfvscclyPvC7yLuN7W5LNV3tdhsbRwC8nVE2tROLyxWhZlqy19RUnjWVEvKVK3ZWK38oAgWiUsJ5uWuvr/GNp+G++3pMa1/d39487ep4SzdsHiLOT7ZZBpIuugMyqrmCTVpLspbDPJJW/zJLGyXVVKfqeuvb4iO6qMHXpUqN7K28fd7UYjbCpyPRu1V2a2WByKmQa8LZJuuWklItWIDnVLg6Za4oJRCfrXQb/WI9fXfaYiZj0+/O3Ef06oXwy9iF1GW+nj+0mP2XXV/y9lBvrfsbpmaq1ZXJLWYTHvLZW/VDjvEnpdO9/GWqV3L288jtKJlfa7Edp8NZZZx+JxgkoqirOLr3EJQil0/3x5qnYmwyWsMz576WULYVzjbXR5n1mNp9IiZmPd8d/TaPd/2dLb4d+0dp2Q7ZiyxYsgnIVPKbsIxgDxFZkHWgSkVC/kLeCeI++NtUB4aXWu0KOz+HyOQulja/ZacvZXWvPr2spZblr2O8vdsodFp9KqhI7IRK56xr6jDjpBpJQtizC/Jv67em3+3X0S/+2kIR2/NdQcLjM1m4Xe7U43DHORrOqZvB0b1N+QZXrWL4zaM2Lr9OvZtJI0A2eEHK1Hr1d5lKn2fsXqOLy+cqWLGFzoTUvfbC5RtW6uFm+i1Wyts5CrYqwRvdNJrJKS4EKOAaJRCfDRGkW8NnZtjBxdkafbQLTqMPTfyOYi3geu7HtNb2pXmbLZrOmY6QHVORI0QcR6zqP8AY57qN3ELzJ9qsJnrN1NW9lbVk8j2fzNi0B86CTRe8lV82veaIoqVDx5isI5+WLRKFsH3/wDtrgB7/wDX9G3w9Pp0m/YjuKFfauzQjLdoirY7HYjKpBucuOh1lt/IQ+LHJ5ASHRXSJ1yEepAb/hc6u7k8U3J/LXF9vbRvzWQTNzH5jhhYAMoxYyKjyqXpqVxjps/e/wBRvHnI7ASiFsYFu/r9Ex9O8T6/D0mNdukV7P8Adq7IVO1OVLO5qpbx+e7S+SJOXs+Rrjj3MmqLKLzKrKkl89XDp9PcPaO0C1Hh+7bOyWDw+QswMWLuNpWn8B4DLX1wYcgO88QIikhj72lBQrD0aNGlQjRo0aE0o0aNGhIjRo0aEI0aNGhCNGjRoQjRo0aEI0aNGhCNYbtP2jXUrvtOkoVWQ2w2REjmFpAmHIiMTJlABPsj1nWZ1FO87suV7HX6QFAHbpWqwMKSiAKwhiYLkGxxtz33AuX3tCF8wPeNWsbQPVUUsJPTtJOm3qrWtxAKbYpYzilgt6iQavgJ+/2xv763bOqUbxZrzHSl8zD1lEIiZGX7wX8DBwS+r83kPx1T/abuLMLFHyEIRSr2F2H+YcyLJWfNJsebZaYm5ayBnw8vNd1ylymPex4dIF8MR3GPUawjyzURRprGWtbBIfXqopHVVSFUp8pZSmXG07B9BgzwrEUS7TJKfgrcHt7T5kEvVBAtTZ3cERK3FZFBQUnxmGlUscfd/gy+8W2WdlQHbkQjM7bQRDEzyKAHb1+sZCEflLVE9uO5S1KWDWmn1YsG+u97HLmnvbzbltXxr2VMOqrJgI1nLNVgQsJLoQxTlSfvK7uLd6xRYE1YBTKM3WMlqzn7X5XH5QPLICGxPUKoweLnx0+Yfwvv0slCn6O2VUyAV2K5kwZNUC9cyxYzMGxcCckYjsfugdvYX3tY5febSma0ddUlcZK6oA9LCfMdWTlULcfUFQpabCDlwED/AAD2obH9y9lQ4vFAhLqy8Jj6T8mHLZLKuLzFMzqMnqju/rpHaUo6arTWCbmsGFTHBd2F6LdSy0aCiNgtuD5i5aJDlHkHQGNK2lZs6n2xabLH73gZDp+XasmAKSUqtGv2/pk16psLBla2NFgsKF/vplOvfFIScx1DmrZW3YN/Tf09k69GU7XoSwFMYAubBdFJNWLnkA8yFCiOCaUR8ePwnVJ9re5G4+7esrfXhOQfZExMiW2rXvYXEUHWFSCGCzJ0XYfnX3aASq44ScnohDMn3ndmbT8tU6KCOtYmp5tzYKE1144sgyYgBn1dcPJAnpHw6wDP8IPPisoVmWO8Woqv5iy5VUOkLji05SJSMwmdnyxggoxmzXAtz9CcqN/eGpMpm8RO3x9fo0uuP8Obq6YJTKjG1qeLTXDlYx4LsUwp18nwt1SJ1NF2vi8YsBrK4p8u3kpo2Hwy8OxXZ/ylOpV9n72rIR8kBrX8ioV/Jg11lgB7faDLLyGPnNbPulQmlZ/S0eP77nz/AD/Hf3mNMvpaPH99z5/n+O/vMaj3XIu3K/4Pfqlr8Rvetd4a+6+Br7rz9nohfUpzO896nfh0n/zhwv5+v+ybrbMr4fpn+vWpjw6fdDhfz9f9k3W2dPw/TP8AXrSaC5N/veC8D4eeuUfh+JXbqp63Z3E47KZPJeaUm9kopDd69sIEV0UytAgo2BCR6ZkZfDlz5eurWLSq9/Xg5LJ3LGQRdWDnwvevZr9RHUUlSBIGrMHL3FQ7+jP5NWt6+qynNESZHUsNY0rerV1bmpxbeeCcebBTPA9n+zarOTt+co2bGVsBYttsXKjz+TrDVUlfKfYhSh2WuZ9vM/dttGsH3Rd0vZnCOruo3g51aFjGI6uTQwQp2r32xYoYkomZizvwkp9ozx0inbfsUynYbUsLCHoOQMRjeJ9ImDEpiNwP6NYipiQ2KSX7RGSmY9hbDHL0KIPj8PncC1n3ace0kcXiHasbd+7BemN4GUajA9t07VOM6jYiM/SyT/ZruE7OW+tIZFqDZmH52W0swNZy8hZqBTa1TUELFjKgn2b/ABNn1T4689HuHwsmkX53JZDy+SxuUrBkM/56EW8WL+hKoacnAsJxHYX/AIWRX/i/SuuyvgCJyVOsXkKc1YsJM40GCjqSTJVEnb+IcoWcwAcuAfg668/9j7eCiKrcq2DjnMJbT8tBRHqKxILDwgZ+EbhA/kjVuy5ui3WFIRvWWGjtEk6v48zljSgTv5kxPZbufw685Zz1U+WTt1fKWSXZhi2Kia8jyTzmIbEVl+8Nvr7/AD9dFLwoYgWrZK3tEM3d7Qyh7etXPJ3lEo2sUwJgoRzlleP8Czc999a7K9YFyUdNaTGZEoABAltApBy5MYgilZwQavjw89/NulcrV32Gvp2XJrmtxm7owfyS3IMyLy8QyV9St83hzbqFT0yDVFJ7M8iMu2FPv+CdWjR46nV18JjV1SR0RPbCY7vD8HeEybLbHparz9Gvj7YU2RVU5NS6u+hhrUAwVlblAEP+f0fk49us93a9woYyw2wOWz16Wq6PSyeVferriTg5NSWTEA304QyeUiPp+Fqf9ou0SqqHWHlxUlZGwp+gRj+ufo/2a1/d7HiSyORYwRsNp1RKYCtVZI8oiPYT7AqU8yKfdC1HAfhQerG+vmWrZdiTkPqsxozRVbSBPFwAMyct2GZ+5TG943cdhIyFjJHl7mGsXICMiNLKjj1ZAQHpK80JcjAxWPCHVDqt+Pym86gl/ut7FBVx9ernIxpYqxdfirdHMAu3RjINl1tCjbL1mh0+yVvS75P27+9nNee7buss5O2NeqIA5kQ1lg1xMpWJcTsGyR5t2MgAqrD4N3022F8E1MR/fN284/XfokNZf5NhKHu9P41g41BoX93XxpUgB0nPd4rQ3mhtHWBFO6uTrRMMbPX4LzdjOxPZJaaQIy6mTTyp5uXty62WbuVOuyqy5dYw+TmGtk7wIrX6BAjA7hrH93nhY7NJGuhWVu3qNVoWEYp+c8xjQaux5hZlTUQLbAWJ6kLd1FkfzgPXp7UeCWuUF5O89R7e0ba1Wwmdvhy4gwd/v7zw+rGlN7Xdizp2nU7SwFqeMEE/KQUTEELlGUb8Jj4F6TptxpOvb8pTHyJzT7HQdhpAOFrdOkY6rmAYb5nq+YT7VvC9hRRkEMqxZ+2jrrrlizAttGzJB07MqfIQaIIPasUdMFfVGNezu98OWPxwvBZWXhaxmOxDQtMholTxabFesOwrD3Gq0wWzPofx4h790u7pc7aHIUBGzaEGX6CzGLDemaitpAglfU4cJHeJHjrZRqdo+9/FtcdWI+aoNLaIqaNe1r3h2tJEThBjbtS71PBDh00qFSs3I0mYmzbtYy/Vt8LtE7zOVpamGDEmh4/JtS9DQYHKCH3a7Mr4Msc5IC23kjuRlE5h2WKwP20sXKybCKvKxCYWmvVCyyK9SuhVavHPpqDqt5MJo1bQqFVb3T9yJYpjTnNZzKdVYLheWuLtLTwmZ5qhddEw099jMyPlqI5Twb0DK+Cr+WqY/LON+UxFW4K8fcJxCVqPchl2qF0h42Yo3K3WWZqn2Fx0wGjRCRUN2m8IlF1l76dzJ4cbiU1r9XE2ArVbiK6QrJA1MQ4axrrrCuLaM1WQncYL6+u/tL4S8ewMbNB93DWMTX8lRt4tsA4aG470nRZC0u0qeAlM2VtOXR1OXI2c7y0aISqgrngwxDq12vYPIWCvtq2nW33WHdC/TUSUZBFiNuhaFfAfkgFWwCPT4+3XR+08rNlTb2WzOStJr3qarVu0vkqpkKR0bKVpRXTV5GBA+XsrtcT0rI2MEOGmE0aISSqG7C+FTyPllx2h7RWalUQWNC3ZpMqNQtcqGs0QximHX6U8SDqbzsHu9mvP2V8H9etFaseTytvEUbKrdHDWXKOpXbXODqATxQN+zWpnAmmpZuNRBLURLZKg0wOjRCJUIx/depWWtZgWN69ulTosVMh0eFNtlq2REALOqU2mBMyzjx29uqowXg5imJhS7S9pKSWWH2pr17NHoA2y2X2JWLsW5ggbCMuJMPjzn47nyY7RohKl3v8AgxptO8JZXOjQyV63fvYlN8EY+wd6Zm2gpTWXcCq+ZOWoXdAWdRnL5+r5xeKWhS0pAFJSsFqWEQILWsYAAWMbQAAERERHwjXv1Ge3nbVGOqWbtguCaq5Yc7wMltHsWMlMRJMORWEb+4zgfv6QkNSQTgFIuXr8J+n1+jWPs9okgXA3KAvwSaAlt9/jJRO2k5X3o9osw+4qnZ6BhQK22jVlSkVET1YTSZlG1mHOSvWFWKR3U2Kyao1zsV1t4Ew4DnO43OSPu7PcymCnqeZxLDZLY4sgHOtm5u8GfqwOTfrcCPXE1uYKwFpjDntB6di2KjM/e2/641z1re8OHf8A2KFyvJWnsxll0VrNazy2qGTSTFlcm5xoem100OooAEtW7q8QNR9RxvEL31jgcf5whA2GzoKBrejXhxKN8k+wUSQpBaWz8ms2HOwCMTPtUVgRK53Fq6hU4s49Iy7VYfaHtGiqo32XKroXG5ueYrWEfTJGcwMR/LOqDLx+dnYsxW61meREMWIryVfjtyF+4lLvLsj5tiE9L4ciDeNRPtz3QnnGY2xlrd+o6wINq11zQGjjXsquOK5MesX3bBgAy5NYiOWLawekjp9Pzh4L8Ulqq7LOVsHYnks0sr1kVTWuObJoVYqqAJiErMxolw6iY6i+rrlr1C/CI7VMt6FoAePeSdgaPEptcHnFWUrehgNS0YYtiyggMCjeCGY+MTrJ6RDwEeKqXrq4C0qesA3pq3BcslvXXc8oRFfl5qGLWs9tlmEio5go9mnv1MVZWp8W8t+4Ro0aNC4I0aNGhCNGjRoQjRo0aEI0aNGhCpXvnxAUd8qpthNh9vGVLDga1kLpvv0FWOhVnrKhpKWIcxrk33Hx2k94q693g9oJvhWiL6VyrGhdKVCawLz3ZUbT6pFTQNdDKF3PlLDsPbvTutkKxY7oqa23VE4GDCDjmJRvEFAmE9QS9fpAwiYL8Kf9S09oe+nJDeyNRJBvOcoVMe2OJwFRdeu/LLKtPGSJEKs8rRn6nlK3zBpr0w4LoF6sr2kzhVrhpi35tL8i2a61EEQSq2bLH1QdYUYGpwqxJl0BKAYYe942p1zWy2m0qvEXiWzLZeLK2nYaLUXb1kuClBX6QKTUOu0H2baK1cXqWsbFh3yeYr+IlvWsrOlJgpzK1c0WGMXZdPM6y1ObTqQbHiq2g/LHcQFusust7285mWdrO9dibFxIVYaqilRuYdiVlLrCXlXSKArOk0nKgBjt919bl0jFJ6RCrnvF7VXqGMw0da3TaGPRJLSjqk7Ig3DV01H7qfMAybNtZhPr8T5fI66s12hz7IHoKeyxXdflc2qwgvrhV7XDVEZ4QDYBysMHUT6MWxJ/4Utc8p31FcJgtxdPq0RcQPsOh01b8XM/jBbSBtCJMBZgjd1zNBmi17IPpdNnsZ4hWqtIotWJtYOKJtik5zVDYflcJTt12eaxfRSXLNAzy6nOf5Udy+1Umg9CVYiknIJuAVRuUZWbmq+zbcXDm1Vmr2eq2YOtNMYEBBOQd5pzaqlGDOmFvzTvK+/sGnKRNML7MvHHykiwFsN522owLrEW2r5oKiNl14GjK0pABuAAr8qktTfsJ3q2r+OdaOgrreSXbRVRaZZCwNhTDSlhuoUWCyePAw8uYzz9pOnaIieP8SxmUR5JUSNZdi0cssK2Y5uWVUQpNnHVrm4Pw9zzkXUVXU59oKub89CRd/c1XPIYqamdXYssvQubaH1LAJWxdDHNu1hZLrMSpN47A/wiQix5msoNq253+tcDERERAxERERG0REekRERqhrvfxeRsk8ZXljFuKt5S7euRsi3i6ZQ+IwUWQ/8ASij51a14R6ZyyRXDmLuXsnnptVa1mVmmbCEvlLNuoqWrFkrPb05hz4Tt9OnBNKzWlo8f33Pn+f47+8xpl9LR4/vufP8AP8d/eY1wuuRduV9we/VLX4jO9a7w1918DX3Xn7PRC+pjmd571OvDn90OF/Pw/sm62zp+H6Z/r1qY8Of3Q4X8/X/ZN1tnT8P0z/XrSaC5N/veC8D4d+uUfh+JXbriUfe1y18nWlXmq1zeNZExn3TERMzVpz97aOLY/wBL4apZMTINgvbuBxG3rvuM6u/xsbxn2fGN6tP4T+R2qO68cT3n1kSgd9/Sdvvz83XnF2AytVqD0tbP/OHYvpLQpnRtE7eKw7Ftu7Pp2Qr1/wAEr6PvLGP+vWULUd7IdpK9isl1dq2pYoCBi53Ax4xtMT978n0a83bHvHo0Vky3ZWqIjeBkt2Ht67Asd2Mn+KI63IuKOrOuIjnC+dnU3uqlgaS4mIjGZwEc611d91KPtzlI+G2QsbRAxEREikttv5ZLUax7ZBipH1IGq4z8NiFoTE/o216u0/aGLtq1cjf99232IGeW4Cwh6avX5xAEbSUems93XdnPPZKlVVAmR2FMbAyMyNZZ83MmCmNwgVmPL8P2fP8Abrztr9etrMxOvhzxK+jORsmvqYatLGdmGM9KcPxk5QlYRwwUjFixWrzEekyJGW8b/wAfiOkBA+UzG23KYmfp24aeDx1siMZWHeYk74zAzvMSUVbUj98fQ+nMfen10kwtCS9u3xmd4jb2/H7w6sdPEOuQw7GzHTnKzPA1gbYDD0qjyenVaI6im+8DWLGPtmzjHKPKLFn08eLjII+8PLbTYdL+T+bpYPA5PyGTn6JdXmP+hnTS62Gj/V2LzPhFjpKtvG3/AIheUkfH6fpiPh66S/xk9lW+fRZFRSLKcDJQEzEtSyfQpGJITIG+g/gr06YWIn7/AOmJj/Zrv11u7VtzTLHYTt5sepQtGaQdYV+PYJIBEZLW53SYhpZDGwKmltfqG2ZGRFYqtKZM7lEch2j11sj0a6ZbH/Vvv9Hp+XUXR9iLRrmhxdPPAjqUzS+l3aSe1zmhuqDkZ2ru0a6wOJiJ/Trnvq1JhZ8GV90a6+tH349Z2j+WPo1j3doq4OCuTkjYaJEtEsGHMEd5IgVM8zGNi3IR0SlWU0ahI97mN+WkriViiEkw3TKVQD2mlLRc2BUxTXAaVtWZgTfk9+fpqbaVBBCNGjRoTEaNGjQhGjRo0JQjSZePfPEuxg6sbdJhXb7IiJmZsUSqBSI5EhI1rZecwFzO0WOg3/AcTc3SS+PunA38K+Zn5Stk6sRJbbtUVG+pYe6OLHeVKOftiBjkRQMa4VvRwVhYmK7T95Lu7s+7iwfZzGWU1islYyLs0xcv5dSo6nfqYyZiw1SnKGgOLGxVNoA4ZbuQ78ptDtJ2dvWixdeZeUdGiT7NTgpYNBgjeY6QsCawchO9QlpasXKAgL8Cme5nvFf9qsPCnmuqFAsDbBleLVKrawlLIlbsNSwqpC27Xp0vL8XeXkTsCQ9QoKcrY7OkE18RREKU5OKLMhWxSV03Kx9ipel91jmXWWAoY41Vq8nXNKetwqhElZlBMDRq4hJUJJJdnJ71QnarDrbnciFaJ2t9pjSEEJLk3Fm6FW3PEeUdOLIWph+/v6PzR30zvjw7nL+brUa+O5PsIcbfJnKYSUGagi64nvXuFWOooFgJlPmCL/Beq4eGDMqv5Ki5UwywdrIZyzWGV9WWQRWhqbuJcLkTyFSWCZz8rUfYFXOx1jb/ALwcdk7ZpG4NFVYokWBUt2U2RF0xFqrNgqrK9pMiHUPqoqQzo+vRH5SGsZrTIOKl3b5czHJoWd7yu7RFjjftPYvoJUNyEVfMcwpWxvbVgap7q5DeQLJcgCNiwV9dFN9eM4fG1rDyzS7yzoLuTeh1is2rKmHWVUYQ37T0LbS6P+KpyLBXXV1h6Mc8TbpJyx1spXSeRIWox95tWwVVq0rZDwya1ospiwi5i7fm+klj3Nrvx5JW6Q46jFHspYcwroVL1UoTlOrl845ghjZC9D6to62StE3YseJK6iKIJrj1VddapeISNQTMKE10be5eLu08PlHD5+pksS1shkVE4ajFidZFO6IOumqWKm6qZOvXctj5rLrcIrbNK7xF1tVp3VYQZVNkRmEtCuiiBSUHGOpCUUSYU/KGbyJlv5T3Ct4AYAQNgrL10XGo7WMlGjRo0KOjRriRbaq/vh72wxyumqJZdcDPKogZkeYjsLbBzIQCAMh5zz5z7uEGQHpJG1d6FF9d4p0xJP3/AJVpaNUh3J97dhoRUyhAVyGmCbSFSNa4O3KNoGTms4B9sqf0upP8F1+DOF36QOByRWoPouLKgIPSCNueMYI0aNGnLgjVc9v+/TGYxvQu2hUyExYlfSe0+mQ2SCdkV2/PinaKA+dI13lAyKS1Y2q8y/dGt2TjKS44YKqaxVAjID5RWcTBQXz92BnG7+vp0F7fPPSFKF8u9+FBdg6vVIrK7VSoSAU4mQ29MxXOY6PvrT6dS0nqpTxbzMeizaH5btbgd5tgqmVlqMlbjqomo1ya/kl5A7LbSkrqIbNbFAy3c4Jeqa0DJiSjLuxvh0ldtlvzpkw1oSJSEk1aa11VtCIYTZHoKWka0IQqokpNto1se1hn5cF4XK9Ws+slsVlNxlrGbUaaa8CuyuojzPr1mOuLRTSsmvNksgQ9PkwjTcU7BfR7CYGxcQtVYBdTyouapdEUhOQRXuuq2zm1V6khWMbjKh03dLrNMuTeZ69fbPN9n2OulYWh9vHxKnj5V73yNpQ1yWMKrOY/deQ8tPlgszXVdNcdLzBjHv7Fd0MVb1m2Vgja+3F5gxXiGEU/bNQAyzMsJyVovLrJX8kKV0gKFgb7JlH+1ndiwpylm1dTVqxZc6ZOFwgKHTxVi3ORZLq8srnONMDQxq1eXsGFgbSPkNCVZNXars7scCuqxZTVQZrpseBxaW3IoImghomkU3nXyd1ZXWXcY5xJ6vI8SntV2YFsOhFfqsvtqlYKiYJCxSCzfN3mHVlB5Vbez3VO/X5rN+NryTT8uswxc9xOLsVcbQG7WsNxETC/MITZERqYxGHsmVI2jIMTArLnPMa1o4hiz24ak9vuZRVhNj7YOrGi4+yt5gqB61xmbUsOLI6PMXdoiFYcflTSkRWXLjAjBZW1n8QGOYxlYFY13Txp14xr4OYN8U61M6PlQt7NJ8LXW8psMu9pbGJFFsR2uwG6TTWVNZNTLMYxlKxXfVr11osWBKo+sNlovTkevuYcmjbJqusFoo1LcL3JrVRr4/qSKqt+reWCV9NAzVtKthXQpjHeXq9dUkNZJiusPySQSoEriK5TuRUEPFN2Zutx+RVWTtXmTiKeEx/U2Nfuiu/F0Gt5xKhbZ6beSoWOhC6cx3uYCy59Y6vWFNObQFFBuzSW/JTZpzE1wKu5NjsywyS81S5lRUDB9HV0dkrKTqVTrh0kHXSSFyvodNMrGVh0dh6PAOI9PaOHzdUr2d7jBFbpvWYRYyLb0dFYr3gbV7tLeUjqwIy5y0Z0gcAGaupWPh7WmRXxjKcrUsCLmQAASe0DzkRiJLjHoPKY5cR0oTSvdpaPH99z5/n+O/vMaZfS0eP77nz/AD/Hf3mNcLrkXblfcHv1S1+IzvWu8NfdfA1915+z0QvqY5nee9Tnw5/dDhfz9f8AZN1toT8P0z/XrUv4c/uhwv5+v+ybrbQn4fpn+vWk0Fyb/e8F4Hw79co/D8Su3XydfdedzoGN53+Ez6RMz6fya0q81iVrw8arP+X2x6e2pS2n7+8P1SlRETMzJEPGY2kd4mJn0jaY93Ll+Dq1fFpmgfnbpBMEK5TX3j4QddMC0d/4jDiNVMCCJbRGJkiWcDtO08pGYj1+r7vra80uqgNaoSMA/rz6s19J6Ga6no2g+POazAHbgme7N+BS61CzZbq02EMEVYapNhUT6wEl1gjnH1iiPdP0RrJz4AbEzG+TrR7Yj20mfGPrbTc+cX07cdONjLoNAWhMEJjBhMT8RKOQzH8sTr362J0Rakzq820wvHDwq0lJ84NxOAY3DHpBPalGoeBeR2hmVggiPQVURAx/zTZbbEf6Sz1e3db3NUsSrhWCZaYx1bDJiWtmPX6NhAOXr01wAfk1YejUynY0KbtZrBKqrvTF7eM4uvVJHNgB84ifmla8ezNsfRn0mYvmUfyhStHH/wAmkuVUgS23mfSY9dv5NPh42MKTcOLBGS8vaQxm224KLdTDiPp2g/o0iS52ifyRIxP9WsTpynN5rT/sXq/BJ7To5sH0XvBHviJ+Sc3wQf8ANsl+RqI/1InTSF/VpSvAtlBIcmrf4FUKI+EzMrYM+n6B02+tbomrxtox2/sMLy7T7XDSNYkc3ckz75O6PtF523Zqut2KrXSxS62SasgWcDPCEExYRAe6PZPrqhg7T295GbVwZ3LYJuWeYwBcChkeY+cJ+3W0E52/+2tcPfUoRzOUEdthuFx22jfqKUbfh+Cftn+NrM6bteKeKzHkSZInOebmW34N6R/Gf+PUpU/MaIOriQIHnc5jM4SVgUdp7UzMTatxEenKLNoyjf6eA2YI9vwB+f8ADTP+HXukyiLCr92w9augcRUdYc5pGzbj1QNhLXADG8R7yiT20s/d5Q55CiE/MZfoAXw+adpIz/2Z1s4jXTQlBtcmsS6WnAF0j5hN4UXrrZgtqTGAPBJIbjAjAc29fB+j6Pyawfa3tWqkqXO5zG8AIrCTYxkxMitYDEyZlsW0azTV7xMbzHptvHxj+TSG+JHv2a25CeAmrGX7Myry0x++qg21JmnelsHF00PBjhlBqUHEQky6ut7Sp8Y8M+8BK8vY3WMKze13iDt2SluOG3WBL5WvzVSVLtTCq7uRIsimy9ckb6/yDgV056oFJqVqB43th10sXdhbIIxiwQcgiwwZYRlygpaEx1OjPTb8wYDUQLt6gREd1uhgkLFLbuAMBfXWElIdQ09EZ4vMfewQCfeeo12l7XAsSWPLmQ/JpjeV8zjceRSERIl9K1lznWop21sGw8YqcGNVx4jNUV+5ag+Qj04QPMSBbg3msc7PWuq1iT//AHfn9b3aZTuRtKPHgaJiUE+30YjfgADacviuCjmAchmYAyPp7yETwAIHW1k7KpXaUUzDenXuOsw8Aq1XJrsB4MrwgTlMB6F8v7fp6hBtOyvuNtyzDYtpJ8sTcfTadfhIdFjELNgcS98bHM/P934WqnSGoHQ1sJlw4EQFPNGjRqpVfCNGvmvuhIjRo11sZERvO0REbzM+kREaE4BdNtMkMwJSBbTEFERO0zExE7T6Fx35bfk0q/b6onKBbweTtFYInVkptVtk2RuIYywVxSDKVU1IDr9V4P8A30qplawrV5CIus3nu0iKqjfYaCUqGSa5kwCwGOPqZltA/GNvv/RpTO9fswF5rm1TdiZtxaUK2JFrsgu3QtosWyoP8raoOgbfUV8uXVJCvM0fk620StdUqIl5VhZ0X1XQ0f5SoeEbtv5LJWq6JRmKt97qzwsJMK+SRWJxVsgUuI6teSYozGxbk5gGLV0OVjrotfxe97jWYttGhRDHVbVjoZBhBXXbY6oymyabYolNdK5TbRPmF3HuOfkIrq/fJDYF/LKpMXl000Js07J2LQoUESzHmDK7FlAjDjKqNk5DprCePsDqDr1dvcTi8tdyHmayjoyoEskeamnxTUVTMJFi2JYCzyTTCDXPT+0xFMD1dQm39KrRNQGBlj07Vb1rR7X6pYSYzGOO5JN3Bd6rMJk1ZBavMWx6i5qFBEd9NkEqYNaEQ6wuwbEgYmFRieKnxy9OIbQ+9XtcpVWuLJiBtuQshiYZBBXRORfVXzhXWm4CIqLUcJJpu+p8NQ3ue7IYus5nlsZj61qUw6veprhRWKzWBVYW5KaVWxWKFQ8FMcv5aX8v3xMasPtP2eTYKux6EOmsZEkWrkwCXL6ZdRJbA095kYKR9k+7V7at4ymNQyqSs7VdBGIVaWuxtu/Yh7evhrzly2uype6u1esPSOq/pwFW6ym8/NeWvVrCIC09ABPl+YYkpam0AZizayWNrNQA2WzXVTRcWYoJg08fTpItopsKnzK6qypFh5uWsBxNoxtXtNjbNnpklsLsV7AtB3oBJ5qYhxKXyJVn5Fg7JtStfs+JTvx93aPs+itiGIGpFmrWrCuEmoz6iVAINggCIa42QTWTIQfVjnv/AAvuc6mQ7FKa5cwNgZfPrWK7rcA8qdV9W42ucw3rqIIfRsHWayt6gzc68l0+ZlQOqDC+U6frtqy+xvaQrQM6i+i6u5tawqfocuY2YufndFyiB6ZKIIkuWUwPwmHd2DWChaTFYdFtymMCIBHQpXrVOtMLWTIADrV0wPKd/qlwKOMZPsqEBlLft2m1So2Snf0lqisVmxEffAQRyL+T8mubxEKKVYejRo0xNXW3fadvWdvh8NJk/Mtu5DIu4nLYtmlYMXMsXVrma6wsURAyoDAgrSwkPlhf1+O7S3c4vhrX1ney82ysvivWYEGxputMcjIIpWTU0evZXXsrdKSsADIMwdVWHAvavZdfWqw9rIzWi0G9rKxccMInmlWDm7hqU44Na3CEzVN8wtR3kxJ10xBGomSdrbcw2ZxcwRIPTi22GyQOWDAMGAwYasw9RJTPcohn60EG076Q3sl3GyU+ZhNWQGymu4cY9jRtFAtI4pZK5I1U8AFa7bqlJVmWQ9XneXPTnd3NvcbCx2lNZ516/BIJBa0fJeVFQ+4YqmJrGSiOouQMeYGBTIpUyzCZS6aqsq1BqGYwnKclNdGjRqQsyjRo0aEI0aNGhOCWHtl2AyQxecC7bgt2rDroIsvlz6dXNYzo1qi4tp8swsRGSWMV5R1TKJLny4nyr921v7Vdpqw1H+eyGHABImEMWnlh2U66BbYs2EhZritKHM4LDfpmfXIjcct70u+ZlC26rKAecUWZGvI8pkEV+SWFY+AkQ5B1JKlhPI1ucW/yTdeTs736MhkoadFuzq6VsS2BB8Fm8vjbUpA7LjI6tegpjli1srMmxPzCEOeCdio9m+xWbO5NlXNAhczAxDTU2WJeVX7W2OtDRlNem4JuTR2nrKGAbHKqO2S7M9gLLMOuvIW/bmcPdWi+YC5FSjlcTcLiPmWGhSF1mt6L7Vpxl7iNkt6WsbmPEPeRVTYKaHKCq9QDS8ItLsxgJ6NXnb3W6PtycC04s8yUI9KNz1k+/bvVs1oy1dFynW8vjRlEHP79O41Vyys07nCoBK6s8kjW5dKSsRbXNbpEYJVz7o+wd3jTi6u3B17SbN1tm6ZFbyS8e+s++jo2iWWPsmVfpVpWhHUA2eSrnHI/J3g90bH28lYTXfDCVlLCGhZYrr5FuO7PVqLAEbCK5wMUyTwePT5I39ZkyLB1u9u3ZYa4YlLVZXEVHkrmsLIj2szuFtxNZtm0CxtVsXJQX8KznxNreioU+Tsb4irxzZcbKlmWUb2TmsiCPh5LAdnb6sfSBl4BMzdl2MY8uPVjh8kiD6qhIvfHYLJtTl1q86ENsZKVAy4K0uO3Uz0Ls1Og87Ioe29QX1ZdW5Or9RNWn0N2sxiMYKVglcTAKAVhBHJlAgMCO5nJEc8Y9SOZKfp1QHd93yXbFhC2ljSUZJN/RHqTYJt3MVAsVrCsrdqV+jGJUxtQG3zTzICao/YDDoeJjBDMEJREiUTEiQzG8TEx8RnTmpCvRpaPH99z5/n+O/vMaZfS0eP77nz/AD/Hf3mNcLrkXble8Hv1S1+IzvWu8NfdfA1915+z0QvqY5nee9Tnw5/dDhfz9f8AZN1toT8P0z/XrUv4dPuhwv5+v+ybrbQn4fpn+vWk0Fyb/e8F4Hw79co/D8Su3SRd6Xif7QC6xVTVCkIOemCinYbala2GAuU13BEyYRDo413T96C+s7ZjrrKZ+jb/AF6trmjUrANY8sjaNqxOj7ylav16tIVBzH/BWo3KVntcZsVaI2HJmXlLETJl6mXpV47nPvn8uu2phnxJR5W0Qb/EqliRkfp3jyvuHW2z3fe/6/8A/nX3h+WdVJ0GwyS844nDMrfO4c+aGttsB/8AsOXNkkB7vPEhm6CArLQDkpjiqLGLvSYr3OYCGIFYCARPAeat+Ij8fXTadwneXZylQ32q0V2C3p7CLRE/kwOSGHgJ+kkQ/wCjqyxD8u8fl0THw/J8f9WrGhZ1KdQudVLhzECBhCxmkdJ0bsEstwwkgyDJ6dgmc126NGjVoqNR3tt2QVfqvqO3lVhcrPaYiYiY+IzMTtMfH4a1/d4/htyeMI/kHW6ozEJt1wg+Q8d9rCAhj65R82DEGLP6xJ1sg/q10mJTP0RH34n1/q1UXujWXcEmDlIzjm3K/wBEabr6N1m0wHMObThO45g9IWrXsR3hNxlkbVRq1WRHgUOED3CZ3NDF7gfSOYgp3kGhx9rFaZOr48yERhuNBjPgRoufInP4St0GXH/O/wBemzs44TjY4g4+8cRMf9cTrC2u7nHnO5UKRz98qqpn/XK51X0tGXFuNWhVgc0SOpW1zp2xvXa9zaGecVCCd+GMbPmlY7VeOKwayCtUXUOYj5Z7ZdA+nrxCFq9/3ufppdMcptlhtXLLbWlMFMLM2TvMmTZhQNmTM593tGPm/wCls3xnYaikuaKdVJenuVXWsvT8ohE6zgB+Wf5J0P0Q+vy9UnoGA+XN1J1twgtbGfwdrBOBLqhd2RiEiHdB3IZVl2k+abUITbrvY6xsmJCu9bZGEM4WRZPGYH5E1l+GGn118LX3VpY6Pp2bS2mSZ51QaT0rV0i8PqgCMo6V1MVvExvMbxMbx6TG/wB7WsbxDdoakZ3LfKWKNcL8L6XyZG7LhRDrWq0EBQQWa1qvHlf4dvSsMT5hvQpM2fapjvt7CUUy3OT06t1FdaGXJedYGVRuVnSmySoODKJDauxiXeXYW8R7pibZlbiHCpExPaIVZSdqulIR2R7vM/ZZXRj62NXepzLpH7b05c5IDLYVeSF606GxLzpPq/a+stZynjb4r6henJdwmXSdWpYLG4RVvhDTuZWm63RWMsJ0HUK2KLcn7TGUEcrW5Xu+TNeuzsn4WcuH/JqbLa+IfcWwcl9sF1jjotLfbDiT7C80t4WEkuOCzNbufR4GvUo7Xd0eVp5e9lsCtLpKDmvbrNxSTwwxWVU+1zKtyOiaKKRBaIpJ5MD2E6D9CKlw5xnW/pTi057FHfC73W2L2ar1ZX1aNZ/nLcnCrAguo5vlZsNEfKmFy0pXkvLS7zSV2bXyMI4a2jgM7fHf+X/7aonwiYFFTGFUUKQmvbalwhC+p5yspVa+dnpzMS91tTn8h5R0LFfafjtfWkc5zsXGVAqEzijUd7eZs69K3YXxhiKthy+UTI81JYweURIzMbh6xvGpFrG9ocMFlD65/MelqT/zWhIF/wBU6auSjVF517Qra5r121R5aWgPNb0Kjrq5QAR++VB5kV8Y2NVr049NYe/tZlWQSKyC4OsM+ftBdJCeJ2G8ZmY+EhXAigxF1pEkDR5jMWPNx5TENPeGxaqKMpHfZ5gym7eP40ka9/4+syN4V2slbL3BWq10mARu2JSD7jNh9Bnmu0vj6+pCUe34m1KQsr2La6UfLMlxg+0vqEIgRLVZatZHC4BfPphHLgARv9SNeTtt28VREepJE1syNdC1kxrTiNymICD4LCPVjjiFpH3GW3prF2MxGJxQPtBJnTpKFgJ97H2OAD0EwXHmx9iQWqJ25GcRsGlz7Q94C2S+zYyHTT111srkFiTBFvTh6sDiahKaywwVlDCmF+42dYvMdSaa4Fzcag1G+kezpKnWtrxxl3ozG8xMCNpGxZ7Idp7OQs7rSF7I1wIgSExFTDmweQDFufQWOTO/2z9xOEANFcBb0h7+2nd+VVNLzEw+9faYWmr3hSor1rF86tJcrGVQ/pdMrRwL2LgyIwIw4dHZTxk9mqC4QhWTCsM/wgYm0cSU/Pa3gsn8y+JMYseX1PmHq46eWxfaTGw2rYJ1VjY4WEQS3osoPhE8GrhiHpZHqDk+z6w7ajG01qZJMvI+Xy6s1Pfc1Ld7ZplrAcoxO89sSlVsZiJIo4yMDyEhn1CRIZGY2n5v4XPlzgvmlGvlTIyUsMCZza0jZMsM5lnSCv1N2kwjkFoTG7Op/B+7kXu1G7dSRt2zl7LE1LdimlhCoEB0ygWWukjfqWiKOHULj9O319SDup7qgv3ul5++lT+vbIFQlgTOyhOOqytuk4ifZG8nHzvo150G1nP/AA2sfOMb8YXpFU06FD8Q8YBsg/KYU67nMkbG4d7JFjJT2oA2cZiHQptJW5DE7byFVMHtwjcPQQ1cl5/Hbcton0ki9ZmZ9Po29xaqTsNh5qZirRAVrXQjtMustccFJrBPZ19VQ7SRF00OCJmRjmXP0+tq38jWLeN5GJn4zv6bz8fo/C17FoTzaHFj/bAleTXtQVKhqAROPao/f7ZOCwqpVrmxreJE1g8kBXWyPMG5i3LYmYT1JW00mtjuir5x681KtXfl8itlcbAV6+MdWa5QHFbqK4EqvuH72BoDEmCeG889d97tX0HLRAE4mEtbek5cHUFrAUuzNcjh9oGsPhA11s26U8uPt5eXt73eC8ptJbNG9uqJuIiS6gK5cUWkMtq8yiJLqJUpy2KYH+EXL1utHNbrSfv7hcGFuCwnbzs4CZtU8SmvSfYXjiqdAfJrm5LMtfA2sQPI4v3MeqtZ4h1oWbHkZ7hwz/Z/t5FhNLKgbN6Ljr30KneVBYbFS9FlMARxNWyhVpihPdJBZAuZV9VB4ne9weziFAmPPZe0asiVrIkcmCKJfJ27YrGkphS+WVK+LpLpKPzTDAV9EushuZ79MnfsMsNyVyxatHG0UslNfkUxMCqtSoOTAOkpjpBCbvy8LknAHULVHUrBriM/BPbQc8SFvSCJ29dfda8ux3i/zGHzNfEZ+wpqkxSq3IZXBJ1q9hK5RkX35tuB9kHH07sx+9+KzMemzmOn+xOXU9YOQxblMHktqjhi2DPwIDCZA4n74zp7TK4uY5mYXT2gwYWUOrs59N6mJZ02GlnBoSB8GrIGLPafaxZgYT7hIZ1VFvu5VjWKeLLVlTCdRJRTDOknJugpgR5LjabXQAjHZhKhfPqEvnqxO2vaNiAAEiJWbJ+XqQzfpS8lubybxmD6aVJY5gjHIxDiHunVRZvtdcuXLWIe5S0GLaTCTU5E98Y2lfahMtsM2h1e3Z36gCWyQ4FE8y1ycxhcHHPYutHWmBlmfqpWuwNhlOgNIl1ga5r120gAsrLrnG6UkZG399Wa3UaYH69Tf3GBDZGIxIoWKwieIiAblPIpgABYyZfEy4BG5lO+qbyvYxeHpWLFN5qdIimJextpVppzNXHpKXvKyELcalolLA6frHyo7azfYzPvSuvDG9enFm1i+uyWFaU+tcs067rLmFws+ZNIVy2UBeZar+GFnyPQOCSo3aDh88TtzVt6NdYh6R+T7/8A9tdmnqOjRo0aEiNGjRoQo/Z7HJN7LBwRsZWipInPJfSg2MOIXPs3cRx1f8ZClxPzNfEdhaYSiQqVx8tG1bihceXjjx419g+RHb04q4R7tSHRpISyoR2x7oKN46p2FnMU3C9awYS0kxZ1zXLlhsLhWVZPEWRMRw1IW9nkE2HkpZu6U1+rKwlkpMhM1c+HPpmYgZL5cZkBnb01ltGiESsYOHXHwGI90TPpEyUiUmMzvE+4Wl1eX4fu+sWuGL7OIRv0UqVuRnstYrjk2RJhTAQPKWGPMiL1KY1ltGlRKxNLs8lQQtS1rXE7iC1AABG8zMCIhAxyk2TP/vGff17a9cQEREYERiBERiIgYGNoiIj0iIj/AI+GvTo0JEaWjx/fc+X5/j/7yOmX0tHj++58vz/H/wB5HUa65F25aHg9+qWvxG9613hr7r4GvuvP2eiF9SnM7z3qc+HT7ocL+fr/ALJuttCvh+mf69amPDr90OF/P1/2TdbZ1fD9M/160mguTf73gvA+HnrlH4fiV26wlztZVApWdmuBjOxAbgAhnYS2mJOJidjCf9MPv6zDB39Pv/HSs9qMZlLF2vXovt012U9rwfcTDfJ07w5IBxFuxKuKyetZ2DGtYMAswMCfzV60hK83ATDl2/ofHztWI23j98q2kfv/AD/h667D7d0o+NyrHpv62Fx6ff8AnaWuplswN56by7RIjO24W+G9DGB2fnBGNdjJGq2o5PmFTLapGtw2yAx5Bz4yW/kMsCKLse1RJkKEeVI6SJitNInPYTGLPqMl3SkVKNEFPKeqoffpV34oc6uwe3dGfhcqT6x8LCp+Pw+v9O2vje8ChHrN2pEflsqiPp++f5NUdjcj2iI6UOtohfmbC758aYE2sdav5d9RkGyP3tcmx9TcgI9x5AsTzNTP5gLF0SallQqbvJMm3UNqLMV60VRszCESBseNw+X76DY0+6PUFtlIaUbVao942P8AX9/U/wAv76V6em/4f3o1y/8AKJj/APLqnx2/5yr477bfP+/6apzL9pMzE1oh8dOBOLMeYxwMY0x+TBZF6RKTn5f4fJ+q+sft1g8Zmu0kWJ8xdqOryLI6FaxTi5JFbfYQ2sxsLSPlkNXQet6jFnk4Mer1mbkp3FdITBh27oz8LlX4zHpYX8YnaY+d9/RPbml6fvyr9G374X67zER9b6ZmNVBjc3lQVQmbCzOKZjcHzdXY7IycTIEfV5tlhK90ECYHeOKfavWKjN5XqKg8jWFcWh8yyb9WIlC2ulsLXAcxY5Xk+mHVAVyFgj9ClNklJxXSr2jttSn/ANbrfGY/h1/GJ2mPn/f1yHtnT+Hm63p9HXCZj/taouLmRhHIsmgrMDYGY8+kVzPHKSkzWLFgJi5uN58D48YmAFICC1zsMja8iqOqMnMmB/vxRWuUtMkRFqCXXNhBACyOP4e2+3uJTHNhTgu2dPbfzVf78fLh67fe9/rrMKbBREx6xMRMfyTqq8Xl3wuwLnKNfRcRmVtbi5kr+DryuQ9gFEx8opc/5/x1Z+Pn5MP80f8A5Y0oKYvTo0aNKhGqo8QvYy5fqIq1QUxbbdbzkMZAbVxaBmexQQMEePqnjyOeEjMSGrPfG0FO0z9O0fGdo+jVFdse17rL7Iw9yUVnHWFVVnSNjFcCN5PCBsfE+nCQaC46LOfW3DhQ6Z0ta6Mt+PunENkDDEkkgDD549C7Uab3u80ZYqOd6WMOLpVHVIv17Vg3prRCIsikQqMNi0WiVWuLr3nvMwlgPX5rqRz6Hv8Af2LpE+RqJQFJAmmx0K8r6lOlIC3oWwWXBFzI2TLitJtiAUZ8txGJ8NzsfORXH2zYN9CG20JrvWpleYCxKYsugokrbenEAJ7I6RBZ4j+HIQW6nAIq2FU6di2cQKKyBdWkkm0Eq5KJBg7oHya9DGwR8R5DtIBu2cQbk+jGvubz9YKu3a7aQY3E/Pn/AK5v7k3dj2XtVr+UY6IlNp8OQyHc/ZLHEIdLb5LbqGUmUz1OYcfmbatjVZd33bB5vms6etyUx67EwInEAaVmlgLWKtwls8Whx6nE+S0/Xs3VjaXlG7pNrUXazTkRkVR1dbW84QcEaNGsbmsv0VyzgRxEeuxqDb+U3MWEf69TVyVR5Ji5TcrouQhrcmFqoVtUNGLAXq7IWADZrS9Nm6tikwdlBFzcETwr69OCtU2qchV9dorGQS26xR9IYOxMdMasRDvknHWFYgbW8w60db5uqg7bd8WBxxUrGbQ4HzkH48TVI2q0vrQb69vIMUQ14ZFO9D4YwgbztWjFHBcmM07vcpjjVjpxKLdpF4odDPkz2oYWJGsENe1SirpsMpprmttg2dTmUzxawUK7vEBSrxQ4Sy7HKmsBNmveqWWpAZYZqUz0IViQyyUOlNqI5R/Ab/k0qfY/uyuZvHBWrdGrXo2LbUOs9VTibkrS3zTG0uswJCtVgrlk1LsT1Sp1hto6N3otR4raLH4GxEAe3UpMsBEQReWXdrMswQjzEwhQl1Po6fPVCdwHZ+wdPqVMiqu8rjwegFV5VClCmf35WZ1YtdM3BKbCmY868PQLevv0Cqaoa6uKRGYznm/wtFZGqyzbUp1A2KogEDPU6dnRCW3tj3V5DElZHJV/SnKueUQbWY2JcRRxXYtJTPWjjAWF+oq+T+bz1YHhb7y7GPywRVAnDkQs1zRLoVWsWk1rN2owJKOmHycCDbRRylZEUwyeIldNehksk9jaw8GwUjYExLFL60dWu1HnV467Zszv1bHOLrkrTtzqlJhEUD3qY8MbliUg1dTHIrsZYSrppXboYi45cxBy+wSPNWezwvZ1G2LBb8vmBqE+i2g5tSnsOMnMQcFe1NJPu6LrO4aHGJDhgQZzgDp5wvX247NXsfLbtCzN3FP6t9VZSVw6pTKw0Suzj1vE2YM5jzSLte2s1osp6oM+cvPdwWXs2732yG1XajFMM1qr1oYy4ceXm82nZZbscQqUXBWY0N+oq0yuHtLnr2Z7tQ2jbfIlwRWx2PQiTkSIFhVvvqyQRO0Sld2tDTkz4kDuKnjwmfP3cd6NFLsWUdOuyVYK5ANiE7laMsZdAJWFdZrYZ1cg6emAz02FAfwY6gjixXFUNgicJ2n5JlWrUNsKbzrAx0ZbNufirc7o8x5vJldIolbF9oLYTvvMV8lkMdSoSRenHqVaCnj+ALOH+D1eN4OQ+u/px329Nvh8dIVj+8+xQJ9WadifIP8AtfFtNwoixUxS8iqtuKFJlIMdfh7wh312EO5FxKd9lPE2JEtYZV0MAebE5VSUsBQuFb3VnyAmw4A3y4OpYN3BG3uNkhutGMqU6E6syZ5oywWLvKWtVMCAMtqvnO5WijIJEkw2/wBNAxJCs2Vl3rByk4VZcvmFk8c4JjH17lsOnyJQBwmbKx31ZmZHbeZKJmJgYGY3jbYv4TiOlnwXfQhp+ci9gl2BSgOtySt8rfQr25KOtkoWxohKqjGiqB3Ny+ZdPjr0X+/FcM4L7RUUgHOAKstF2W/vltdBQC3OOBJM1ciwYQ1WzjIvmhvM4x2I1Tj0YdfMoopEkLJdlfD5gD7ROtyvr26/Uc2o7ewNK7DKcJs2IsWrL2WJBzDxs9DoQBtMfepZazdDtUdSSO9jsNj7812Bjosoo1TyWUM5JdKh0slYe4EhKazPmEbjEo9vpqost4rq6GdasWQy7awrKXAyt5frGlTTxqYq1UAM2a9suu5CgGnZpU+brM9ThZlfxi4C2Kba5Qxi1y8CuyCPINieNqWFaULgrJnowVrHA+Xs4D6kQ9SgqOZrENMnaOZTGg7MVy7we5dV6ieRy2MC/k5claItwFa3FY8ioU02njngnhAMaazNhnCiT1+Zrdpm+wtKF06y4hAwCFjEVvWvEQMRsqfrL+9OlTu+LSg6+BwlzaVKjk8pRYJwubrsbSKzJGtkAaUjSsb0xmTh3XNzgrkhHVu3uFeMHlEKVFdKcg6FpCSJQlDGLdKuRSQC1ymOhAcFqEwEB+fp7KkkBcK0kbl0eILtedNNt6ygWVez+fvrkuWy3VlU4Wz2RJxwhh/N92xztqhR7Sm9li4LCqsflIuIIonrL8oK6NR1lUuXJA+lTX1lLn3qtnBbdTV69/WBZZi2hIibbPZrPIUBTsJtLyILEpnbYSNoxvqmcRYotQRoSVHcjMEsyOYfPB3y0TKFtrpWc8pGekdgIn5hR9dtUwVcaIcxms91MvnDCIAPPP30r0ZjtxkrrFFZNULSyWpRQSYiZkohWVltsyPqVgkzSmrHGXT1pn5MNpD3T5lthNvGzKWUrTWjScjc5qXLIWr4rMgnZYVWVzMGjyKHksYLfhqvV9lGWCStNBjxOwvZk47KZBEEbIGWtsZfKKpkte/UKTTY+Z/Bb6jgduso+xbwtO1SqzVspr5C/emtWkCpObChp0K6xXWbLiSyqVSs9tiSSXXrksdMacQpN8aXE8UxoBGPpS7GNg6s806mP71acU03LdhFEGxsXmmhWFb1zIPryTpGCNLFsAv839OpThc4myoH12qsJYPJbkMFqmDPpyBgTIGP5RnSM96PYReabXuUa9wsjkcc61VYo11K9KwmPKZMrFW6txzCLxUepVQuX2HO93OBY0LM7he09vD41NXIU01/l3mNMrS/titbzbaEFUKyrCYRLvNEgHX1dJMCJcCjpjLBWaNLDApqtGvNStwwAMd+JgJxv8dijeP+rXp05RkaNGjQhGjRo0IRo0aNCEaNGjQhGjRo0IRpZ/H99z5fn+P/ALzGmY0s/j++58vz/H/3iNRrrkXbloeD36pa/Eb3rXgGvuvga+68/Z6IX1KczvPep14dfuhwv5+v+ybrbQv4fpn+vWpjw7fdDhfz9f8AZN1tnX8P0z/XrSaC5N/veC8D4d+uUfh+JQyN4+Mx/J+TVNZnu7sm4mKX0WDZuMJg0qNmbK3EBKkXPeFhZAG4/U908Z2EFzN06jmRxtyTKV2wWE7cQmtDJH0iPUpaO/u930a0hC83yVR1e7nLKS8ZuN6pBE131sRjFFULrLI2AsrTIY40wainjt7+Ue4A16KvZXMD6zZuzMSPoFHGq32q+XZMRGQ6Xrdj7Z++Pr9DZiPkos77S5H/AC5H9Bn/AMXrn9qL+3/PU77fHyfpv/J5j/bpsJ+sVV3ZjsZl0EUNstcvyzaypPGYxZqZLHMTagk5CAKR6qxlPQ4u6O5CJGRa9OM7L5SI3stt2GQshmQo4pIMI/McZkSvNOBT5hPAAcv/ANHh7j61jzNi/ajI/wCXV/6CX/jNA4fI/TeRt+SjMT+iZtzH/Z0QkkqBYvspkx5y995zCrNWLITSTAOYsRiwSlZHgRht6AEAH3/X3a+1ey2VhIAVqyblvawbB1anGVmvpgokhkYGYWMkfMp+VKYkxP689+0l/wDy5f8AQx/Xa7F4i79NxU/fjye2/wD/ALGlhLrHnVdJ7EZDiExYvCXynWiF1gFsMaTVwtQ5AQqeWGQD979KW8N2dbmWu/DdksktKgfbyFhi11FkxY10OdFUzIyZBZBtfq3OYg0xBZSKvWdWLGNt/TaX/Rtv/wBPr79rrf8AlK/01v8A+/ohElV9jexl9anCyxeskblMDqdOFrBTOqIBA5MLExJcYYRW/lOPGR6ftjoZ2Kycw0Cv3zhkpkWsTXgltASGDV5S4gOlLCFspNPHmAc+a4NZ2PGNt/TaX/Rtv/0+vv2ut/5Uv+jf/wB7RCSVVFPsy6iSIsZHJPBp9BKLhIYTyYg1Qp7gYQ+6ZlhtSC5/LGrooJkQEZn3CIjO3w3gY3231iH4SwW3J6TkZghk6vKQKPgYfLxtPprlNG99Fmt/pUjmP+q6GgJFINGsB5K//lNT+hN//qGiKN7/ACmp/Q2/+P0qFmy0pistKrbQgRKCyOdazkcwUQu60ExEz7Ihz2ikyP5g/Djw0yZY+76/vmv677bVC2idvT42y+n8uqswHhtYiUzOTa+UqJEk+sDDaLHg9jHFBxzcwwgiZt87cttYLhXoi40rb06duBrNcT5xgDzSBJGOP+0iYMTAxVpZV2UdYuOYjbz9Cr23dCikWFfdWSBNCeI0pGZk3WmTJPpXmdaediIjqLBhsgQH+CHXfbx3VJRHdusBbE2FwyKq4NoCUrJgrxlQwmQdPJfWXEb/ADdWyvuSP28rkHH071Q33j05DPMuB8Nw5euh/c2+fheGJ29xTUiSMp+JFIuDlO20fDWDfwf4TutOINRmILXA1apluxpwiPmc9inC9oASAZ3lYDucz4tteo8CFmVSG25CXl7sC2ILeRL3nH0+nCdXqIx6/wDXqnOzPcIdWxFkLokQ27lyBZTEog7y+LgEodBguWTLuIn8fjqx/tfcj5r6kR+Zs+P6L0a9U4P6Ndo6xp2zhiJwnLoHQqi6e1z5aZ6/FZ/XQ+uJRMFEFE+kwUbjMflifQtYoMfaj/DVf0VDj/8AXNfJp3d/R9Xb09PKM3/L6+d/+nWlURUTk+6osgmbZrqORdFTPtdaxyrFDpgtoVolKP31DwSUb3AfY6sNNfRSkFgGSX3ZTRivebFU5WKKBrRV8lNbGddC6dfHOU8DpKoGw3ELDYVtZcT6XRrLrWP2Z7I3q1dNcblU4SsVwR0myRQIiO8/8ofk1zzfZi+9L0zbqDDkNTMjSdBRLQ4comMl9X/X/GjSFdXOnALp73eyT7mKu0arYU+zUdXU1pFO0mErmDP3nHNZGEv2YxW/U6biDiS09i+7y/iVFTqDXZdTd83cdJtfXWd+vATjELAE2rNWKdWudt0q6zLBpuBWaxXBDUOxuR+rapRtM/OoOKdvXaN4yQ+vHb3T/wDV6Qml3N212b9sb1Xr3npsGU0GlCmoqBTSShLIztArDfj9JTOk1Gk60Y8+1dqLwBquOEz89h6lTXZzvCu3VnXsJOjWyDBWLnX1MUqLSYslUpTVxdG4Z2qrTVFtxt6UuQS3sYYDpeO/nA7XL5TLUGSMdLq/KLUl9s8gCdqV01pLoyieCmPrJcvgHWGDRX4PCjuEsCsE+drdMfJekY9gzPkHVG1o3+2G0DAVATMDHrBlqHd5ng3PKFYNmSWkrVelWZKsdvAroZD7ZI6YtuNCD68yBdQWck+zb276hXVtxoA6VY0LtlJ+tO/NJb2uVznOGcicJVbREc2BEjXxFflJywoOTM4FKuc+p8hX7uWuPafsNBAY9Mmx9oskYrCTDrNSzGFUGeEjMbuKfht86ePvANmuf9j6k5fyztovMQfU3pVpmOcR/BzMfJRvEFIj8dSTKeDDqScxlWCR421jJOaaSOFWnV3G7fkP74Ga/tZt9ffb01UjRtUPEOEdsQrp2lbZ2BntgdiV7sUnoDkU8+ULuWZAtpGDRax+KtLbMMjqcnGTC+U9Y24hsPt125in1eqXHfhGyvbAyPUuQZEnhETBTMc+Yf1aYhfgXbBmQZ6yvq2JsskKNWGkzy6KwiLZiTBQLrxxWPw5Tr4PgRLqSyc04uUfA8dUKPnye8+2Jmdei2N9RoURSqtLo2rP1bimahOYS23qS/3xzEYmF2ZDYpiRibKeMAoZiBD27xwD19/3z1iM7W8jUuHxEFIE+BqGAse6upITuEQ5MBLvWYkPZHEvZpsj8DczBx9uGRzjb24+qMx71lv8J3/g9ejtV4Iot1bVU8vY4W4ITkqqDIRIVjMRM7evyfx/LrvV0oxzSxuAjDoXIV2ytd2DykxFdTB3Y5LSXAbx6kzc9jDaUAbNz4LlYT+D8NdOTupBsrkR2KRY4o9eJ8Z4ukfmwyQmS32HnG5/U5aeIvsZtfrqd9uLEdFQKWMU68bQDOe8lv6zPw+Giz9jGpMMmuydtrDMJMzUJSQCMhw4mwwj2FMc4jfXm4sahkyQSTMHE80nbGOa5CqOeEl+Z7QvplLllXCJr3aBhZCJVYTfrCq0BEJKOvzSISdsObucGPrMms9mvhEy6rOMbaX1eq+/dm6TgJRMvA6QsMFJMcNdZsEjBQMMeJxMcP4MKXzP2Myu2IGMzbCI2mYipWLl9Jb8xLbnO/w/69X73Pdyj8JTmnWvLasrFixJ2KfI5OwfUOPkLKB+fM/RqxtaT2A6/wApxXN7w4ZqTdolRORobjJQyrkq5ek7cWTTZMTt6Rv5fbSrd2feXfsUqszeuwZCvrgBqH3SkfZHTrslHDj8xfR2+9pqMl2RuNbWaVqrE1XE0eFJo8uanpYBfv8An2kDuX/vAAvyaqvFeEiVQYjk2Tux7FkdOuZJKw9ryhfLeOIE2QCNo2XCx3nhqVUaTkFb6LrWdNzvxbA7DCW60GT0HnHUqlw3bB1i2SAfY5nVsxcssyVgimtLBrdJTek/yEw4nHFmklLoIfbPs1l+6fsYrG2rOQ6jDyrKcm1eRzKrdRVCqdITydjKOxi7qRSC2p4MSXvB4cVcGOVZnZPwoeTN7AyTWFYQusXUrJ2BSpIhhQr6YBMsOWF6bFP0a6+2XhSK6FpbMtaXFwaAOJKUwfTxli7bqgMNhqeE2bnVfDFM6/S4l7WGOlpNhp1hj/aj31e3qVSbdoa2BsxnbHMPDBRfsV2oRkirsVbJiD7R3KEuSqzjzb5nCTdsAmOa79aQuiQz8tzX055n8lOo/he0li3mL9HHLCrg0mWGsAFTh5260xB7GtdTHqXF1k5Bvua9PH7Wm32ZBnVuLsh4cfIQhdW5AKrW220rKouYiWY+MdAlwNYl8nzaRwIExzWfMXPSGSYTu5uLKGsyPm7Uc9n2aozCuc7cayENrpSELEA+aZn842Hy10Cg67edT+tWEBEQEREYgREYiBGIjaIiI9IGI+jXr1F5xOQ+i7V3/jUTmP8AUN4J/wC1oGhk/wDK6P8A+Xu//qenKLAG376lKNGor9p8j/l1f+gF/wCN18+02R/y9H9An/xekSKV6NQ+zgMlMemRQPr67UN94+97rU68/wCxjKbxvlFzG8TtGOCN4j4xv5j62hEKcaNRIsBkPxgH9DH/AGtnQvAX94mcgM+u8x5MI3j72/U0SiFLdGo9GGt/Tdj9FYI/rIteQ8Hf3na8ERv6b0xmYj6N56sRM/o0IUs0ai9HB3IYBtui1Y78lRVBfKZn49TqEQ8f4upRpUiNLP4/vufL8/x/94jTMaWfx/fc+X5/j/7xGo11yLty0PB79UtfiN71rwDX3XwNfdefs9EL6lOZ3nvU78O33Q4X8/X/AGbdbZ1/D9M/161M+Hb7ocL+fr/sm62yq+H6Z/r1pNBcm/3vBeB8PPXKPw/Ert0aNGtKvN0aNGjQlRo0aNCEaNGjQhGjRo0IRo0aNCEaNGjQhGjRo0IRo0aNCEaNGjQhGjRo0IRo0aNCEaNGjQhGjRo0IRo0aNCEaNGjQhGjRo0IRo0aNCEaNGjQhGjRo0Jso0aNGhEo0aNGhEo0aNGhIjRo0aE5GjRo0IRo0aNCSEaNGjQiEaNGjQiEaNGjQkRpZ/H99z5fn+P/ALxGmY0s/j++58vz/H/3mNRrrkXbloeD36pa/Eb3rXgGvuvgzr5rz9nohfUpzO896n3h1+6HC/n6/wCybrbKr4fpn+vWprw6/dDhfz9f9k3W2VXw/TP9etJoLk3+94LwPh565R+H4ldul17feNGpQyORx0YjtBePFeW8/Yx2PC3VrjZqpuAbDG0LhCEt3Lknf5N3GDgN9MQWktx/cvlrvavtodbKZDCVbJYBbHVqiTLIKHDio/K2rlc4rHVmWD16Zk0WH68CUrfRF0LzcK1c341MGj7QlzstV2h2Km5Sd0oXLUV+tdM2B0F+ZsKr+3qz1S22+E67+9XxVIxWSjERis7k7k0V5AhxNMLkBVbZOrDSGban+1wSMxAT6e74aUvtD3A5rJp7R0sXRqqxlKrR7M4p2SZYq3lq7PMXebYqLTRYF2MhkeJzYmVQ00B7i6epx3aYvI9oe0FDJOZncI5vYqiNmxWrrrfv1OYuBaqOjI46wrczjzK1itckr3xyA+WiUsK1LHj+xfTplWx2eu2bljJU5x9XHCWQq3MSFZl2nbqutJILK1WQZxUTvaDd5GQ213Zbxx0alVd/JYvtDiKzMnUxcnk8eurMMtKsN68gVov3oiFFLnr5zE8IEXaUGx2dbXbgk3kdolLxvaDtpUv5bEheHKXGGFQamWY5KmWnldFoJ64TAmCzAY4RIDaGSwle6rC1Kkdp8sj9l1Lz49pU3Dsop28Rka7ISdyukgoQmDcyYncTZE84li9EpYTQ95XiYrY62yiFHLZK0vH18nCcVUC4xtSzdmjBJHrrkzS2Ooz02FU89z9eNf4Tx/Y5wWnsxmfp06PmRuXbWOWNVFmsULKgTl23QN83MSgK/ApY5sL9syfCBeFfu/ylDtdbq31tYnEdnpxWPyJrI/O0GZbz1MWWi3HrVEMGrKI9eKeoW/0Y3ul7Ftjsl2rXZw1vLA/tFlLI4uDbVtWq3mqRg+nLo6gtUtfnq61wZWGKAV+92iUiZDuz8SiMhejGOxuYxV06hXUKytRaIs1wMAaSWIsWVSaCauGKM1sHlvw21j+9LxZVMZbfSXjc1lX064270YikNldBRixixtsZYrrW1ylk1aIk2EPu47aqbw65a0GdWjE5PtDlcFNVxZSe0le0LMfciQimmlbyFarZYb5KepWgGrUIc+pPUAQx3f5iqIZ65ZcztT2dtsr0orZTBhZuVM5Kx3XFunTp24mzTPlVhN2Fw1U/gyHFZQrJzfjmx6ZrEvF9obta75byt+nh2sovK7AlWSpzGhzdPIUkoY36onG2uy/42qqjQksH2oO1YozkYoqwrGXa9fzTqcRZri0jQZtQxo8/k5USvdyMQ1XnbeM3ewPYZ2Yq8st+yvAWb4KrFyrLh9iRe5IAY03xVJJWILpAlrGjHT9I1Ju2Pd5duduGsRdvYtYdl0hNumlRw5rMjaAaxlbp2ax9DfzO0cHByDbiPPY+aFMR8aOHmj51YZFzfPNxcYtePd9uCyKFi59MceYgcuQo4Y6fmLj0I9eOn42cbCcmy3SzGOsYmmV6zjshRhF1lMW9HzVURcabKpd8n1F2YCJ+dw0sfdZgr2MtUcnap3LVfAdre19TK3F0HNyGRHJ1kLr54qoATGRB8ahsqAcRXiOIlHPWY8SeSLtBOZyeNrZAsdQ7KX8WuzNCxWO1k7t2mYU0UrSF2mrBaph7Ir8B5cZL4aJQm6x3iGxzk4ZySa1edaSKJAHKIctD7BhYkTnpyoKzQLj1PlAmPy6gec8cuIQRsirmX4xNkqrs7XxrG4RRC2UtZNzlHUroeMoKwpTU8/mEcTGqL7WdzVvG9ocZiKVV6sLfv3Mrj7FSH/8AIty3g8hRu0xcAxNet5hisiG0p4e4AEPlCDC4vvDv4zspV7P1hymK7S4qvdrljaXZ0svGSNcsIJVZdTfjpqWuarthoMI53bA8y6UOSUsJ3OyHfTTvWcpVrdZjMQaV2dlbiZWK8WVeWKCLrc07T6fhjqLYzxYYt2Oo5JQ22hkMiGKRVCtM3hvExgMS+tJ7pKuCW2H8i9iVkfv9nOhe4/vnRi8x2js5Vd9ZZOOztpTkYjJWlPP7SVosSsqtAwFYPIxGDFRbe3beNok3dH3d1T7Z28jXTYGjYxFbPUgYti0LyWa51rt3ouEZRefUqrWxcxzEWP5QHUmNLKSFfXet3z1MKtJWAuWH2neXqUqNc7l20wVy0uggPcQLWMk1pcQX9c9yDfE93/iVxuQTddvaoMxYCzJVMpVZRt0FkhlkWWUMiOK2V1MaDhliygD4kW2oN4g8zGKz2Dz1pL2YyvTyeNtProZZOg68dNqLTkIE3nWPyrEGawPpkS/w9Vl3198LM9jLlfCYp/TzlrH4eplGCVBmXp9N9rLxs+p5qvQqUktqedsrYBHasdMPkZ6jS6EK9sf4scQzAn2iFlicepooZE1ziyppW10+mxBe+JhrQ5fxJ56lPeJ3y0sbYpVbPmCfkBuTTTVrutOeVCtNt4iKAIucKj2D/hJLafhpFO8zszmul2zxjsQyuWSRhe0lSjj2lfrJ8jdqV8oCXhTqLK46vTBw1uPM+AcBPnGrqr969LtP2o7M2sNLrVXBhmn5Syyo6sun57HjVrJM7a0T12mRT0VwwumHOdh92nSlhWT2N8YmOvWyqKoZ4GqKBtS7B3VBSmVE4fOmStq3MA9vP524fR664z4y8QVTHWq4ZG4zK1zt08dSx7reSOspkpN7KyILoIBswHWaYLOfmEfv4xvuyosHKdv5JTvlLNSVz0z4uXGDUEQmZgRZMNgxngfzvwNL/wCGvtcvs0GEymaVZVj7nZOvj1X/ACVl8Y+zWyVhzqL1ortNAXV2EuFhRHVKsX0CEiwvhEJpX+NPAhSRkGvelLskvEMW6sxVileOT+TvoOIKqIQBGTC9sj8Oe2pD3oeJfF4dtivdN8NrY6MqYqrk3eod1ePHpyMbG4rTVj0/j7+XzdJh2i7HhmMn9sZpunE9oe2eKGvWs1SnztDHYXJUbuQYgoE69e0x/wAgTukyAFbulygNQXvp7BZKueZxr6zrAYjspOOoXOkbovYv9kmHs4uSlVdiys16wvQatj6k1OoY8SZsB6IT6VvFhRkbBto56oFao+4xt3BX6q5VXiOQgTkBzae/sV84/wAnpr72S8WmKt2alWRydJl6ZGkeSxVuhXumQGxYJsWUAk2MWBMUuGATI9BiS2DS59tu2uOuYjtDSpdoO0WbtuwWQBePymOMFSSpn5RE/aLHydsDE1CPXYRe6em3pwQZhvbVOep9lMPjV3LVvGZLs/bvvPH26yMevECLLbWW7lZSJcXAkJWljiYw/vbzp0pITx6NGjT0iNGjRoSI0a465aE5GjRo0IRo0a4R+WNCaSuejRo0JEaNGjQhGjRo0IRo0aNCF1O22nf0ifT47fH0+OlnpeJ6xVr3rt9DXUawiU26tFmNSs4PIjYrkWZuqXZ6A0ULizUZwc+4tIjyNZ6YfM9oUVhErDlJAjFYk5gqEjLfiESciJGW3oEeuqwzHd/hr1UaLbC+FBzlzFfIcHVmHXsqvIa9Jg4ZbUs2QbByBioobEV2LBy2lOC7leICoVhdeV2VsdcvVV9VtNe8Y64OOs21qO9Dm15tNhQcFMcZRy8vtGsFj/E8DHL44/IQjyly46W+W6y11a+DsgwVJtMg1MTnA5e+GKNLIJUDsWvdjl4Y55qskkKVrMsssRfZWrhY+2A2Msm2yWKNoBffLOJhCB34cwE+LPdW7usWsOoFg64lWMRfXyJp6SmY+nXkltiztA+Rxtawv54Lms1/M5mSlE5ZHOd9ikUEZBtdsV3ksZ426HyXWdFcZJ8X4qs5MNYKirZe1hMgYCC1h63iTpdevXJbwZZv28evlNeINlLJMxbnrDzsuYll4TAQSLnIUPUemuvYtdua7rMS6gieucVaEW7K76bjJaMOh83Sm0ouRg7kwnx1Nj+bI+usZ2GHEsXVsgVmgobJsrJtuZUTabkXsySNgh0puIM2lYpo5Mmn71QCuDEgJFJu3vfpWoS0TTbaaRaUhXFO5yo8WuFhL7Cg5uPL1IXucD/CciDjHLD9q/ExVom8bdexWUo5Uuy9uPr1bLeuytC1WH5RQLYbEWmCFyakkus3b39MWefN9k8FcvPc62ttk4al1f7ZhxXwdQlwxXF0dNsMwtYG+g8ZQ+N95Zz8eO7p6sWMjlW5WYr3emuu2rbahVJfnPMPFVw7jx6lu/7HeXKugx4pisEy4mklLgpL2c75CtZSvSVXbFN9DIWxuPgB67KljFJ6dcAdLlwkr7lPG1XQXNa+n1R6haxHdh4jQvDUB9N9exZRWa2INDa9Yr0WipK6oWeq7zKqstAkoPgJj1hqn1FJ59kOz2FRfi9VuJlz1lXrCWRF9cItDQJ6qiPM8ZZcOvjbjT6ctcbepJ8rXp4+wvZbBAVa/TtDIVq4sWR5FkrXR43mJbZQ8wkIQq3eQmWxvXVtHzUyKyULIdo/ECNJthduu6BS8xU4DpLrOWLsbWgJsWsglSXgzKJZIWTQTQTZ6a2GEDNmdle0AWq1ewuGQuwlbwhyyS4RYEFEOUcCS2xE7MWcQSy9sxvqqb/dziLVh7mNcu1bJgqYGQch8MicdYczGit8SCmliMfYiRIwPoRuvpvsRYs7sEVfyNPycFFWatfy0GRkUV+iPQ5E2TZJdPhvLCI/wvXShNKkWlo8f33Pl+f4/wDvMaZfS0eP77ny/P8AHf3mNcLrkXblf8Hv1S1+I3vWu2NfdfI1915+z0QvqN2Z3nvU+8Ov3Q4X8/X/AGTdbZVfD9M/161N+Hb7ocL+fr/sm62yJ+H6Z/r1pNBcm/3vBeDcPPXKPw/ErkTPhpWe83xyLx9+3jwxpvZVZ05lltdYm/JA0zSklMcYRz25wHGduW+06anUP7a91WNyMR56lVtSPqJOSJGP+a2I5j+idauiaQd/rAlvQYPavOWFoPnZJXa/2RKJmZLCkPwjeL4lM/T/AJLHt9dfX/ZEQn1nDFtE+kzeD039u/rW9vx0tnfT2AXiMtcx4nPRSQsrjvBcUWI6yhOZjcjjcw/zIHUGdZ4i4wnaVgwwn4+ohJRv/pa11PR1nVpmq1vm7yrMUaRGsBgnUsfZFFBMCeKISnlMDN9AzMCUgW3IB32mPo/2xr1UPshSWREhi2Fv6TxupLafvTsGr+7FdyOLx6FIRSrRCgEIM0LJp8Y2k2M4bmZ/Ei1z7Wdx+KvLJVihUOCEh6kV1i4N/rLaIQaz/KExrPmvZa8CkdWefGFDLqU+jhvKoij4/qpT8ti7YjE/4JiGFvH8VpI+n4eurm7qu/vGZjcarDB8CLDq2FSp8DvxFgxO63gMjtLazXLGY4yW+tbGbxMU7NmpJEXlbFip7piZ/etqygZmYiOUmkUnP8Yz24j6azndv2lKpfpW1MmGItI9eMTHTY0VOH4chA0MYqVCXD157dT36uKujbapQNajI5scPmpLqDC3WatrBhE7xPrE/Rqse9XxEYrD7LtPkrJRyCmgeraMY23nhEiK44zvzcah/ja7u/7vGLF4u1aXIw4RWuvBDy3e9kLX6b+7cp3gf4utZDMnJsM2GRmyflCKZkzmJ+JkUzMyJfxtV2jNGm7JLshzJltbcbick22Z8erC3mpiYHkMzB3bsLmAD50sBCnBAhv67WZj3aweI8cWdsTxRia7yj1IUIuukI9NpKFAzhBb+kzqM+E/uirZPIuO0vq1KSksJZz8m64wyivzj6QSoWfJjsLCOOp1OI6f7GYwEgC1CK1LGABQCIAsBiBEAEYiAAIjaBHRdG0oP1GMLiM5OW6EVhSpnVAnekoynjhzNeY81ia9YpnaJsqt1YKN/qnYBQz+XWQxP2QGx6S3DqkfWJILxrL4/CAOmYwRfPHk2OoHuH004+TxSnASnLBqzjY1tAWLOJ+ggKJGY/ljWuHxD91i8Xlm10bxWYldqqrly6K3kwWhO/rI9ZR9LnvwDcd9Ja/hq5LCyDsj7zTaQp1DqkQme7A+M6hccmudS3VOw1aVmXScqWtaCQAuk2WARmQ+/o9ON9yL77H61Zd1kRGTxg8ImYymL3md+Xrerevx21tN1xv7ZlBwDNqbc0m0yNVGuG0ev5fjrnqh/E/37Pwo0orqrnNwrAydnqysOgqGRECkOMmcz6c2L+Hpz+pXMpmo4Nb2rhTpmo4NbmrizWcTVSb3GKkqDmZl7RAIj13/ANkaoBHjpxZTtFTJkMyXA4Sngxe+yzGDtAezR90CYQQ/WiNK13g9s8vlAC5kBuMqbx0TKs1NASbHJUAqUrSbI3YorPUs7jw4H7uUxepYiTHn8fhG0REcY+ERHzR46vrfRjHDz3SZ/wBpEdysWWQHpnHoW0bsf2oXeq17aoOFWUg5cMGBOAOIIeQxM7Txn7+slatiAkZlAgESRERQIjERvMlM+2IiPp1APDozlgsRO3/qFb/VC4iP+zrKd71QmYzIAASwjo2gAIDqSTDVMLGF/X930TrPgS6FWASYUB7U+MHCVyJa3NvMHaJGivqDEz8NrLDTVn9D9V9Y8fdff24x3DeY3bbrqmCj4xMRJh6ffhuqi7ofDbdyTIU9NrH10rXLH3KzhbyOP4CqD5XByO083SRiv2/Jzy0wMeBjE8CHzGSEyGBlo2ViUbfTARX8vE/l6O8/Tq1LLOnAqFxPQR9FYcXbMweXT0R9F09nvHFi2HA2K12nJektMFNXG0+kfIuJ5l7ingtB/W1e/ZTtfVuq69SwqwqZkeajg4gh2mQLb5hxv6gXuj6da8O+nuhbhLYoJ0uW8JbWfEdImCE7NWYgU8GJKV7nBhDOp7VhseuzuR7xWYu8l65gVNMFXAiC4MWbICCaHPh1FwXUF/8AC/VIjD26nVNHUalHjbYuOORg7D0DmQ+2YWa1MlbKtGuAnE77fR6TrnrNqsRo0aNCVdfKN9v+PTVW95fiIxeNGyJ2UvuVxTzxyHKK/M2DAFRNcmAYc+oLNz4fJc2fANQLxu9+dnDY+uqgyFZDI2JrobxAiQoFE17Vi2CXLfatCuoBj1LC/bOli7nu4zGWMdk7uQC0+jFicdVDHhDXruGQvbmosM5NtWl2GprJewmdOV2BaLwYfTjPefRbmrKhZzS4+r6MgCNvQpTmfsjGUBscKGM6ZTEwsn2yIRP1CJeFeAM4j5/FA8C9v5dXb3BeN2jmWjTsoLH3DPgmJOX1bRwMzMIf01EBem0LsLTJT7Q6k/Fdu8PwbUKa6th+euJXdcgEeYxMXnQ1y1kMPig9MDDD3rj01LjzD64/Kf4deu2OHfi7V+ubA83ibjYWxY8QM6grtV7MLM2EEP5AYh1D6YLsjykog9RA6uxwD4xVqyzt7oFtEEOAJHMYzzGMfJbopcMbRv6z8I+mdvTSg+Ibx918W1tbHIi82ua1utHJjSW2WRDa4mA87LVL+UZ0CMQ58Snl7dYX7JP3j26mDqLWwlNtGc21gfTU5QVD6ymbkMsUJMk/LC8efAOfMecFY85Ct2bRVoVCa9tKmiRpiSqsZRlqw1LmgpFWSbkTamZhIytaybHLhv7pNRxxbl0qkotaNV7m622OcDpS8r8ZHaZjZamOpXk/d0qAsrK3mfSJVD3cQjbc2WuX4QJ+Gm48MPfIzN42LT+hFkWtS8KxTKwkJglTIEbJUTkMW7hyP0P4+mvPX7cGecVWA7AwqbNawibYFyhddVhdxlMlWGAlvPpqaNhRHMhyH6CobwKduQVl+0eNIh5OyFu77+PNj0vmvZhDI2JqlrivzWwB8sZcVnZA+S+FNxY8Nkmefo5utWNV1KvRdxdINIg4SZbtz+SeMNc9dSm7+v5Zj/VO2u3Vks8MkaNGjQlRo0aNCEaNGjQhQXvS7NWrKV+UCuxqmkXQuMJdVwOQ6oyHSFe1JwC3m4EymQaYAB9Pl1FLz2i8KeaeeQb5nHdR42U1d5YlQodR7S01CVdVaV1RrDmKHyCCd1mVbrzfzu+xwNGkhOBVDK7kLgGxosqNOL+QuVgODBZDbzOMyyQcyVvIDX5A1y0FntLVEEfJ6jeT8M1hi69YopPSsLDneYNsS2w/E5bE+RNdesszxnRybdrBWVWR4fMPlrz0rufTWrE1mUcbKiithIDBLfNHCzOxVsY6wr9+HkjPo07hcoenoAqFeRzfcn2tyb74qttf0hxOPyDvMVzpmFi+tNBdQa9gAsBA28Lk759cutP2xSvbYZiWpysLsR2dvroyh5qN/QZAOk4tcHva8jFsTWoeZFEGiCeYpZa6beaEH7n1G/w6X3U31ymghdtN+mFdDWFTxtXJY4Ktq3jCKosk2m2Y8yFOFeWBTLKwcHWYbcB2ds5WtRQmvOQrKm5dW+X1LksS2xdzR0RppOorqq6zaUTyYuqaorL69QflGXV23qW5uRCOssJnFL69ZK+pAFkLB21k5inSNcEKAGgO38NvEq2mNIhQ+/4erMuuH5qsEWWCcQAGByEZPtLfkGMiRPhIZquPsP2mm0Y/P1MOy/dka6I12glTyyKMi4VMfdE2IuIszyt2+k2y4+iP74IE8fQelxTPOqOzPbnLSFeMj9skTNXBFZlKHy2XtsYILPIV48UVOs+xfWaEMt2WqO8ZvqeVSmp1x2wzp0+CiyEZUMOtl9IVoEKxu7P2XCxEFUhbMm7OEuSXKyMIXw6IBz6hghZPsx4Zr9P7Wri1UchA4ldpQiVOWfayvhK/WA1ofLlFGOtf8nshKW+YqcnAVRc69OH8OtiDPrTS4zQFAMmzaf0rQ0K+LGEV2CussLFauhjn7Nazn5eFfvfzVrv7YdqL9a66JfkxoD6XCVU6i6ypyGERRioZU1NcTqpZObB1XWiQJ2n8+oiimcX2abmXAsrQ2mx1sDKIbVQcAHlrDLFtRNqiKr5mYG97C4qsStceWHlzMEuKl1zupvzdQ+s5E14yNm85ZMfVmOvPMDkQrNDIHC54Al5JTXd8vPmjWCl2z2KwRVadSsZww69ZCDZETEGSlCsjjlMl75Hf3TP0aWTHdqsmVdNhkZNZguIZzr2y/eB3ezVq6W7KFW1ZamjayKRMq9K1EpvhVSqVmxbJ93hWCx9GbhGdqalabLGpCs1liUr6pNrqNi0MJm8klTDBZe0SmI04JpUm0tHj++58/wA/x395jTL6Wjx/fc+f5/jv7zGuF1yLtyveD36pa/EZ3rXbGvuvka+68/Z6IX1I7M7z3qf+Hb7ocL+fr/sm62yJ+H6Z/r1qc8O/3Q4X8/X/AGTdbY0/D9M/160mguTf73gvBuHnrlH4fiV264T8J1z1wn4TrQvy++Zeaha0fGWcR2ivb/Sml9G/wrBqicpO6H7fQlsz9H+DPV4eNj07R24/CTWn9I10x/t1RRHuBhMiIsEwIp32gSiRmd4+b8fwdei2OFvTP/FaCjTOo09C3UD8Z/Rrgc+n6Y/r0n2C+yLVOkuLWNs+YgB60130iry2I93RY+6opGC9dpHde4wW3x1jO1X2RCDBgUcca2e0QdZsIPhJjMwfQrm0TkY+r14j/P8AgWJp2NfLV257M1VC2qTklp72DicplZiYmJy2UKJid4mDvNKPX74jI7x9T4awNatLiWgIKWOYlSxj0kmGwRCN/q7z9OvEy5uXJpjLnMKS3aPVa8yM59noJsbJ7kftj8mmR8K/hrs279bIW67EY+oY2Aiyvpnbsrg+mCkFIuBVZ3Td5lg8HGvisSWcM1ualelTpSXCA3V3noV4+o2m3E7IV3+Pe7wxFaI2mSylWC9fgIpewp/0RDlGtfylcdhn4jERPrv6jG0+v1tPX9kFjeljF/ATvsEtvSdipWF+k/hQLC2/LpFVF8J+/ETOoWgxFt/8/FcrLkvmnb+x71dgy5/hPph/MrnP/wBWnB0of2Psvkcr+dV/7vE6bzWWvuXfvVRc8ofvYjVA+Ivw0FnHVrCrgVWIU1BC2rNkDBhiyCiBeggMCHjBbnHAz9NfO0vjTw1WxYrHFwzrONDCXXgl9Vc8TESJgzO0+m+233tYwfHxg/wMh/RR/Xa40mVw4PpNM5ggJKbarSHsCiXd74HHVblSw7JLYurYValaazQI2oatqxGTtsBK/kx5AIny9Z+v6N/pcl+OXDlESKMhMT8J8uuN9p2+mxE/O1I+7vxU47J3F0UBcB7RaYdZAwuYUPM4k1sbATtttz25fV312uPxdQa1cEx0RAXSua1TzqgyV1a6GIGdpmImR9YmY3mN/vaSLvK8LOetZK/aRNfoWLbHJmcg5RdMoDj7AVMBPp9E6wv7UXtGQNEmJGSWYjMZa1vBSpgjMR0p5cTkJ9xbf52kdbsazWFUE4YRj0j5Idbsa3WDxPNtV9eOCN8AyfvXKM+vpO3mAj/bpCKPzo0+HjMWQ9nCg/nRYx8HO/L3RYXv67Ry9fyaRLHj741faI5J3vHuCs9HvDaZ3+AWybwzT/yBi/zaP/mLVoDqsPDF/wCgMX+bR/8AOerPHWTq8od571RP9I7z3ryZHIAoCYwhWsBkjMygQEYjciIimIgYiPWZ1DMr374VIEbcrQEQ+dEWlEUesjtwEyOfdG3oP+3Xt72+yzL2Lv01SHUs1HoDmUiO7VkEciiDmI9fjxn+TSRZTwhZ6BmRp1WFMyzZVsCXyOZIhhbhrDwiZ9kye+plGjTe2XvAPSpdvRpVBL3wVhPEx32rzOQAkQcVaSWJVBLGHWGF8o5vpMyQcFQKg9u3yvLiTIHXT4eu6t+UyIAoDislq2X7UeqgFJgYVhOdwa10jsQLmeIHyLUAz+BfVayvaW1TFTAzWfAiQxvvtw2jrI3Hiuyg2If/ABJ4DpkPD34r5pqTSyCV+VWIrTZqq2NQwXH99V17jPx3N6wVHD3EMzuWtVcTb2xp2mI2nog5dasarS2nq0k78jr7rohnrt/x6cf+9rv1h2kHJUKNcD32n6J+jXPXWwN4mPvxt6fl09C1o/ZPmtHM42N/kRxTCXBbwAuK8Mt4lPpLGQKNh+PyerW7iJx1rsnj6Fx40DYvJPW/hAEp7r2TqE1JGLEHZBPXUSTGZ5MDj7iXI+D7J52fHy+OyUQqZx7GruTOxsRTuwCkWWJgoMqw5AKy2cB5fK7D+ENTeEHvHmXpxYl0Tp2pt0aTCFIZGkxrLg41JtlfKzjrr32KbrJ/voLNgZgPKQYQH4PKtgS+iwDZ9T9UwOT7eYsyo2ZB1ccYCEVsfVKnkn2iQI2K4FNCzZbVrY86q7MvZapLerr+ZHop5aV/vhUGT7W5FSYnhazGLxkLkYGepSrUazgL3SICt8WgkuUiUL9vMT0yfeQ06VVFvJi+pQxsYt92eog7d+zT80uKNWlWa9dn7aea8u8nWkz0a/GU8DFmk48JHaS1f7VBYBoKawszkIPpRdEXvC5aIinkoWEHXMF3NuPWAFyk+EwfNzSXNHSutF4plzhsB7clsW8UnY3F2/LszFCLlOqtpDMm5PSl7EKttKwlqwWtFKGOMHfwoAfGfkz10d7Xe35Y7SZS2vYrfKpuxjjyNZa/a6zYlVXe1XgUM+VecRW5ezq9U+OuedxI1pW9ENtX2MitXF9l0leYwSJarPqQdIavUuWY6cJSvkS0gR6gucvY+IZj81NkDprmkvKB1CeyrbFdllK8dRJbJYtSosOtVpo3ZHkBm1ZnEutTcwFxUOiJAHN9fuedeg++SxXRJGh2QyU2koJw4csXWWl9gkVqVULRDatkt8HSGBbYitZtlYsdKuqTC1ey3ZybOWfdgQUut5RJzECxtm0mteFoG6J241IyXT3Ad+oBhvHTkdVr2ZtUHPWzFn9srsHYBeWvtOxTpMsR17bKxFNNLDkZ61yhi11per5I7VUFhAW13L9oagqmiDY8wqxkYkGls+xA5K4srkbrUL5ssUxzmpjh1ZPRTyTaroGqFaMa+6NGpCgFGjRo0JEaNGjQhGjRo0IRo0aNCEapvt72kuU8iwq6q5rfWpqStlkq0vyVi0xSpsMDGXGJQmsmeBwxsSwzDyZzu2Lk1Hs92MrWYZDlQUtFSzKCIDkENlyhhgSJx02TLB4l7S0hTgVV/ZjvxO1UyeSXUFdXG1EvQLjYmy/q4ermiU4ZrH5UFruVK5SB2pNi3zK1dHptjeW8TL0yK244BsIVaG2pFx9parAxgPIpqyjG+es+Z/ZDj+twqA9XStgmrkimvL7lyndhTZWvU4XCEZBDK9ka8CqTFlRdGCGRH2GuqpaV8faAgHp6a68b3R49SPLBVDpQl1eOckxkpf0euMuMiaXU8ujcpPeOinbbphpIKJCh7u85lhFToVTVbJ9Bjl2qt1FVan5IKlqE23Y1SztwJuNdcvL2o9jGrVEFqHdk/Es+yePCMSxR5NpMWMRko40gdhwdelb8CgyNR5YJImgFIArzIX/czhd59hKvQXVgCGuolEpYMMJAks6yyFkHDImG7TyE4mfmz7ZOCxWJ7l8agViuqAip3XWMRxAHQamQyAHiHGGV6xgnj0VFWrytaugHEgpZCqHsv4l32q9Bp4+mLLjMWfQr333oVj74U2otDwxapUyqV5LLDHV100AFeDuyT68aLfiesQISONg4bFa3WFNuw02Unhl7IvuBVxm9OyYYcw6MkypLLJR5pw1z1cBdzOJ4pD7X0+FfoQkfLr4hFUFLrjG4zHBA16/SAvRZV65jxNCTCO4TwyYlTLLWIi0Vs0kyHrTCwlE3pDpKQmupW/2xui2RDdwWGifOGHukFEhYPDd/LDsVgOqgEuyOUx7LJ25MhLH5C7jKUF06cJVYylqqcoXZfTRz5oW51jipl4VijjHx+EfHff4fTy9387UaHu2owxbYqpg1Me5ZQEBxbZYb7B7BEQRssNbYKTiflmmz53rqQUKAKWCljALWIgsIjYRAIgREfvRAxtGnBNK9mlo8f33Pl+fY/wDvI6ZfS0eP37ni/Psd/eR1HuuRduWg4Pfqlr8Rvetdsa+6+Rr7rz9nohfUbszvPerA8O/3QYX8/X/ZN1tjV8P0z/XrU54d/ugwv5+v+ybrbGr4fpn+vWk0Fyb/AHvBeC8PPXKPw/Ert1wP4a56wfantdWpJOxbsJrJGPc15itYzt6RJGQxvP0D8Z1pCJwXmwErW14y7UF2kyG0THBWOXMfD1CrLYiP5BsapJy54GXpsIlJbxvPGI920fWLjy2/LqZ98PbkcnlL+QDn0rNhhVyMCWTKygVXQZCURw3BPIR+Mr4kfuKdRJKjMWjEbwQnEbxPEomJ9Nx/C/ilr0m2Zq0abP8AgtXTEMaOhbVuzXh0wldIJjF0W8IGJbYrKsWGyICuWPe0DY5xwEcmFO5fo1mx7lsP6R9qcb6fRFKvtH/8rXn7m+86tl6SLddsHzWuXKkh61ZxR702Fx6qYDIOJEvhxnj7dT/XnGvUM6zjmVmnOdJkqPdn+wlKpMzVp1a0l86a6FpkvTaOXTEd/TUg190aZHSuczmlS+yAqmKWMb9ReROCn6d/JWm+n8oqOP8AO46Q5X0fyRH/AFa2T+MrsEy9g7EqAmupmu4pMFx6nRhi2xv9M+Xc0oj6SAI1rTe/biUFvBF7SmNucffiJ/ncfq62OiapbQIH7h4K9snf6cdKeb7H5PyOWjf/ANZrT+ia0xH9Wm91r+8EfevXpXLVSywFDkIRCnGYAsbKAbI1jgtiE7KeZrLeR+R4/POInYDEaotJt1bp4GWHcq67bFQ/exU1288KuGyDWWDrkiywiMrFZrEyZlG0k1Qn0GzPxmTXPLWuztp2YZSuW6TGQ06thqTMR4CfT4SJ8PoLgwd9baM1l111G9zBWlQybGH6CARG8zM61R96Hadd3JXrqpHo27dh6PdvJJnoLUzafWOt0zZwn5u+2rXQb3uc+mSdXVntGSkWL3Els4QsdiKhNJawgSM2LXETETBE1kAMbTBjO8mI+4S/kLWyvup7gaGIiJQrqWeHBl2xPUtu3mJKJbMewfSfk17D6B+DrXj3Rf8ApPGb/D7a4sZ3+G85Ct6f52tsGm6a1mlrQ4wRzpb5xBABwXHX2I190azGqFUpfvHB/wCgG/nlH+8hpCsd8+P5dPH468wIYXpSYQx1yrwAp95CpsMOQiPwOMb8vT4/k0h1K5MFHrEbfya1eiOSd73gFdWc6h3+AWyzwtT/AOb+M/8Acn/bt1awapTwiZkHYGkIzEFXO1WaHx4Gmy8eM/yxIMgo+MTGvT4mO9Wzh6KrVWFSc3FJZ1l9QBSYOIi4C5JlO4D809/yfHWXqNLqsDOSqktJcR95q5NfNtLl3GeLuleQIZGxXpXgmBLqTFetYgo+TbXaTWp+V29E+Zk94n01buZ73cVXDqPyNFQfhHaVET/JufrpX03NMEJpaQYIVMeOXs0s8Yi76BYq264LOZmC6dly1tXG28bFIrYf5E6RapADMe3YIiI4jG5cRnb4Tt7i21d3ir8Q45ghqUeUY6sxhG4ogItNGJGWBBRyBK4KSW2dupzMvqRqleyqfPMWinPmbLmQpaUkLOJceYmfGYMEmEby7chAeZfU1stG0n0rd2vlBzz6FfWzS2n5y2T+GHMG7A48j2kwUdcuPzd6rmVfb6RuHyPpO3w1a2of3c9jhxtGtU5wUVkALGTECJmMSTmzHpAQxkmzb4RqUqdBRBRMSMxExMTvExPwmJ1jXEFxVE8y4ld+uDGRHx1z21Tfe14iKuMOawx5y/MQUVFnw6QF6idtvFvlQMYmA9jG2J/gln7uEatWbRYXvyCdSpPrPDKbSSdgUD7V49FfIWKKFq43mjNqvbErNJoZExg7FqDZzZDVJy09Ii4MeuoEksR0kXdh3RS7O1TrsXUxbbgFXb5orjq9CGKsKRLGwp7nzYtQuHnPLHvjfewKOR2d287dXsyVwrBBZFVdzbnshdLE0uKnMWW8eaIGHVUIS4Fva3qGC4HqbRi+9QhM3kLYgXpJ1b2hxTXsqcSFSraefsiBgP8AnDYWJb89Yyvpwmozi6fmOcBJ5pAJ65XoNDQLmW9So50PYPRBkzExPThC7fF53JZq/ZXX+2cvq1qS3Vq+VtbdPqFFe3dsslaknNR26zlgWG8I6nzD468fdp4I8xSv1Lqs9jqsosy2LtJV2y3iIyt70iVNVawx8cqZgbegajP5/wAzWb70u077F5zbIriyrlWa7muxXJgJFFoxII4LKaylpsJHlHmSshHtQnUu7g+1q02fLjvCb4WGVxH2rFlZcFuAxEcF26QufCY9osT8OR6uLK/pVbwUH7ZiOdQLvRFSlaC6kedm2MvuVd3eDbsPGqmtvXYdklxZDaWVEtUMNcDIWsQctANqVOCdkFZQ318rxd1YLFUcXYpvQCUVSB1G5wEhFYEizeXYXG7LDnA9d0JsONjzLJs/Dnh6wdHGRCIAZmZmB9NymVlMz8S/wYf8Fr3s7XVa0qmzxWfUMlbJa0lGuPfZdKU2PK1ULsKrFdkOlDLKxIvlNbStQY6nDllg7V9Fc7vd5YvV2WXSutljrCVRsRPDDDEA2pUBXCYMkuJdqwXGfMO4Jb16yUomQ9jsI4saqrkkqJlh1l9xHCehDLF5t7qgURuDSh0EuVMnoWY3FhzXZrlke2pdY6oVntcSRl/SspQ9QWFzx6c2HfvpoberU9Lp+z6fTUM7Adp4xdO3FiqVYaxxaJaW17C00L1poV2wa2EPT5ps2D9vyc2Gn7eZahNpNAAXE+dmrl7vbBr8xTY47J0zWIOZMS9lV49Sv1y2iTNO5o6s8ibCeoZGxrdTnVW0r/SyydpiBu1Wo5zJRyZQYFlC4j4cjq3rpTP30fxdWlrllguBRo0aNCbCNGjRoRCNGuIlvrloSI0aNGhCNGjRoQjRo0aEI0aNGhCNGjRoQjRo0aEI0tHj9+54vz7Hf3kdMtpafH79zxfn2O/vI6jXXIu3LQ8Hv1S1+I3vWu8NfdfA1915+z0QvqU5nee9T7w8fdBhfz9f9k3W2NXw/TP9etTnh4+6DC/n6/7Jutsavh+mf69aTQXJv97wXgfDz1yj8PxK5lGkk7ZfY+bVq1ZsRl0z17NiwJWaJPcMOYTYAjmyJT0+XTg+U+wB9oR8nDu648dauhXfQdr0zBXnTHuYZakJH7HDkI+GYpzBfO3oMHeI/wA237v069A/Y3LXp/ytUif/AOGkcR/Ot+7/AEtPfEa+6l+UrjnXXj386R4fsdVmPWMxW5yEr5farjuMzE7TIXQP6Pw9MV4fO5ZmDqOrMuzchttlkJhRpWgDUpUV1rZYtnAR0uqRdb3tYwuIb7atfRqPWuqtwAKpmEx9Rz8CUaNGjUZc1x4/Tpau9nwNY2+2bFNrMU9hyb/LjB1rEzG251iIYA4+MGg0/l56ZfRrrRrVKB1qZIT2VHUzrMMFIHkfsfuWAilFzHWBkdt3Q+uRDM+okEDbH/t8f4sa49nfCl2vqQMV74ogR2WCsxcBSd9vQUdKa5j6fNJX6dP7x+nXV5cfvR/q1MOkazsHwd4lSze1Helj8kgWU8Gfaa82Zu2qjtuMiy7kLNuBLaN5BU1eJTy+bz49H6nw1IMT9jytFPKxlkDMz7+lUe05j/3xXk7/APxUtD+Jp4BXERtt6fe1z0DSVxEB0DZGzcuZuqkRKXzu08GeMx7U2GNtXX1zg0S4gSpJwcMggRUWgTmJjfexL5/qhg9GjUSrXqVjNRxcekyoz3l2ZRqJ95XZ6zapWUU7JU7LVEtNoYKZSZbbHEDMesbfH6NSzRrgRKYDBlIxmvAtmHslzslTsuneJOz5lh7TMztDDJkj8fwNY4fALluUT5nGekbbcrH6jT7cdHHVkNJXAAaHYDAKe2+rNEApKsL4Nc7W5HUy6ardpjmk7AyUyMjEFIiI8Q39vyR6urvu7lreUxFeit6vNVzrsJtiSJbmJSxZScwBnPUM+fzNXbo1Hq3FSrUFV5lw2ribh5cHHMLW1kfCL2hV6TRW/wBPUq9pJj+X0dKD93+ZrEYvwt54imAw7FzH0myqkZ/kKHzy1s7mNG2rFul7logGFKN/VOfitdN7wW5aKl190qqFpS9/SWZ2nv6ASfTGQ8sCYcHMOZMZ+DK/leYN2vsxUXlaF9Fev1LVJlFdgFjBQlXG3WAdtoFQVYtBHD3bksduHOQs/I44GrNTI3BgEs43mOQnEiUbjMTHKJ+jVQdmHAnEY73m1uJfUosMvYQuqNjE2mGMcIGXJa5kc449JkMH6h6rK9d9d0vUd1Y1M1KO2hBauV6BFJQKmXm1oESh4JYC0wyZIRhfWZB8OXyvHiew89enuqrKhD5V7a5XrnQVG3BIpfNdkKiPbC2WUusiI/M6/GPhqOdm+0iCZlcg10iqu9taeewMUvF8AeM78TgCeDWjB+jgsJP5jE6gffPn24vszUrLI1vuxXomwp6LFlYQ21bKZmBlTJWt8enA1kfIeJD6QLirxTC/oKfRpOrVGUG5uIAnKTzxJ6gcJWB76PEw5zAqYiW8Za2uTayxK5cestirY2Dn2AUAZebhZwxcSxcgIC0/J3beEaxdnzOaYxKibLvtal/I3sEIXLsjdHk0nHMcukh0CH4W/IYifYDtivA4atmApBZu5Ww2rVNhsBNKhXM0V6/UWqwVfmKAZ5RShljT6PoNVYrxqfHxloemZTjSTAzDK8g9JMIZjcgtk5pAS/rI8myYn0k51nTUp67X3bpJEgH0G8x3x3raU7W+4iNG0iGiQ58+c4tMO2+jOW3AHDJXb4ouwA0ezNpWMrghCGqt2kVlbSyoDhO2UgESTDgI6xl84oXpE3ZpfzQelsEEkMqaJEa+UB1FSM+vpPKHB/BF/HjWxnuM8StLOQwABlW2qCYdV3uk6/LiNhLRjpOXO48hH5VPMBatMsXzRrxIdn8dT7RZGtjkJrJWqr11IGFDN4wF7liIzHBHl31n8FwCjsSW4ma/bG01b07mm2vnEHDGQJy6cI3qTwZvH0azrO5ZmdZ2tnhGcqH0LwDMiRCMBAyQTtAysfaJ8I23kYjYjj3ML3T66zvh67Ri+5iyiC2i5mBCCHiUIHGWiRMxPzeHvXP8Yw29vrru7j+y9C/ncWm/wJa7EkaCgWCbpU3yiXKJbI6dlgs5c9vVC4jj1j5zmXpjtWxYbQP22zorjaFjujFCsxVAwMGKYjgXDfjPzvdrhomyDa1Cu3ACo1xG2GzPROOGMdKudNXjD+IotaAG0nOkdMCOxXlReIEUlO25SW0b77bDH+zXyz2Sr2W1bLEQ9lUghJdODTAyPUGZ4jWh8AyB6iOcisg5GHKF685Xdon3DvE77Twmdvb9/f26hWaxVo7lN6YUUI22OwBFCzZzttsV1rfEwyF7olb+YMI45iZLXt68WHF289ZleWnHHoHcpne7fpr5e0+68ata4FFVKwxohUhdcSElPtNIQGx5rkyF+4pV83nOvXl1V79a5LVN8k0sQojdBV1WcfSyCrN+we8clYllcpg3WemuzW607EExy9VXgxcgwYaEEtwBYEDmWLnqJbA+7gYb+z3cl/xdLv32du8xmMv+xTH1Sp0yemxdyJJNx2KTQk3M6UyCjq9QTQxMH1cmxPly6+9mNV9y7VpxsStE4KdWPFhjqqRxrLZ2blO2I1c+tc2MSRhJJRbuXJ4D8pW+RyPlluWjnaYHVhfV00vdT4jMLm2WE4y+m26rMdcF8xkRn0hi+qtfXRJeg2Fc1l9BaQvCeD7EKeAzcs57gYqr0W12Y5JsUbFyyzlweaHxVmDjlR6LWWZpVmWlLuLAs54XPDZksXmSuqurIEIs8EGp9IltNnCaORpWxJ4JsqmH1r6JaPKvuHMD+WoWVHEgbE59uCMJnsPj2LZLo1E+xefdYFovFamqbt8ifUW1JbGloSwRMRYHJZQxYTyBkhMh0mHLNSlWEQYXAi9J/wBvpGk08RPbrtJls03s/wBnjDGDRr17N7Jtf0CM7az8rWifLPOVCwggxrHDDPceS4+c5Zjv6T6xPpqm85NitlODZjyWTJ3QOWCM+eFFDpKKJSEpaVerbiuYMP1D1+UPXKrknNicVQXYjw52Zu2Rvdts5kLhVLFeQpm7GwJw5amNrEx9upzrxaSnpLWsBc0GEfP1CH4PwfY4WkeEzGb+2lZBWalq3CypXLQbqWxbmJXBHDmApm7D99oChZR1NW9he+LGAAZTGr69u1HUyNNuVCtdp1mJW27YRUu2ApCUNOi58IGoBg9FieXUT1cInvORSsY8qI1027Nkr2fmic26Xla1Oy+zSrkZsBk1xcs2RjPRV06PVFf2wSD4hjbvVk1jmejPZntlX34bu3eQyWGpWcrUOlkSFi7aDDpyLUONMn05KZVDoEWQBwBe/wCZx1a2qw7gO7g8ZjgQxjGvaxtuwxkcS61opYS/U2F8jEgncmHv0/0DZ+p4VSc0aNGjSpEaNGjQhGjRo0IRo0aNCEaNGjQhfJ0tPj9+54vz7Hf3kdMtOlp8fv3PF+fY7+8jqNdci7ctDwe/VLX4je9a7w191xjRrz9nohfUjjid571P/Dx90GF/P1/2TdbZFfD9M/161N+Hj7oML+fr/sm62yK+H6Z/r1pNBcm/3vBeCcPPXKPw/Ert1WfbLvwqUGmu2xVcRNsAbCdsxVaku9bf8lVaALrIYRmRnxiA3Ig1Zml17z+y+MZk1Wsm2AGnYvdBL3ArHW/OYenVtBkeokglcrJddQMsLFpWWCabEAMM0hXnCnmG78qliyFNDUNexj0hAFYJROqIU60qLEUehujrAM/KfW/D+S153d/tP3StiWbPt0w4G2Rbeqct6cMmrCwYZQICRnwYZcVeZLVWgzs9joffjNQWPqW8pbt015FbcdyzVolWZv1aYuKykLq3hSS5U+XfNoJL5kJ6+0uM7OhLwZmaq7E5R2UFbrlUGLyTYVIDzVVCzXIhAVspxPWYphAfUg9NlLATAu7dJiTCX0oNcnBhN0YlcgJnMM+T3CYFTDLcfZCz/A15g7y6xbcbWOLmXANr4bEfAWwIzC55T0moZ6fVcP0cJNfO8Tu47LE0StuUmW5XIJNibhzNjLZNwotIZtUMHuWlw04EznygMdXjhK2MjFUO7TshUGnb84o00729Vw5DqVqlynhazJAn16wQsRxWJrS3rF80Q+s0IkkohMzHeTXkeQWKRxySG43AmOdgSZXEvZyg3q4GoAFhsk/QOPymuNfvRqHElFvHzECLN4uhtCjb0YOZkI4xLoJX+fHD52qWHsdgAK2DLwJlFvEucJXhQapxHXTj5mRppICYOKbBGJk1qkOGHdIOBY3tD2N7Lkdh53ainkllFzFZMZIFzftXXAIzVYEmyxbsi05VJR00BHCZ9CUobOSv6e8atuEeaocynaQ86vffcBmFxx3OeqfD6nr0/wAPXBfeZT25xcoyolucLYuBKyTWiDsN57cOmhTEsafPivqzBT6cjXjAd0PZmsyZp3PLMuFUdEV8qxUmbMijyr9hq/wj8ikFJA442TZaXAl05GJFPYXs7YlteGBIeWyFexTrOZDG1slkzZfU2miqDgEr1jguU8CldidvbwIySl1VcN3vSpqKAdcoqZt6gdseQl0nOmJ9IjYV1rR7z9WsU/TPT7Xd41YJnndx48YPfeyHxWO7N45Rt044kX3oLVBU1dmx4rC7HJkQkQO+/is4r5Ki1XUbU6m4Tk7vV68813H1QOEk6uM+HL92XZNgA/rq2ibiwuV7xl5RV2gDHjDF1iUK00GocjzIcBBVcyZ9OiU9zOYFMriu2S3iZos1GiFiaxEDYKAcMhBpOYmODo5TMK9ZKOE/4TXuo5kiNY/JmDFGyGLLeI4SmIj6YnnDuUFy+jVM4m9h1RdX5lBMi7fydwG3ja4Xrh6rHBbKnI6yyoWVCAK4h5JsL59E4Gcd2jU8hXXiBXXGyghnqi3qCVQphgtqV55Co1R6x97bn75hZXLVVlaNGjTkwo0aNGhIjRo0aEI0aNGhCNGjRoTguB/D0/3emlu7e9sDW464JpyeWtPhsWpMUEupZrY2TESclL7iwhBsnz1M+Ch6CLRgPO/e0N/pJMuotUxGwsZG6wI54hJRyHcecxG2+k37+u3VnGqstZj2NCMgnK1LuPhiTVXcL03rFqLtG2xnkW1q9h9eqv5avaqiI9FTufKoSBgu9EY4q5s5kPfQqPpGgnZFZlEWZbWuhXhzSKXEuTs2JBMWppv6Tm9Hlyd0GLP2+KHBosYawb2jXKqQ2EPYBsEbIl0FQQJgmSFmHTXnpxJCL9+PL26qLsH2ts5FcmT7NmvakorxfiEVrsSQBXsY140MXfxFlnM4p2Yrvqt4HwIDgGDM+1mRDJYzJ4i91DW5E0hssXxdVu2SrpRXydetIHNnzzEvTbq1/K265g1ZcNzdyc0VKZDxsPcplImlWZUaYLSDOe3PpVOdzXcxVydLp5W4k5rlYGpVrHONsVRu2WWrDbIE5vUebp/e8jLASoD4tMmMAMJ3meF3e35fFWoTC64nwu2HZB1l47kGypycOTARuKio4h6Pp94xuGC8NHZ1ibI4ztHjCUu2uo6hGQQBKC88em+tS+TOqhN0Q5itEpJT0r6gDDVauHEd0dZk2U5EsYeIrrcwk0bFoVSsDLiV2idsKdRSFrMGQKAGwXPjx9I1Tig0tOsNkY7wr51d9F5NCs6AS4DGCXHHDIzzQlf7Cd4FnB5ALZpOu1PKpZVuDiWVtLAIBaG8bLb5S3Pp8r0+MiE6pPtRaGz5RxMY+5bJ0yVgyfLw5CorliWT1ItWQBbPYcAr5vHbU+8TPaCCyeRivUHFAp9RnlDrxVJQKox5KGU4nZMWibXKx7Q8uoFc5nnqmqhytqtlmMrWoNy9xCEnAnBFHtndolykfiXLUOhScKZbMNbrFoyjM7ec7Ff3N02sfxEee5oBI92NimPdBnCx92vcqKALimplMnEsGsxoshZSPKAdL/eiwXpPlzCF9Fgc9Xp3V95sQ48nZE2MueZa9VZcsMruayBWZhAsZulCIxfQ95kS0+hycnpeMTlo6IEG0dOj1PT4wdU+uv8A0olh7f5+pPhXuZNp9O02varNh70c5kbCmn5xakmO0xaZbZ7lx/jJH5s7an6N1n1wX5CSRlOH3kq681W273D0nt1M/wDbtEeIxGxO/wBle29C6EmmwqQYO65YYqIl/QUhyOQ93L2yWvZewN07CyDgFPpjyZ1xAK7ZtQ2w06/FUP6yYCqkAMGK95/KD7dKTje9ImR+/MOTngyhXA6kV7K211DQI1ix2xwt6cVdFQfCWZu1tPJw8Om526XyWS8fYKQJpOextdSeLpyVdZCJwXtRcsVJUcDv5alWL8PnuG3zTTxaVkwxw80gp8qOPYMjsIwXIp4mQhA7FJDAy2Vi7gHHlw46xictI2usF8HVEWaiX10t83FKzdTTx6CsLS6xW6CpQh4rZ0Gr87YfPRHfknS+9drjno9n8Hyk3M6tpnnRCENiwVdfVptLoil6aMVVlEt+px1DO+PvbyFh1mkm9MUayF01rolZ8mbJQtWSsCppg9kOeZoDmHSTC2sHpFX9am9udZmGC6tZ5wgJ3+2/ZUVIZXqYd+S88cSUFk4dFZ6mqt11wFlTAiuqwhLCWHyc8OHAh9muXYsMtWaFbzGPKrbfsL5BjxqxUVZO29CG5MROjK0q5luhdRtxIil/zdKJi/F/YOopGRoPtW6m6+vWyeRx02a8GZwi15FJJtC3eObx4iyPeXzj1Fe1/e3dyQLXY6SUIGF1aNdcKqVKgqhQVlVpsPjpxEbEbgU1u0bxxARjN8e5gmcR98ytny9pYwfPPHn2+C3Edk+zA1hZsbGscyXOc2YlpnMQAeggsFAChBYqWACER+FzM5JpZ/AL3mOyOB42TNjqFyxQJzWk1rgWKrC2sI5mdyTaX8fq8NMxq/YZaCsq9pa4hy+b6qXvW7x8RMljLhMsPZK5KtUU19hM8hYppFXGfKmE8GKYbFl8DHfVs6160e1q1ZDtGtpSwiz1w59YLqbFCVAX4XlQUACE/N4acGa51Su9tS410fNQnPd6iwZLjoPb5u8yZam2OM4TUvL6DMmmxRtY0s2Fiki05uMCv1wAOqLFrPn4Owve5WC0liqiQpC6hVcprLF+2wK8rqVCe8ncbnkoDqVcYquqsZt84zqPWmdWr3T9y1a+nPO8nTyd1JkrHKtywsf1bVMXSXTgtqvmXsOLXlgDcuoUECmbBm+9/uTVGLxV+5hsZSytTK4qLq8eQSIUvtjKUKUbQGLJ9M0biXCSZ1REthjeuNvVBMOC1Au7Rh4ssOOGZwPPBO7Ymh7ue+vGZWeNGzDThcNJRralwL5yvc1OWDB2OOE8o1YGk87n8w2crjZKxJtllxLtmTMOUykVguRTvyiLKwZA/CC+b6acEC3jVgJ2rKXFIU3wFy0aNcOf5dKoq56NGjQhGjRo0IRo0a+ctCF90aNGhC+TpafH79z5fn2O/vI6ZfS0eP37ny/Psd/eR1GuuRduWh4Pfqlr8Rvetdo6+64hrlrz9nohfUbszvPep/4ePugwv5+v+ybrbIr4fpn+vWpvw8fdBhfz9f8AZN1tkV8P0z/XrSaC5N/veC8F4eeuUfh+JXbqnu3q8Eyywb2RoLetizmvYZj5JDZWiYZC7amNBjEgj3T9Thx+jVw6NaQrzhUtFjs3POCyOJMWQIsA3Y4lsEWNdEGHT4T8o4i9I+Pr8dcUN7NBJEOQxAyRERcWYyOUlvvJbK93x+vvq69GkhCpdEdny4wvIYuIU6bK4VOMLo2TLn5keSWcLMnBl1fyz97XKtisCIEobmPlRkRyiJxkLkirxVLYIQI+9A9Gfh7Pb83VzaNEIlU7mMRgLAmNh2OZ1BMWEwsdJn1IZB7zw+nqu/6Zn3419sdmOzxLgGtxprhvmOM+SgOvLetLgLhyEzd7/wCE/J8301cExryTi1/4sPv/ADI/3aITgYVUWGYEGwzzeNhkSJ8+WMFnIZ3E4OQA4MDECg9/qRr0ErAlz5XMaUN49YZLH7WIEgZxfxV8pEmEHP5dWmumI/ARj6doiI9ddX2mV/il/wAwf92lCdrqqup2eCY3s4qSj15b4wZ3njuXqEe6ZWE/oj72skdzBSIBNvGTAe4Y6lKYEuh5bnESMiJdD5Ll+B7Pm+mrHXRAY2gRiPjtEREb66/tKr/FL/mD/u0QjXVf1L+EXBdO5jwk/wCEYDaYyz5RrD5iOy5lpPsSz2e+XMn4zrr7IZ+ggmSd3GD8q3oQh1dUdBnRmZbAEIk2TXG7YEPqjt7eR2J9pk/4pf8AMH/dr59pU/4pf/Rj/wB3SlIXyFiv/KRjv8vpf0pP6zR/5SMd/l9L+lJ/Way32lT/AIpf/Rj/ALtH2lT/AIpf/Rj/ALtJiuWCxP8A5QaG3Lz1TbbffzKttv5eWvq+8KhPwvU52+P75VP/AOk1lvtQr/FL/k4D/u0Dh1f4pcf6A/7tGKMFjP2e0f8ALan9JV/39dZ94ePj43qcb/DeyqP/ANJrL/atf+KX/Nj/ALugsOr/ABS/5g/7tGKMFhy7x8dEbzfpRH35tJiPX/4mvkd5mN/GFL+lp/WayxYNP+JVP8qx/wC7rj+x+v8A4hP/AEQ/93RijBYz/wApOO/y+l/Sk/rNEd5GO/y+l/Sk/rNZP9j9f/EJ/wCiH/u6P2P1/wDEJ/6If+7oxRgsP/5Q8eW216pPH19LavhHpMzsz4ev1tUrjIxmRWx9y/WGwyy01sHIQtyJlhhzqtVbU+sfleCAlTF+xUM4mU6YAeztePWEJj47bLHf1jafo12zhk+nyS/T+IP3tvvfe0Ls1wblKoa3Qx1NFt1LJjYeYm5ybOTG2N4FJYQ0XNtstmuvwAwWxfyqt5Ijd8pBd/bmhi76EHUyteg4VUyQ0XKYRKrtC3XRaUdlZvUt0A5Q9RZpZz+V6T7SX3h9pE/4pX0/UH6YmJ+j707a4TgUb79FUzvMzPTGZmZneZ+Hx5aAnCqOlIj2x7d1LlLKVMhYx42MfN0dhuoFdtteoNkGUAlqzALJygCCT5C5Z/4v3w7u+7T49DK67eSVcUbV2yK5bWwEN6d/yMWRk149j6bMVDQtvMvfbrxPPko3bKlVAH4CMfyREfDXWWPX9ID8YnfaPjHHaf0cR/mxpdVpPnCVY/j25FvaPotOPit7W1sjcZbq5CLSHUmKXDGwbq1lFyfOVhiCbYVUeTF2QC1/CSTuhPCD1UFHMJF/PmvpgsYHpCRcphjWwAKiJmI3Zwj1PgMctb8/Lj96Pyzt66Brj96I2/JqtrWmu4uaYH9KQzSoaIDO3+loD7OKBpJCwyF7iaNiA1xKmQIzM8gj4cd9SHsTkgrWYaVoIF1cIcMrbsDAvAtcciCIPdYx+B+nW9wkDPxiP9WuchGlo2ppu1pXOrpPjI8zLp/paU09v6Uwr98LiQbSnnEFG/BFkttuPpvuXu5aj+P7QIaqR8zAcoWE8lu39l/ffj0Y+P8A1a3mcfyaJCJ+jVwavQuPlD/j2/0tLFDvHr11DC2LkohzNoB3r+/EHMb+Wn54V+j+Tny+pxmnmZc+aWfLyL7Tjs8wPeGybj2kSUO0fKbfH6P5v6CtGotZvGRshNN9P+3t/pfn9yKRIyghdM7lIysfSJGEyE7xO5/wo7xt9TbWSO1MoBm8CYwqeJeyWdQZmR2b0p9m2/ycOKfwQ1vs4RrjCYiZnaN52iZ+mdvhqrNiTPnffWutPSQYCNXPp/pIJ9je7WIrhnAdZWlc2MfZiXHKFnBVTrkS+rC4351gA5GT+Zt97Tot73sUPzsnjx3+HK6iN9vjtu3UrYqJ23iJ2neN432nXOB1aNbqgBVVR+u4uhQue+DDl7YyuNmZ+Eeerzv9PwhutbWG7VUAu5phXKoxYzuTthyOI3CzZNglBxLBYG3pEx97+Pra1r7p0KTa3QoEnVn5x4FIL3Jd62LCh2qKw2ZqdJEEFWxC7NqBxs+ZVj5h1Z5v6YjxMJX7z9s+zlqRd4neHiH9jFRUtdGUoxlmtWyLlWMkjy+UrkBvE3myTA67RJnM9hHl7+PHTsa+baIXOpXD3F0bef8Apa5ew/eXVTfxrAy1czDLoA/lIKDr2AdWdM/NhYcGQzqz8z/r08098uIj0LK40Z9fSb1eJ+P5W6mujXRztZOubgVjMR858AoUXfTh/wAbYz+n1/1uj/y0Yb8bYz+nV/1upro0xRMOZQGx35YQfnZjFj67blfrDEz8dvV2uSe/LClG45fFzE/CYv1p39dvobqeaNCDq7J6/wClCT77cNHxy+Mjf4b368f/AKXXZHfLiNuX21xvHbffz1fbb7+/V1MtGkSKFq75cPO/HK42dvvXq87b/wAjdcT75sPHxyuN/L+/a/p//N1NtGhAjb99ihKO+PEEQgGTx5mZwAgNxBERz6wIjDJmZLU0H/iNctGlQY2I0tHj9+58vz7Hf3kdMvpaPH79z5fn2O/vI6jXXIu3LQcHv1S1+I3vWuwNctcQ1y15+z0QvqN2Z3nvU/8ADx90GF/P1/2TdbZFfD9M/wBetTfh4+6DC/n6/wCybrbIr4fpn+vWk0Fyb/e8F4Nw89cpfD/7FdujRrzlYGPjMfGB9Zj50/CP84t9aVebr0aNGjQhGjXUTYj4zEekz6z9EfGdduhIjRo0aEqNGug7MRvvMRt6z+SPX1L7w+3465NZERMzMREesz9ERHr66Ei7dGujrx/xE+n0+78H9OuYHExEx9Mbx/JOhC7NGjRoSFGjRo0JEaNGjQhGjRo0IRo0aNCEaNGjQhGjRo0IRo0aNCUI0aNGhKjRo0aE1GjRo0IRo0aNCEaNGjQhGjRo0IRo0aNCEaNGjQhGjRo0IRo0aNCEaNeT7YB7o5RuEcij6Yj19dvve0v5uuybUekffnaPSZjf1+n9GhKu/Rrzebj8vrMx6DM+sb7/AFfya+TcjeY9Z2iJnYZn0mZj02H1+boQvVo10C6J229d5mPT19Y+/wD6tcuvG+39fp9//uzoQu3RriM/8fDX3fQkX3RryjYHaPX47RttMTvPr8PnDr1aEI0tHj9+58vz7Hf3kdMvpaPH79z5fn2P/vI6jXXIu3LQ8Hv1S1+I3vWuwNctcQ1y15+z0QvqN2Z3nvU/8PH3QYX8/X/ZN1tkV8P0z/XrU34ePugwv5+v+ybrbIr4fpn+vWk0Fyb/AHvBeDcPPXKXw/8AsV2TGteveX2jgu0va9V+7218vSHEzTHs1ZyBJpA/EA55GqmR1qxkxMmPmlwE9QjLnyIo2FEO+qcwfY7F4/K5y+V5XmM0VDziXOQIJijSiqsVhMiwea56h9WS+f6emtC9waMV5uBOQ8UkfZHt5l71rs8nIW+0uQN/Y1d5iOy2TBBmZ5N9ZNy3J3qq2tCt0V2XwyWeb339nsC0O0+EygV8O4KPbi1glnk35OgzLH+yVtgxUuj1pTkhtHQSItbXq1LoyTYEmr9R6ko7J+FfDUJpzR7V5CmyjjTxSnV72M6jaZ5G1fkXdam8DMTeKgJa08BUHzp5ak1/uhxxup2y7WXPtnj2WZq5SbmLK2NW4AhYoOUVL7X2K87SxfWpkxLZAhPYIHSY/ZXXinbGnqVOdo2Q/sjmMrT7QdpevhhyI1q1i3bxl/Fu3S4aGYAH9S/ao79MXWWNGUs4+7bnrv738OWJDskr7Z9rbiMrdM741cvkbWSaMYrnA1/LnNjog+ItNSgPm9Xhwj4XUruswUYjKYiczL4zJ2mZLIWMjWbfsOtLFRv5TEV1ytCk1kpVXShalbwr50nJs/gcJYs4SyWUQJ4I2nVEbtaBbLqhUyh0SUzMQspmOEh7vyaJ3daXin/tPUk6vd6VyuvtAujkO0qq1fLdjVoXnbVgclWO7cM7sRNkou1aFhEIV+/OSnfLD7+Wry7AdgLPaZnaS5azWXqPrZ3JYjFjjMjYqVsWnFt6K2+USa0WbVouZ2ZuRYFijWAwjUu7Y90eAvWb9tmYFbMk7Cvtim9VgOeBcT6UJ6gmShNk/KxvPOPh0y9+uWd8LlG+3IPo5fI0KuYnfLVsXarzVvGQis2/K17BVH2FxC3spmkrAfO3nedGu3nTSwjMEfIqu+9zu0cN3suM9oM808xfGpkbFLL2qVWyKcU55PqVKtgqtILTaot41vmrY0YLlPMIz28xlgO0dnFQ3ttkKlLC4okhhM0a7CmsZYFtjIss3qIvfbhUbGLXf4X2h7Ok02b7gKDiwJLhtUOzrYZQQkhhcB5QqgoZzFkysFlHzDgvZ86dYftn4Zwt5N2WTlszi7VmvXqvjGtqAtqqpGxMMGzQtyRgTGe8Dj2zx+GnDHELmqMwPZBt/tLVxLMj2qpUldkVZAazs5ZRfG07OWwIrza1pvXeCtkRM2GcVCAe7gHCzvB92sukztDirdt+RDCZg6VTIWChll1Y1C8UWXxA9exVI5WxnAPnDrJ3PCdys17o9oO0C76MfOMm4D6EusVptsuRFjqYtqTYLDgOoCVlwUH085Owe6Tujp4WrNSnDZFj22rD7DjsWrVx87vuW7DJknPfIjJl/q2HaNLCCp9o0aNOTEaNGjQhGjRo0IRo0aNCEaNGjQhGjRo0IRo1wI9v92vhM2+/8dvhvoSwuzRo1xP4aEq5aNQ7tb3s4yjMjcv1KxQPOVtesW8fomEyXVPlv6cAnWH7GeIPDZB/lqd9Tn8ZMV8TWRiM7FKuqtfV2+np89tc+MblI6wugpvI1g0xzxh1qydGuAlvrnp4MrijRo0aVCNGjRoQjRo0aEI0aNGhCNGus2RG/wCT70TM/wDVrnE6EL7o0aNCEaNGjQhGjRo0JQlZGgxBZNtarfnOTbysWby1smYx53xZTEo6lnzRJxDxjEJGvbSuwl/72T++Fnhcjke0FoDAGZcknTehLIUmuywBz2vTFt4Hjwcm1NdGAs/IoWI2LNPjXMTJLrGq+JAitOQdKISi0qux0W56keazeQwNYxVFaIkfPY42O3csVVD57uaHQZ5Kff8AXJ+WOgsQhUJFYndcZZMrvlYASVi+t5ByZU9bjpqM4jmVdS/ltc09YaLWSJ3QgbtuuLsB012UmcjNXMY5Vt8EzE1qygGrLbol5y3Zevm+Rp9DiOIxeSz6kYuXOyjGHYxzrVZioi02LNGqd6qVhWHbRgKbxsc65zU6/N//ACjS6HGbXyfeiZEsoWdYVtZIrcwUwyFYib5xeiajnVRQ0hSXlCYfIZLZy+onXl7mO9qxkr11LU+XVXoUi6HrJhc+2/aPGXCgzVXcSG/alBolleuUB6ypJEYAqFHu+TtZlq96wdObrAHH2hBSUGddTwrtsreZMolXZzCuaAaGRrnXtMWs6WSFquHgqYzL2CrD57OBVFwIJq0prPakGZmZtWl2cZD12WQmiDeAISYWVGtK+Ys1kcj28yYZW3K5MaFEyi6FiKtfFrA8VWtrNV2FFkIvDkXr6sMByZqNeXRJsVwb6sV4ibBoCRxrBdKa8wtjLZT5ptzIVSrmKsTYuLSsMXZZL31Ad76yzrqa1spRC5d2PaXLTbvsvdcl+VWwawVWQK2gKyUqsbhQjzT0yZMTXfkxJ38IzHdFaLVdV8pmLXll2hzEpLKU2kEU3cuS8z2dsCqy1mGo/vVVYrTmsUpFX/0iqGuGv8jZ5d91qbXllUeEsOnKeu3ZkIm1ggyXmUAiBrPqozodEAs2gadZnOEbTzzXZjvQa6tde6suq+q/ozVa81NCYOJSFuYqwS2Mlgz+9PtkiyJCdZluHwOlQqqytrMXqJdQb3mAxCxM1VGVLKcw3CZ1d8qsnVrSzd7MaCDTLVdXpbcJ+LP4qI6YbdSY4DtLOXUmNo/hOXrz+/v66oe/4k7IKWQ47qOeuqSUwd3+HdGUY5cpRhrF+KoIxFmUOmkVqw81g2hjRZzXfFGxzADkTCSES4HGxhyjfiUQU7HEek+ulCaV7dLR4/vufL8+x/8AeR0y+lo8f33Pn+f47+8xrhdci7cr7g9+qWvxG9612BrlriGuWvP2eiF9SOzO896sDw8fdBhfz9f9k3W2NXw/TP8AXrU54ePugwv5+v8Asm62xq+H6Z/r1pNBcm/3vBeDcPPXKPw/Er4xe/6J30n/AHyeBAsjeu31ZBXUuO6sqs1pIV/JAvh1FOAyjYNo3H2j6eu2nG15rC94mNo9YmPX8utC+kypg8TvWGsNI3Gjqhr2rodEZAzhliCtPveV3LuxFnyt2smCMeoli45psL5ceohsfUGfitkC4J+I8JAtRmMUv0gVhHrERELX6TM7fFkcf586eT7IpiZmviiiY9LFlc7zO8wxQnt6DPpurSUY6NyHb02kJ9fy7T/t1jb2g2jWAafl0L6F0Ff1b+xp3VUDWOsCAIB1TBMK+e5zwWty9FV/zlOsl0s6IxUGwTFgwldU55rAOZrkoAOXoXx1N7H2N1kRPDKVjLaZECx0LEpj4CTBcUhE/hiEz+TV/eC9f/m3Qn75X4/1ZK7/AL9XaY+nrvMfe1paNpQLQS3FeR33CzSVOvUFOo0NDjALGnAHKSCVp27Z9h242y2lZSoLCZjqjwE42L1AlyUcpScfMP05/TEaynd924firKrlM5rmBixsLEYGyER70tVMdM4MJIBLgJARQQlziC1bnjcrce0LZ9ffQoTP0x6FbHb9GqLQ3Yon19swXp8dhnlMR/G9NVD5bXgZL2SyqDSdjTqV2t85hLgB5pJaNi2/9mswuwhNhXqp6gcufhuDQgxnb+SdZfVe9wM/8hYb0mJjFY+Np9Pm1FRqwtaZoAAAXzPVbqVHN5iR2o0aNGnLgjRo0aEI0aNGhCNGjRoQjRo0aEI0aNGhC+TqivEb4qKvZ6VJlU3L1hTHKqCwK4glcwEvsWWcoSk3EtACCnPawtlqbwPjeD/h976P9etRveJ2n/ZF2xaJQ2U2szWxC49vBVGs6pWaMFEzO71Nyxl6HsVoB+abOnFuHEN83NS7ahxpM5ASVmPEd4qu0F5gNnz+IxlmtWs49NdpJW9Lk+ticlU6Z25Mpn979dQKHjPReXBy4D3ZeJbN4totqZKw4ZCeCr7Ll6g2InqNCZfYPozLOfJ6WAYe/wCj262TYntVZXmyxnIPLR1YWqqlIeVSishyW2lFznhB2VVa7kcPWuoDSW5GFK+KPNtymC7SQ5Kpr41NK7jmEgevTteYcswjnC4C2isG5RE8lrtp9xkwxDgWlpnXJ6FPpvZLQaYiR24bUx3h777U5/HjeUHRYLGV7daThpVrKpiCVJiIwwZCQYLIj3AYf6MH8QHi1r4m4rDJQVvK3Fo8snYejBW3xTrw6ecSReYJcmr5P5A+fMdVF9jTYITnUjJwAHQMV7R0V9Tz8yKp35zvx5nuAe6fTfUZyXYe7ke8WbAVrHk6l8CZdkJ6MqoY+m1gCzj0EmN5VFJdNkvsC4BIAFT5X3lxaOlcH0G0q72O2E9fN1qR5rwK379yw6z2gUy01gldYOKsK5skIJfSkcolMdNew8U+nEA5L31Au2/g5s43GtzdLKy2zjZZa2s42MNvKi3e1RTwaJM2E4OwVgLA+nL38oc/CY22pj22rC08E2gSw7XXW6WM8zF40uBQ1gRC56dYDYKghwdUgUs2Qp3di25icokjXYPIUFzWSN58rfbSljlXeq1S5qMtWiSbIWshAUJIupuYa4fhwf8AYpvlC5LOKLhqbQAI+UBTzw497687iauRCQ6jViNkA9YVbWMQ9cTvO8QXuH1L2zHrq09UP4RezBUcUumbytO6NW690Egq8OvIFrK9SKkCkK6eO6+n1VEDAIHM94KvjU2mIbCparWteQ2Y2TmjRo0a6LijRo0aEI0aNGhCNUP4mvFnT7NrACSy/kHgbKuOrlAsYATsTntKJitVCd+T5A/hOwnwLV6GG8T+X8u0/wCuNaM++7vTblspkskZSc2Lc+XTJ7RCKnUTjq8cePTYrpPngkp67HGZGHPXCrU1R0nJSKNI1DCvnt/49O0bagvXkamPOcgdRqk0AlNcBhzuRXbw3IcRp6YBtVXyKOXHY9SLsR9lEyCMfIXKSslkoP5NstRi1TXlazA7Qw6zMWtyPmhaK0cent8/2yjui8MVGiyad+nSyd0QJ1hllw2VQT+IuXWxItFNSvWk1qm3eMrj7EsiB6fTIPV4lu6WpmqOTcVetVy2PQxybaGqOMgmvIwtN6KiVTYjpVirhWtI5VDWcLNoMkoiGoW5uVubNpDYCtzws+Oep2hYFJtZ9HJSqWcZGDpWemAGyarhIjE+BdTyz4Biw+PPiWmn1pD7Vd7NkxUVIvJpGarlNSUKYVtLl1lTLpmekaNzAT9fkZOPbz463apGI39I23mY2/LO5T/O1Mp1A8SDKr7y3bQcADPgu/Ro0a7KAjRo0aEoVadpMJhqvUO0ukiDWyy43wAxCU2mW3NZDJgeKrd/q845SL7fLb11Ba9HsxAjWiQgnHapjEuuSRPTk0UXD12MBnVjLQiqqxLBMmKlS28YOAmPer2LG+ysobiazZW4ZQahedup18fZsRXDzFeYMDrVV9f5dQC6YNMyxchDsh3S20MxqahS6v1hfftugWDClZcc1xlc3UmBtnrpW5aL/vNI9KsvrNBhTwvdne3nZ4q9WDSpiXF066V0mrHaxNWkUmuQX5OJC7TMXWxrrJFquSjOGAyO6vmMDibFtAriodTyJPbIOZLYstymRCAYJNbaYs2ZO/Z5etdbLFt26oM9eLHdwx10goL9JCx4JyJox8JmwpXkoqwRHeYabI1qiaxOY2ytgtLhVr+3hk873VeesHkaWQULZet6JFXmq6rdSpkcNbE+nZAG/va61XGBWabNYCZNkF+UgQpB3ifa5cPqXK5NTk1Ndbjy02FvBZY/Hypi0iywxjIs1gWIJP2rZ70cQ1E7GZ7NiplGIUFcoqi4ULeDGm+7XfVjzCIFr3su5Ks41KY6yb8utjgXNuSdne2nd9VMKtWLFRTU1vL01XFjaFnTtY1iTdXJ6DsgD6VYCgDWfIw4sSUesN7O+HVTn1LyMlzrJVUXTXWVEJVXrW8DdGtUYmx0E4+ftEKxrLVtE3LPVbbmPcJFNav2kssscVVTLGwcnxrmBIiLcMPgEr94Dbwityr8xOxjWDtyQQawPZ7O9mfL3U1YWtNjd9tcVLS2PmegAwgZUt7H8HVAppq8jAXUfLq4sq85Lge7JKrGR2ebCu1oU1UyEEpTb2ZuQ0Yjkexsyj648xj/AJr/AJ2o1Y7k6keRrTaiHoSqKCj4nEljnYBy39LqLNya9rDVDcKpAuFk45pIhKBKuh97s3NNiulJ1CrU3NBNa62wxNmzbKtyhIMuS7q+blqeRWRCbcvSpcFOrzqCPAeHHhxjhx248dvTht6cdvhqkcv4eheuQa2sxnUB8eYrk5MW5dkjtOKqNxUmu2GYsiKeuvoTKOoV4ZOCunGVoBYAO3ERGB2gYjaIiI2gIgI9PoAeOlCQr3aWjx/fc+f5/jv7zGmX0tHj++58/wA/x395jXC65F25XvB79UtfiM71rsDXLXENctefs9EL6kdmd571YHh4+6DC/n6/7Jutsavh+mf69anPDx90GF/P1/2TdbY1fD9M/wBetJoLkn+94Lwbh565R+H4lduutnw/Rrs11s+H6NaTavN0pf2Q+I8ljJ+n7YTH6CQUTpDaZTHHjvJTAzt6bzxiPwvb82NPb9kUjajjC+gciU/lnhUc2f8AWKyHSKfCfpjjMxMxETPsmYmY39v0enLWL0l62N3gvoTgb+m0t9TDn85Nx4b/ABd47GYtNC4m1MobY6bkJhq3re0rcNiCaJhPy+xBw+fHp8NWLlPH3iICZr1r7mesgJqXXWUREzBS03TsufwhAy2+rqAeG/wpY/LYpl24dmbFlllEGp0qhK0PNQ8QHcJnde+5RM/6z0v3ev3Z2sRdOnagd53ZXcIwAWkwU7sWEfMlQ8esPzVkWratWuabGlkapw3BZ+jovQekb2rSBeKodJGtDXfujDYdk/MLy95Pbt+Tuuv2PRj4CeMRutSwHiC0l6dVQR8G8FEX1/XXHu17DWso/oUkssM5wJNXsyqjffYnvjgICMfwgbGf1I922sNjbvSMGwIlK2qaIlHsPgyCYDI+kTD0/l1tH7lO9SplqYPqj0eGy3VZGBZXZAx8nMR7SCY9y2B7WL2kfyQ7O3NWsXufjzR14q709pR2hqAp29GWkagMwGRls27xlmpZ2RwUVa1eqMzIVkqQEltyIErFYkW3puUjy9NZ3XUP07/f9NdutUF4AZMko0aNGlTEaNGsN2n7RJqIbZefTSkCYw5iS4iMbzsIxJnP0QAxJFPpGmudqiSlAlZnRqns/wB6duYJaU0U2XqtBTTauiTytrXsqGV0hIGnzDEA8V2OosXcp4cdKZlPE5kady9aZdPzKzZVmicrmiHkRszeAkqM5BtRQLf1Vls9nVAOccdRKV5TrN16ZkZTuzVtZaMqXetqECOcwT/XOVsU0aw3Zp7DroNy4U41LJq4mJhbJAZMImN4mBOZjeNLPm++C3mr2ZxS/N47GY+wGKm7j7C15a9ljJZ+UqtsCSayIrS03Mj5eNoIXJ+vMlVmrjBTUtbAxJFMQMRJTMztERHrMzM/CI0V7AmIkJQQlESJDMSJRMbxMTHpMTGk8y3hB7MXTTZevM2n2bVla12spasMYaQb1KxvNz5GrPQ6U2E2J5cxA3EJHGqz7Q92g9nTwuY7PWr1fEW87Rr5XEtss6KCZeCqQoUmAIgWxdiscOh4s6S5AjD54TC6cWOfsWxfRo0aVcl0v+H6Y/r1ph7uMgNHtPXa72KT2qFbGyXEAW7L3a8EzfYAhJ1ebHH9BxyL5utvvbztkqhWOy7eRGYEAEgFjnMKF166OqYLJ73EC1QbAHkfuII1qd8dHZ6F5q2wqp1AyQHYeg1c56ldkVrZIICHqg4RXdiYCCnqOPj82Th1hirfRzHO4wDa3xTzZPvDt2qhq6vkri2+Wc3E2Uk1V1NC/cZSYrK1JApVVX1J5fKRJV2h7B6mqm8UHecDOzGVqz0WQpuCR0zeXm3xZdh7i5vWd+mb8hVB5Sa/csRgiKOU8fL4b++vG5LFLnMOuVcikHVLjlNsEdhaq76wWX+WWxZ3/tePA7pV1vJcBxsAPyUqx4nvEanK20VsVNpGBpGskrsMOW23DBLPIMN/XsMGUEFasu02fL10KJcJ6nRXymMU0UnF2IjEGdxTsfYycbBY3KW5AxJuSGtBs3gmDUppkigY9kbWbNoPZ/m/UjV8doe0qMZ/CZKqmsy44D9yVupnkHcRbBOYwDMMg3j708RGyXIeKtaze6bvssJx1KgF4lIqIs8F4qy+iQtsv5mxpjMmyy6ZkRe7qCoWH00LIuepXUwWLu2qk2qdfyeMt49b1kCxDlZab8jLmcI6w10OVZcw5+UOWFPuLUc3zaZ4v7xVlU0dWunPuRADiTE5YmepNx3gZ1VllWvlk4bz6iJQBl63ThsnSY+2WOg7UFaqm5daocrDgyZLkE+yD78L21yL2xaZLFpCsCaqF15q1GvuLorqCkGExrGJsturNhe0RogQgkSIigfev4ki7Nv8nNmcilg3GKt2FNUusa4W3yXmaZ8bkpholMDX5Jhi49ec7fe8fvIfbx6snTshOTr2FWKdcQegFKdjLrisB5sjOzGQxcwpb3Lr9D5wKRYhgHPFcKva0kgAZ5f42JveyHZNFNMKrhAhBTM7bzzP0EjKZ3nf022+iPbHtHUj0rHcv4hjNSXscVvHWJCBa4g83QlvGACyYwuHLCS6Z8wCyopDkLILkLSLL0jeNvyakNMiVCurepRdFUYntXPRo0acoSNGjRoQjRo0aE4I1pArdkIr3qte0tYkrtKiq6J22X08nCmiEl8/dVs5IvimZ+pIDrdL2uyTU1XuQmbDlpYaUDMQTmCEkC4mZjbmURGka7+PCrZymQdYwdnF9VrKlnLVGsYg05WoXLzgJFLTJNsV9F1cxT1WCDeZTz1AuRLmKdbOiZ+8Va+W7MmORexJCBWb7sg+FnI2mwqrFBNVlQk/KIrHMX+oDxgW7N4c18tR7A0FVgYw3qbXtdFj7IKlYlUVXip5o9xPrWLHNj7Bz9Zn8T247vMygZCOb8dUyFBjgtUiYNwl1TYyum2u0iqq4B26bjusZ/A9JNNkGuPn6zfZnJXMgVeq1IJCzxV5daLCROnVstLI2hhsA5dWK40K6ElUrx5h23ygu+T5Op661FNwZT1nDDaeb77O5K/DJ3VpzF6pj2kuaVS3JZQpIYUpcXrZVqMkzgB2LrlVFjCv3yC3uKdmLDjuKRO8zHp6fGPTeJn1mJ2/iyOq57d9sMXiaZOtShNaWmUrgZmXOM5YzgiI+WdJ7sP2/Ie8yniBTro7mO82nYrV6q7AMsprIW0Ylm5ktIwTVFYWpllB8d12OPyoe77+utJ1Kk7itYaxxAnHqWartfWmq1p1d2A+9qtbRrhtHx1z1NBO1ViNGjRpyUJNu1nYHPNCTXj8iFoZyRU+GRH/AJPt2sMKaxqunnJddqJui+GtsLp9bzCCjHx0OYTOlhswprbHl8kwQylhzhTcUR3qk2ssyr5eLGS4hUTSs0R8sE1T5yI8T6HAGSY3b1/LEfpmdtLNmu/a3WyLarGIeJ54KS1MTwNdNruzNWPlOutcipmYfPqBWHubU4JYlFl2mEQnys/b7AWG4/LJKvbF9mzRtcJszLnmNTFGxipG6cL4WKz1EPJIGSTgea55Ogl3uozaAsQgMgKG5CzcmtXvSbi69/tXYXFeCytVaGydvA2G/vxdcpDdgz0na6u7jv8ALraWH63l4tuxjSsTZOWkFivb7L1CbbrVLKqthl37atySHD09676Br6Y2Gc5JgO/uy/J42kw6Cwt2GosrgGDYeIU805luqZ3BAEqfhlVyGE3iXDiiHI9IBMEYqY9vOyFo8mi3WWfOFUapO68riVrzdK7bXxBqomSx6rJlumQOd0ci6jFMpzOdyebHF1FVkWl2U43o9BWTYoFvXhs/0gjpXhSzbJzhAIj5i1kdY5P5Qwmk97F9NuxB2U2Exm2UOj02Ca0Wcv2bx6IhinjCzqhkbn8IPJxGohHgs+fzH9+99+JnIgVE7P2vs2UiJF5YG+VoPEbCKl62crrm5q2yx6Xe5PTV8py0YJcVKu3PZWwzLqtIrWmAdagKrqL0KqIJGRe9sXkRk6p2kEloEtQ07kH8oPJG3vhWH7t8uynUlsXW2VqWm0yxZlTXJPI4JuUQpU5V4/v6vSyBg1zVdLripfRWfE7S7wO8t2Pt46r5c7M5DqABLUU/LVOk+xBEMkIGeOi3YQBzPVZUhQ+4wjUDwniNZKOo8qYmxDnomWdEHOGvg7C6qTl/CxIuybKcs5BuVfbj/C7qYSBRvO93udOtEri+Kyr1VlWGzPmPIF+yVSKEx9uK0nkaCMhhvOWftjT6zqs2IvZCUSomlxwFCwhkzJ8B5SUjM8to3mZAFgRcvpAAj7wxpa+0Pf8A30zkuRYtU00utKa2Hwg0jY7UhVF29sRAiXgKZk/fjyfa4L+bplqL5IAKY2mREpiJ5bTMb7cvraUJpXr0tHj++58/z/Hf3mNMvpaPH99z5/n+O/vMa4XXIu3K+4Pfqlr8Rnetdga5a4hrlrz9nohfUjszvPerA8PH3QYX8/X/AGTdbY1fD9M/161OeHj7oML+fr/sm62xq+H6Z/r1pNBcm/3vBeDcPPXKXw/+xXbrqYceu/8Aq+/ri1u235Z20qniH8SuWxeRZTp49Zr6STGy1FlsGwhkigJREK+SAZ9hfEvv60DqrGekVhrCxq39XiKEa0Ti4NGza4gbVjvsiF4fJYtcxG7Ljm/HaeK6piYx/ni3h/p/f20i695GJmJkiAikdp5SRBJzG34XKeOp93odtMrlrA2b4uYYjK1LVRapKFzIzIqHgRlzmNyNkyX5ePpqHxhHztE17Ub+kzFZ0TtP/wAHWYuHGrVLtX54T9V9AcHbJ2jbVlKrUYXAk4ObGMyM1sT8DmSE8HC4mJJF26spiYneWOmyM+nw3U8Nvyeupr38dyqM3TmuyZByj61Rw7QSXbRHDfblKnfBg+vP+UQ1r/7p+8jM4gnlSixA2CgnIZjnOSUwMAJRGyzWYAEBvE+76Y9Y01/hq7/MxlLzK1+mlSRqdYXKp2asiYsEOmfmmEB84nnHT9A++fx1Z0aw1W0nDo7V5hpnQ9xo66de0HtLQddpDhOwkRPPI6Uiubwr6jXJtj0WoYSmjIkAAYztuuTiClbNxNZ/W+rqady/fC/C2htV4nh7RtVZLcblaJkiGJH2Q1Ymbqsl7gL5Plwc4Tbfxg+H0765yVAIK/WGOsqNxK7WHf5OCgT3cnciXyAt9uHt33lHk9l7cEM+WujxmJ3mnZE/SfWCjoEMEXzSH3agXFCrbVQ+lJB6Y+nOvSdH6RtdM2f+q5o1hqVGkgQ4DDA8+YIy6CFte7D9uquRrrt03Q5DYiYkdtxnaJkDj4gwd/cE+salGtVndr2wzOHMm0V3B58uqhtayymzed95rlChBnH29QPXjERvp9vDn3iXcnSZYv1RqNCy5KwFLUwaQgZA+Fj3xvvP8X0jVvSui+GxBXkGmNAO0fNVj2vpzAIIkdBGBO8SFbujRo1YrKQjVcd89jddGvvxi1kqwGUjJR064tyDAmIiY+XXTOtG/wBZw8ffw1Y+qv747cQzGhPpM2bTBLbeINWLvQMbenu9/OP8zb6dVOlnhlnVcf2nuXeg3WeAOnuVW1O2h1XDariFjzN5iWsMuJV8Xi7Y0sjYFUwMycWIuW29MWNsdVbOTF1pUnzd551ntyBhi8ZY8osrIW5QqbQWcfdUD0WYZEMkSZBOKwbEqOvO8df5fUp7M4dLMedjpvZK72UZKakgTXInP2rUJ4GEc4MYFxVwMGsiOmPPltPr8gp2PyttabS1PrZAOnaE1nAMG1asGquwVmvq3Xl88mTMAHzBEICJb0m/g2tZ5o4prhq4DWgk5c5gk7VKaSHz8ubHmVg9is+bashy3sJgkjL5LdvGJ8u85kFmUPUItMwUMcurx+Zqm+zNmril22Wqzyi3aXdyQlW60xkDpnOSvkhvEoR0aZJCKPmUfvbdPmSN4B4+xvfljcclFnI2ZRFvD4NIcoY5jrX/ACquVqSlTGS6RTO5RHu2+px1CY8ROE7U5O9iqVp6HWKqa9S05ErBtzHtdaWFfkfOeQWLK7CXrQTVqKAk/fwnWN0yrQpuBkkCfejEY9Izy5kzi9R5Dht6lL1d5cCHQyeNWuhj0NI3KoXTryyusXq5VrWLxy8d+9+b2wtjFL/gzfwCT1L8lJZBgUvJAhdS8fQNjBfBIq45dZrpVXFqEtr2shKEoFhwLK7XFC5W0NY/M4HJOB6AoCuXWshDDsW0jUBN+nAG/kHXbchRG0wTKapEIQJdCPXS0V/G63GZmMfThOQxyEsx53TiSdZur+VfkzNRnBw+6yy4+kfGyDA26Br5HLfXYwazjh8/ouwpuqGKYxWyIF7REevpG3x3n/XOueqP7ifE9TzfmAEJrMryncTZ1BILJ9OsXUkAgTccTAq+dq8Y10p1G1BrNKrXtLHFrswqj77OxrXlj7u3XXirqL3k4qzYYTAkknYRwiXS9NWxYlKwWfNnH5s6RbvL7BLyK01GNti+hKUvOrUZdZXGrjcPSfRVLbNdFRhWpybyFh82JeD9jEllGwzvp7QlUxGUtBMwdfH3HLkS4FzXXYYcT2ngXOB2n7+kPtZhrp8redYJx1q+7yMmuPZcqljXF7ve1DC4/Ry21xqDFbTgzYG6eXudqtaQMJxccgQJneRA+alnclQxmBqOoIOqsntd5uxkKxWwY8KaAY2TRYqDTTYgzXQxvDr2pB3AuLZbXW7vg8PmMSsrCRv0p8qvoUtlOsRK6VfZt+tLm9NjrvmxcjHWnFSV0W8A4cNXblbM9LhDmVS5gEFETB2t31EQuGb9GCNkRU2tKsLldhjuHJA6wK+0fSUl4s6tX3IMTDabCzGQA5Ycl0KZzPlC4gfTL2RqE86whpxWqp8G2l9TzzngNhOaobs5i0w07FYIBNhnmEh5grAAoQABBZPmWMJLIPfnv8/3alPY7tC1bCrmEzVved8o2FSBjdhHVamxMAZtNggDFlPEdvZ8wdeXJ9lCxGQ6AhMKuIffWps8nrlVo0Ke0IjisglUzVWPt6fqfPbWT7tyCweTZyYDVRxZJTBElbKDT6iV7Rwi0wj630kRFxKPSIpajP8AV84Y4b1BqMDKJYzZPRz7ld3jBzk08P2XTQXWHzlew8FtrhZnkuhWsRMssdTisnN3dAfviyXlxEvk9tXV3t5RT8JgL08JbkGYQiueXgZlPSm46WiEQQoKvNg5rz8moZZ80RnS4+Oy3Mj2WR00zXVilhK2nMLlrzoTFU2jEcQsprEvqDHzhj+Sba7SdooZ2S7EGLT2YePUROmAYRfaPIInlI+nKWDxjWiH+7csXbiatLeVQ3dB2uO2uyxiehTyVlsJUsODtoCuL7TTIloXNh6eqczHFfzB6cmGthfcd3hNyFUusazfVcVWwxY8BfPSU5NgA5zKxchwFK5+afMY2gNav+xnaNVfIWas7Bu4kKICMlsdX36gwJkQhM9WPgX8u+m+8NOfKtkqnIi45NRUTVy9guVWbkqbZj6zOgu8kj9N46Q/4H31trcEVCHOOcDatDpW3bcWnGNMuYTOcgfPZEc6dHRo0a0K8/hGul1iB23mI3nb1+/ru1AO/TvAnE4bKZMQhjKNGzaWst+LGpURpAuPrAGyAEpj6N9ITCIUV7WeLvs9SbbrtyEMsUgYx6KtexbMBUzpN28shwkSHfIu2L5FgmLelIHxg/d99kQ7OZB3QltukUycAV6t0VslcbnMEs3dOAiJkuv0eMRPLVdd0fYFuNqJA1jGTtEdjIPHib3W7Bk8VtcXvteXQxSOao6XLmZqX1PbHu23hy7P3GJfeqV6TiZMEdZqscTtmbWVMCQNJsWEwDDr+35T0bt8/hUfhLStWNDMNIP18TswH9Y7MU5neP3jqoUDvbeYXIq6IpkT6/XIQX0/XYwmC6k8N54QUjz0hY96uZRdDJecnIWUiStrEytUg3+EWClwCVgc8dnpWBhw+fxk94X2X7T2/KvxDnHYr4HI3KlGxL5MbCW2QZAPAnEB2qikAaIAp6abP4XPn7PX6S3j6fT/AO+vPNO6VeyqKbHEaucSO7OTAzwlbLg5oa3bbOfcNDi4lpBAJaBtBMgH3TKafCZUMtwvYol12ZJzQvU7huDo5KvXSLYW1BEdW47HgtvTBQjaqLh49PrMceY7P3lYeveydtsWiKU009MBSFqwtrymvi0cplQHcdC5e7m5xV2PI+iusSlZ7Gd4s0bQjL2qW2eoJKmZbUNdR9SbioLmmTirbtVlCxJiL5ptZ1wq9E/DmO0L3ul1gIWcRIJStpEFBUTMRXqyyT4M6cLN1r51lpmwoAtTncIWNoCrEvI9Dpyzy6c+hQG8H6zq7qOt/oAzIwJH7cSDMYScNq9vbTtjeyNgLOSYBm07HGv1JJFFQzMgmpISKTZIT77IjLvZBc/hrnRyJAUGDCBkELVOhsiYWBmPdDSnYJYA/Kkc/vgI4+89RPOZPYqpT6ADS5+pTAwxcK+cUzJcSj4z8de2b0wciO0TEkJb+6OMfTEenGS+idYG4r1i83OId6QM4jbEzMbDzhegMtKTafFhgDYxEDAbZjmG8rYn3H95E5OkLWREWEl5ezsBqEngsDJigZHLouBgODf1iD4l7gnVkaUfwU5wodbq8uQTWQ+d53mHAZgf+tLaw/8Aw/4/o3GvZtF3Drm1p1X5kCd68I0vZ/g7upRjAHDccR370aNGjVqqdR3tn2lCqoWnznd6EgChgmMbYcKVAMFIh7jOOUnMQI8i3HjE6qKn3pVG23CzHLXYXk0xVe2uRQ4duz1RlwjOuNitkBXmUUum0IICqsUbZXWMgtrtv2QC8joE1qZhtd4NRMCxbqzgsKMeQmExzVAmBgUGHIdRGPD7Rh02OVk3S/zEE10nHVhuFfBbe0ijrYGgcjvG/wAv/jtNKcCoYXfJVqrWZ4+KxQ26Nry4DI1KtFeXgG7gG7HMrdnoEFAqRHpVwkvZV39OR7dYMr67TEvnI1YrQFcp/fCG24r1Vp8h5jeu4g7RIh5GkFfvwOqZFXX5aQ3vDZj2T7jtSMjZFg9aI63mQyqilx8OqfBeaviuOfGOSimDJK51krHcfVNssJtnaW498qglwE2Mc2oxDSZCfMHJeRrAaTeaNl8hUpnyukgp0heXtd3tY6lTTkLC2xXsz1JiKpMYLFq6sQ2Fie1kGVwWMdSJkw9vLpcxhveH3+1sfVsWK1FdxBLyFkQUvogwqmPy1/zDOQSFhV1uGNabKYbv1Us90GG9mP7pajKteofMk1bAWUxBzBdQDNnykxPvHmZ+2Y2+jWBteHDGlWVTmH9BVddQR60yUoVireIADMoki/ed5+878upxPfS4pMF35ntQovL5CKz2mm79qhCXSmUTayicZZcxQslTOEiDVsmTZKefS6XWbzgGE77cJCaXmaK61kulZiiysoPKnaRYuFdQMl04GxMOjmgZttdYrrYAsesNXS7sKmVyqJYAldC8WxTMk8LY3I9S34hLljuA8fbHH62otHh9oCSTXLlsRWVTWYmJENVSSr9IOstop6oF8q5ArcfGPlePt0kFEhYDPdoMbk2zjrNO3xN0r5NSSUO8wWYqSBlDeTkvipkfaS/YqzXdsomIbq6lzExG3rG0bT8d41XKO4yoLzsgbwdMAKzFszwkPtuQmMHyjqi3N3z5fm/+J91khH6fy6cE0rlpaPH99z5fn+O/vMaZfS0eP77ny/Psf/eR1HuuRduWg4Pfqlr8Rvetdga5a4hrlrz9nohfUbszvPerA8O/3QYX8/X/AGTdbY1fD9M/161OeHf7oML+fr/sm62xq+H6Z/r1pNBcm/3vBeDcPPXKXw/+xXZMa+cdctY8swmJmJauJiZiYk4iYmPSfSZ1o9ULzZe3bRtryfbxP+OV/wBIP/e15h7RJguPVVvMGUbMiZ4gShMp/IBtAZ9fTmH4Xo5JCyn+rX3jryryip+DFzt8djifj+nXL7ZB+FGkSgLtIPp9f0a566Bvh+FEfyzt/Xr754Pwx/nRpTikAAXbt/Lo4fD8mvOWSXHxYEf6UR/t1zi6G0+4fSN52n6I0icvRo1j2ZhYxEyURvET8J34z8JkduQx/Lr67LriN5OI9dt53iNKhe/VO+JC5KkY50bcQy1eDmfgMOTZrjO/0fLNVEfl21cPLVW+IXLVBxr1XCIFOAuTgETimK+MzfZzYqBVUMlsZPPl80RgpPVZpO2NzaVaAMFzS2eaQpNq7VrMMTjkqg8P3apNW/k8eyCCXPZdSIrPk0hnzViC6YEbpYm1AoVxYTfI3RGP3vr3+JHvRU6p9q6smVnJy5M81GhkJUQolkgQJZt5ow3kw4MqoyBAXyWqVyZvsQHTGRyCbicUsiIl9CzMsHHXWRBcZNdhvXQ4OceVttiOoL4LUy7T9ngxueuDYswxc4/zSvlJdfRT6h9SWssNZaOZlE1ke7p9Lfj71s6nm1PSdehoKsxzCalJrac/uM6s7dh7lrbi0pC741ztgdqjMloA+U5/KEu/iouDFytU3NkU6OPRE7xIdRB5IWEUR6dSE2IlnL/H/wAbSzYiSXakQ6kNi6EIWt5pdEulx86hcoXXfy94WPqF7P8AClq6u/OtI5F1kqz5TaOGFZkZGvYsNGDZCePUlNZe60LM9uqXMuK/hqNdk8WL7NJXFcGy7REWGIzAQd6uop3IZ3IYb6R6c9aWzo1tH0aVvVGPm55yQAZ2bTsClmm11M1SIIkxv/ymW8X9i+jGvUGUz+zGCEJuwukkaCHLG1sagrNyLD5JjqR154M2+UHkWk77B9nxBkOkJWuFl0VmPCVrmIkzgdojlPLfaPdsXw1sO+yBYWtVxkdCrVB93K0zaYLXWOyS4tWQ8y0AGW8HL6nI59/zS+MmS1eHjsRjble/ezl1tJGPZQXM1gF3K5kHvDkwOjdPomYIWIBC/Xn7/Zq6vKVRx4tmSqbWozU46oIGWGef9pqvsf3ZxB4jIsNcSVjIQg2cJFhBVo0+kMFMQf72dLzXt/BsM+Pu0z/YbIQSZXLCayqZVWmc7sNiIgeof8docHT/AO80sf2PntsVipdqMhknTbWaMn82E5CopgiqJgZBXUrsPgY8ok/dt8NMOgzRk4DkMqvVCZMQPGIt0yUs2b7nvNmu5cbT82KP1+fsn2fJBZ67P+vU3rDeJs/+QcpH4VUg248omGEITEx96d9p0mfaObaitWmLaVaKddDiqmDW1yhz5qtarhLARcbL0ScR6lz+Eeuni78ezx28Pk6yxImuo2hSIzxI3wkpQIz6+pNgB0lFHtkCsLmJEiL7ZYnG9Mzb02RAXDqWjNkSJV1rVdrMmwwwrpJnvYvXSpmthoC5NC2qOYAXcZTwOUEnmUfqZSDSkgNvFix6daIlgWOntIMc+YniQfQzXf3S9iWdoLSapU2HXr2ed2ywPL+TQo4YCw5RINfaOSWIQG3lwhxe/Xjr5xJCua1mbUMbVpwwFmjHedPks1IIyU9mx+hPSia478eXMw0wfhFvLTkMlVUmRgqtIymSLjLVWLQ2JGSgpKP3yEfH6kfh+yIymGubG0x2E+C2ultIcXZVK9k7EkY8wO6IISrd73YsqXaWzVZaO2OPxNFdd7wFbhBxvdCWyEQD2bnJy/aC9/HWG7M3xLPUdhiVZOxGItiM7e15T9rm+nzensa+W38EX8mpL3pZM73aLtHY4xG2R+164gpKJHHIr159ZiPicEyY+rJ8fX465Y9yqwNg54lWrxcBrRFYTfT5vI4xUFtLIFj8Sy02xv0E16kiZx19gqSde7LOYws6Q59i11U+dBM7TOKjfiuvmxvZ0ZaUyrsriDKNpGYY6D3Mgn+CZPS/gfiPzvr6sLC2yZ3doMxJgYjLEe0RygE1MyqSIpn3AA0HP5cf8AZ6hvjM7E26d6uyyKl1Bo47HUR8xB2TXUqVoMmKkRNxeasuTDg+cKdX93E9zlz9hGVx9lPSbkZyDakNiR2VdqIWhxDMcwIWH1JAxifo/Lq7p41jTOUZ7VkajQKTHA4z9Ul7sVI42MhHNTotPygEPtZye2TGZmfqnSZWb/7ol6YXsv29Gv8Aa251Igq545zTUW20LsqCyAzt7YKsd1E/+yY6NQXtL2XXawdt8CIVpxp2giTkBr+2SWphbb9ZayTWlcB89DI+jXClwVjYJgzyjGkXLedyNtZp+0Jj5/N2wB+Fw1n6Rmq0n93cYWyLQ8uZsNN3WWZrbUH8u++uevBiGbqXOxRuATsUbFHtj0L+Nr362C8uywXAz/Lpd/E3371aMKpzZVvMmzIV5SxxRTKncJAt4DIip94KaHKn5Q67z/gxLqasnvq7XWqePsOpLg7QxELlkSSlxM7seYj72QhIsZCQ/hSgF8g6nMNbebzVbdlhxizkXVYbWB170iO7GWNjnm5iw4+gAMfe9NZ/SWkxbFrA0kuw6FqdA6HF+5z6j9VrevW2fJOBbxCaynlYx/2wA0cltddS5jEPqi46Vu9esLZRSiwZkoxjj5cE8eUrMTx3ZjMLiZFMUsw2UVptu8yo7KWWeTFdJltb0hSf0orDTgFsUit5jiZmA6pjuu77lqxaMddTIOprlcPcgrNZ9KGS3oWApFYtV3ypqwhkLbuMc/yakq+/ujTFUVxrMSxjh8tjZa2XuYoiAItXauKRTDkJsdzK/dZ9QeHWnTmXBcwGApTtHPZ5lQOLpgfticIIxx2/JRDvX9LZqLyvse1vTrq6a6r79RF6FphaUbp6NlcHYYkGubHNnuM9Qy0UxET+WdTXsT3VZTL1bWRXyuWfP2FWkk0QiGNVRtHFQWgrZHUcfSg3n0VLWoeYfMhNsomN45bbz88ZWUb7xxMC94OXMSDll8wuPGTgt9ecaZtK3HvqPhrXZE5asggnpMD5lejaHaxlP8M14L2Eh42iMCjsvhzc648Jkjr1pWIscNVMLDZ72Mss9gKW2VsNs+gV1v8Ava7qquqAMAC4EsDH2CMjDd2xDAXv0WRB8Oifu6YLL/Cayndt3URdKwzpV3Nm0kawlAdRZjXZYZacUqdwqhK6yZLoWfc/j0j9gMyHed2eGva8s7mTprc4g7LiUTllvYTXYUKnoJWyvCzcuXH9ZhwACuNVtjxIeGmBmTkd2GS6/i6bbl9BhkiMx0fezDurjvJTwqHO3DlyiJ2mN2fUiP4/Pbb8uu9z56kFJTG8s5TP0/LN47//AAul/ocNem92drlMbLgoCYnibj5CUT8ZGTMOX8XXTFXaS3kS3IijlPHaJ+iPjy4/har31A+nqdHhgrto1vNO0EdYTF+C2/A5RkFO3mKbpXv8DIGV5mY/zlBE/wAkDp5NJR4IuyzHW33ojarVWdNZltMusT0ZfAcZmOCOnwI/hJMAY9wOEHX16/oKm+nZUw/mw3bF4bwnrNq6Qe5vQDvGHdCNGjRq/WVRo0aNCEaNGjQhGjRo0IRo0aNCEaNGjQhGlo8f33Pl+fY/+8jpl9LR4/fufL8+x395HUa65F25aHg9+qWvxG9612BrlriGuWvP2eiF9RuzO896sDw7/dBhfz9f9k3W2NXw/TP9etTnh3+6DC/n6/7Jutsavh+mf69aTQXJv97wXg3Dz1yl8P8A7FdulZ8XXa3K4nBWszjco2myhZneqVerZqW4sZga2z+tUdaXIw72lXsriPpGNNNpVvGD2Yy+TwVrE4nGOuOt2OfmQuU6yax1cwu3HPzNhbiZIojbprOI+/8ARrSFebqhu8vxD5vH9lsVnU9sItZC7GM6tB1PEkgH2q67TkcKlIbYdMeYFHUI+M/ULbTm9he1r318LetqhNh+CO1bAtlwhzRxbnLmTmOELMzid/wPXSZ5XwkZqcZhsji8LGG7Vdnq9GtvDcdIZmFqSlj4ei41UsX0z6v2xAZehzV/KF0yW4HYm9cyK6681jpxttuPyFe3Uiwh62wR0Qc2q6rZbPlj5+0XdN4c9iiduTGpV870ced4qjE5duNGq0iMa71yNpkSlgKdAPgjgOHE0wJ8xsag3YHuyv1V4/r9oH3QqfbJdls3XtZk1OAwXDOtflS7NV3S4OT70tDiIJFx7TTtD3M1qsrZQpQyzYyNVthp2Gr9wcYO62R6m7lKTsoeHSlvT5xw5xqB4YMiqmYj2dlbEVHOq1AsnMstyyq1lbzR8QDqPCemxhD8mn+P6quzXACF5MN3XZCswiZ2sezpIpVWAVjq9JtOrja5tIXX4gW3LVa05xs3IvO8T2+WIvbc7rrraVeuPaGwq5GNs1RuV7r2E6w5tBta/KHZQxa4QS5RRxKP3/xTIAPv59rewTRU5lfCAyzdsZG3Zri9iia5BmNaDaREuPNJdYWw+UCQOPo8Z6PDPB2QlF1ELxERXqqoxWdEtaQ9FLOatweMgxJrQuCYmQZ9b78JMJ2uF3dhMJZpX227eZB1eylXl6U2zNa+QUU9QTt3GialzUcaTUsHWPN2ycbWdOAzneHmqlpa5C3j+ZkEIC5aCapMjZ0EKwmZOwCRNqyD1APf83ULb2OZKl2YxZKbVxwIQnrWhYJrsvrqrRIXFLcPk7TviEFyd/DfNhfkzvdmxzxn7SC/98tax9i2xrkMOaKFMVB3OKynHE4XdAvWA6UfwjuYSmkt+amHZUE1XE8rtEYM2GpNS0AFZDgDOVhj3RNiVLelkHznZdhPzY4c55Y7fV2w9S2LNqwZBgqwozAhVz4nC2SSp4zE+/b4x+Fqkw7M3IYp/wCxqs57Go67TeILSLftYq0aktecrXFOnXLpB7Gfa5VfhyOI1bVPubx1WxYvV0dG485e58Pbu9wVmVxN8G3gyQSZR74/jfOjloC4lTqrxkI2iJGRj09JiYmPvx7S1RniyriurWtwyFPVYivWLZk7PuRKFnzVO6RVyJksMHgnbzMV3vp0oi7sOzdS59I3WE7RO8RuMfCd53/JpdvHpkhViKhFC5j7a1SiWxuAkpVlwzPrHzpXw/09dWNDiA4SOZSLUxWbv8Er/a6rXs1p5AMttkhl2v5ZCKQlXUcVRpjEk2BrrNSwW9fyiayVsNnzjxvY3s75ZnVPhZZML3Y9QrgjWRl1jXTlBsKYbwZEt43BgAsC4ErjXknKEV25XKT2rLroBYqCPZK5b5mNomR9I9Z+G2+spjrQzMRJFtElG8RG0bRHqW8fW1oaGirSkw6ojW84j0hPPtWtDm5uz6z1jFSy8zrIsVmcT8wpquMRHSNkjMq2CYEOAO4HAbem3ppYe6BA2bOLUwTnnfw6WcZ98um/SIpCY9YN74NinR/BV54GS/m6uzsxm+GVmJ5+WeADz480+cTHWKBKfmOZVnzfQD3dCOQ6gHhoqSvtBhlcYgwy/SPeYnca/mFz7fjH8Gk/d9b5us9pylxoolmMOPQYHSkFQGm/H9yav7I9YkaVPhEEZ5GtK+cQXqujmnfJ8uXCTKADf2fM+9pfPDHU6r32buXx+Px4SheXpXOBHkqalMtClVdkz1pC08lg8A6tYgnyzTJrV6u77JMDDq46QLba7XlZx83kVXLiUM/Bjp8vh9bSKA/fiTPUtuO5AJR7T5+wTGfX+Py31RXBLLgPOUDxUezoCra8W8xJmc/vJPF9jzsD9sMuKQYNaauONPUn3CkLeaVQAxIyMXTj5XLJkjL5LiRctNz2kbtbxm+5Qy2+uUT6jIMxtt3rv873Vo0uH2PXsMS6dvKkRwGUaoKokMRBVMfFpIviduUxYfYtNX9E1hrl8TMjZLK14bfpqgo3rg+4UCUdRRGo6aWTH3ih1oY9vxX/AJ+rG3YWMg7VQXjm8c+MjkvT3qduxxtI7RKl3FqFiHMVj1HvWlXUYcSKw6rAiT4lx1rQx14mA1VroyzGZA3PpKBjqn2ufank5cBAlYr43ghcIYniplRYOFZ10ivaD277HoyFOzRtBDK1tLK1gJmR5pcErYMEEwYlIFPExmCAtpida9u93sA7H3p88U+cZj8hDbYMHjdWuQCvbCtVFr4s3yIJetx4rpWvNnUuT1iEW1/NGscldaArBr30tr4GGJwMjAfPHYsj3p0kBQYsykLHEQqLjkdo7qflqyqyFT5pj4aARHQXPR5ci6Pzon/hx7Ttr5eku11Afkl2Fsq9EoCk1laL8V+fugJrNxt9RL57RLFjHoIaXo6fVswSwMqy61WkDWBNW0/ywc3Pmd5YpdonLM/UDaVdB7+095Ng+17q0rap3BdS3WtWJcfUMhrWkWnQsp+A+SU9TJ+dxe7622ojbk5OC3J0TVFi+k50uc0mMgHgTnlEA9ixHaPsk/H5HNLtTagyzt58nK5CSTkTBtG1XKPYwGgDVGYHPE1kJ9M/bqcdg8tPXqA+spEQ6Ld9y0zMKo1pG3kFgVmuLmLM/tPQvGJnW/fJrAzLqCqh/FN3kXG9pc1ZAzYyjcnH1Q6fVUtNRUCpULmeED17BsKZ+LX7/QOrR7Cd5jky9jj6NltemoRFayKshPO06qRWlWUyvIMbYs2AWEc+jV+lOoQqsZcOc7Ldjks7bPr3NsynTbJgdAjenJ7bdtcDbFE3TXA13dURcslHDQmWcZWwVmXPgbpmY4mCibG4R1Nd3aXv4rjEAirbskxvQ8xCIRS5tKEiJXnkNb+E4QYbuIuP8Eek77Y985uFATcY2E4+zSYORGWw5DCUfy8UzoQxZyKheB+26FdYM9su6nuo9tG2FKVcsnaqy6LLEqLy1V1plrzZW29Dp2toZxGKwWwQCg2hfL11Ym/pNMtxO6FXnQVxgdXLp7sl5u+zsvNULGFsCk4uvLLWUqOWFUqOcTJoKZyj98XL4uIwCOFeuVpq+ozhudg+7wszmsfjP4RFeFZPKuDkAeUS2DroneZMmXrS1RG5r41+vKw+Rnp4HvH7e7fUAr9u25Sa9l3TaljiByskFpkSE1+jY8rdC07/AJLspe3ixSWV5fHw8eH2v2fpkhbWWrVlg2L1120Ms2ISCtxH16NZcL4V6sGcJD65kTDOPSpi5quqkYSCNmwZ9Sdd3Rtbbisdd3RGGRzy+yrWQM7evxn1/wDt/o67tGjV2scl68VrrSAqW0MNKkjaW01R7hY4FipjDLdKa9cRdbJzY26qEKIgB7tVlYwc32WK9Cvj7D67L7Tma1dBDTjJliq9BduEl5ZlurUyFkbMr363RIZ4aaXvLzs1KF21EjB1qll4QXzZJKWEMF8OQcttx1FsdYq40qCVIUJZCCFpqUpEcatTqHYsSsAjZUDCxH4fK6iPpBzvPgjpVhb3D6dMhu7DaY2qv6HhOUWTqZC0STEaapuIWJKixlgSqv51ZKlQArpwe64WESzifDlqYN8MuL8pYpwopVZU0Wc55lzMoYDtxgOb0NATU9hExe20F79fI8T+I4W2TbAIpEQtBgktzIBMO51kTuyyBRPL2yPCORF6ahPZ3xs0GJdN1TqjlC9oIlbDXYRwNteIM0rJRPRwYJvWpLvlDrttJWbRTWoMwH17lMDdI1fQDzG/DaFcXd52Hq42omlXg+KZbBGXNjDc2ZfYa5hci52GFLZ5Tx9YEfbwHSr9/fd7Dc5YEOjveZjYR0Ig3rY63TxltthQwQDAKdZf1mBtzQsvikJ17UeMW7aWupSpCGSffWsOoGylUmGt8GdWCY8TVWZAPcfTR0OeQBnTJaotTw1ZsrkXLEz/AAwUXgYmJSMXKs2AVsS4aEwg61gufzmN5D8nw1CuranfU2035a0/KDH9qTbm50cX3T51nCDiNaZBk5x5w+cEKju7bvgwVebMRFpUNfYmk0q0NGaddSnzViVLnZzG1jbK+mRWJBI9YjgZGEd+PbOvlyi1TE4TTNGOnqg2tYZYui20BDHws1UhS8pwb8s1nmeQcJWbGw7zvDjWu2arFIxakw+SyQuxKXOuq+S4rXakBYhogPSF4HyHn6eoRqX/APkNxC6zaaqFdNaxAw5VdcV5P19GS2v0ndQORcWdXkG/tmNQallVFI02kAbNvZsxwUpul6FOsyu1ry6ZOsQZ6lqvHFuCeMNsB7ZiIgIlu4THL1PeCkfhyn0nVw+H7sjjH2FqzyrDYe+V13HemumCL5gmgJRMAyeIREH87j8nt7oxeRlUSwZiTELN8F8zKTGqFlgVQ5zMmfJYxuczyn7+vDcz2y3cSnkSj2mZ39ylssLMYL5jUlX3A4/Lrzll4+jcABoMOg5QRMHPoXq90fxlu5rZbrCRGBBzWz/s12Vr0kKrVUrroSPFSlDAgEevwiPpmZmZL4lMzM7zrO6xHZ3Jw6vXdHwclTI/LBhBx/8ANrL69qZBEhfPD51jrZzjvRo0aNPTUaNGjQhGjRo0IRo0aNCEaNGjQhGjRo0IRpaPH79z5fn2O/vI6ZfS0eP37ni/Psd/eR1GuuRduWh4Pfqlr8Rvetdga5a4hrlrz9nohfUbszvPerA8O/3QYb8/X/Zt1tjV8P0z/XrU34dp/wDODDfn6/7Jutsivh+mf69aTQXJv97wC8G4eeuUfh+JXbqGZHIz1CicRYdsX8LHkJE/h7o6t5bNv5QjUz0a0q83UNC5Mlv9qLMTyEpKfITMkPwLeL0lyH8LXMYiZE/tY6CGCgZ/ee4iUjJDExbnaC4xyiPjtqX6NJCFFSUO0j9rmSO0fHypRPrvttNn6JgS19LjO++Nb7t+W8VPdvvvv++vXlynUp0aIQoy3iXxxrC9NvWKk+k/R62NfDb9P2ubM+vw8pv7vj6zZj5306k+jRCFFgyBRO8YyxE+kbxNOJ9PWP8A1z6pa5TZ4x6Y530RtHlN/SNo+NuI9IjUn0aIQolLon44t0/CP/UvgMxIxP78+rsO2sX2pxbbIgC61ivxdDDkRqkTOG88d/ODsJz8dWDo0QhYNWbbt/zKyP0bcqvp/qtzGqU8XPYC/msamnUomwov13Nhp1R2QoHEchJ2NuZlwT6/Qzf4ctMPo0EJzHFrg4bEg/bjwzZR4YyVYfk5b84y80rVVVmAsZKu7G/KqtxD+nTCViB8hEV9OenB7H4q/huzWxhOJbIbbbFbpxJb/elN1Ux/p62C6NTmXlRggdqnNvqgEYdv1SSWPD/kgwuEq1cSSLFHNWLt1PmKnvW0by5tdUrbOu6UuSsINvKA+TngC4jUP7hvCbmKfaBOSu46V1V3sleAV26zmRJiaqK2R5pcDsFmwc8OrBztz4SAb7C9GotV5qas7CT1/wCU0Xjw0tgQZ59vzSreLPufu5qgFetSty9cgamS6msQYlscSOZu/XS14+iz/jcOWk2v+Aftb0BCKimtkoIji5XES6Zcw60S6J2908ej9cI5+zW3KJ0ahVbdtQgldKOkKtJoY0CBv+qrDsHiG0KlKmFK106dSrXCBmpHtrp6UjM+eiJIpnnJQAx7f83Xp7vMc/nYvW6rE2rPBUKkkmVenUNo1a5sXYcLDM2vucwnb99cC/g9WNo1JAgQq8uJEFY51mZj1Syfp+K/jH/xdKT349zmWv5xtwMY1tNdRKa7Is0xM2DJkcwDrUSuNziPUQ+Zvpx9GudSnrt1SrDRt/U0fX/EUQNbLGT3ELX/AGfDnnDgP+SWK2YR9NVuh04naYEvda3LaJ4xE/CNY674aM8YxyxTjmIaExF7HrAwbBjMEIumPmFwn6dtbEdGo/4RnOexaZvC+8b/ALKe0ZO2iP39K1II8EParrXXljrRHYbEwX24pETQjb3WiZYiTs7iGzY+pvv7/drLK8I3bAJKQxjWDvE9JuXpzJFA7QRR1ZCBj4cOfzf8/W1nRrg7R9Nxkk9n0VLT03c0mBjIAHNP1WsgPDD2nn1PAzzkRg5jKUZg9t/SYKx82N9Zjs/4d+0iy2PBsAJiInp3scW/+fyuDJf6PDWx/Rpvk2nzns+i6eX7vnHb9UiOb7jMw6nZrMwj3S1RkAss44l+YmGkJnzyJzvLj6nMfrzJz7vXTxzcL4dJnp9Ps2n/ALevXo1MoW7aODSq2+v6l44PqASMMJ8SVj3ZA4+CGz/JKv8Aa4dc/PF/iWfybr/W69ujUpVsqEd41JtmhdrBWcROp2AXENWrkw0nAB1IdyCTPYefHaOXu9vLVT94/d3dydHFVm1MgnZsxkSqPopsAg6T+osTO6xZiy1FZZhHPkPu9vDTH6NNc0OEFdWVnsA1TEGfmlzf4UsL5hDl4dqorrATUvyXSucCBoRb5sJjzGfZzNgbx7Zkw21Pe0vdvRuEs7WH65pKJWW1UJiIWS+EyFkSNHAijoMkwn6R9o6s/RpjaTG5ALo66qvgvcTGWJwnPIqp+8mhYKjc8li+V2aTatTmNOJgTEAFMydqB6USRM6ZGC5he0+vHngu47szfondh9FoLKMcqtwZV96qeORXMyALGwF1gMPU5njwj5oBq9dGl1MZQLgimacYEzOM96jjMo7/ACS1+g0R/wDrsa6W5du07Ubc7eu3VrbzMeses3fvxtqU6NK9uuIXAumFr0X4ac/wnljGHMkczE3KXKTI5OWzE2ZjiW/8F1Z215WeGDPzvti5HcSjfzdGIkZjYg2h5+pxM+773prYro1kzwYti/X1n5zmM/4rYM4V3bG6oYzKMnc0fvVYdylC3VxOPrWqzRsV6iFsHqJZIyAyEL5w6QOVhxHmJe7U8+2rP8md+iUf+I1k9GtYxuq0NGxY97tZxcdplYn7bM/yWxP+kj/bZ19HLM/yWxH+kj/ZZ1ldGnpixH26Z/klj+dX/wDFa+/bln+SWP51f/xOsto0IWFZnWx8KVmf5Drf7bca4/shd/kFr+fU/wDGazmjQlWAZ2id9FC3P+nU/wBt2NdY9p377fa65tvtvJ0tv5f+fb/9WpHo0iFgi7Qu/wAht/oOp/tua6C7UP8Axdd/QdL/AMdqSaNCFGx7RvmYj7X2hiSiCk2VPbE/WmAtnMxH5PXUk0aNKkRpaPH79zxfn2O/vI6ZfS0eP37ni/Psd/eR1GuuRduWh4Pfqlr8Rvetdga5a4hrlrz9nohfUbszvPep94dfuhwv5+v+ybrbKr4fpn+vWpnw6T/5w4X8/X/ZN1tmV8P0z/XrSaC5N/veC8F4eeuUfh+JXbo0arjCd+2NsZi7glvn7aUFqc6sYEEkl6lNFiTKIW4BFyoPge4l8daVebyrH0apTJeLHEKXBwVxzTvZDHIpVcfYs37VrGFI3orVErY5i60x8o+YFY/WL3hrPd2vfzSyb20wC3TvpVFhlDJUnUbcViYSRtAt4xD65NGV9dBsAS9pTE+mklCs3Rqlu2fikoVLbaKq2Vydqvw84vEYuxkfIy2OagtuQEpWww3OEc5Zxjfj6hz88+MfAR9qOV0hjNWH1aUlXcvazXatDUWoNcTTcD2grp2IXPL10SlV46NVJ3o+JfFYdthN1zlnVpV8g6FVHPga9m9GPr+5SyCWMtT0xRE9Sfnbba9HZDxA1rtlVVVDOpNsnsy5gclSrDCwJkyy1aprQvlA8R5lHMyAI9xxpUitPRqtn9/mKjKIwo30NydgnwNRH74YmKqoc+LnQJkVPZM9PzUq5z7R5lqK9q/F/iaQSy0nNoX1AV1HdnMwpRNaUKUoGtx6lybGEIB7vlJ9B+cOklKrz0ahveh3oU8NRdkMgwl1USoWECzcck5i0qAFKE2GbGtAYEYL4/e1Bs/4usFVx2Ny7bhRjsqYKq2BrPYPNkzHy/BczXFcwQH1RGeXp9QtCRXXo1Wvej39Y3DsUu81i5dTyN8JBDXBNbGKU62UysSjcFuCYD6383URo+MfDkVfqjlKNeya1ovZHDXqOPab43TEXbNZVcOt8QJhCJaJSq+NGoR2g70atbJY/GNMxs5Nds6i4QZCUUQFlgidHya9gYGwnHr+nUU72PFJicLYZWvuepqqA5I4XUdYCapXFUokZUEyTJc2I4jy6Y+89o9CJQri0arTNd/+Lr18TaOxzTmrFWrj2pUxovdaWTVei4KVgQBMyRTMD9bUFqeOHBGjzn/Kw4+JLfJlgsnGOHg0kERWxpEoQhwyqTKeIH6FtInxJQmF0apXK+K/FruvoqVlLzavlpsHjMReyaFDbrKt1jKxSrPXIuQ0GBwk+X6NeZ/i9xcMhA1s8dqFBYZUX2dypWUpYRABvV5CZWJyJbT9O2hIrz0agndh3vUsuljaTDKUOOtaQ5LKtmtZXG5osVbAg9DIiYLgwfhGvDh+/vGWMxZwaXyWRqK6zkypggIx0OpAvIYU1iwt1zJSykhho7/HQlVk6NLlS8duCJDrUfbY6Vc2DYyCsDkjoolRcXQ2wuoxY9Gfnzv6amuM8TOFdkquJXdBly9SHIVIATOvZqnEyslWYDoMkwEzgIPf2HolCtjRqnO2/iqwuOyDcXassG4mhYyblhWe0U1K9d1ppGxayDn0EOYCxnmXCI25GvnHf27WIiEF0M5AW5GKRT2cysDkJYMtCKM+T+WKU7v/AI6xIh+9olCYXRqgs14ysZXJANqZ9R2WylC2dm8qo7DYEmdFENpr6jZADPgHOeMTPpxnXYrxiY02GkKPaJjlQuXoDs1lZaiGhzDrr8luEGPLj+HwnjyH10ShXzo1RBeMDF9aK0Vc8VqEhYZVDs9lDsIQwyBbHpGjJrAzBkDP08J+Opz3W982PzC2soPJnQZKrCmpZWs1mfUGxUsAuwrqxBGvqLDkPzdEoU+0aNGlTSjRo0aEiNGjRoQjRo0aEI0aNGhCNGjRoQjRo0aEI0aNGhCNGjRoQjRo0aEI0aNGhCNGjRoQjRo0aEI0aNGhCNLR4/fueL8+x395HTL6Wjx+/c8X59jv7yOo11yLty0PB79UtfiN71rsDXLXENctefs9EL6jdmd571PPDn90OF/P1/2TdbZ1fD9M/wBetS/hxn/zhwv5+H9k3W2hPw/TP9etJoLk3+94LwXh365R+H4ldukc7TdxN+5n+1+SoAyrmKNvB3ez9x6ONd5BhVKu0xcRB16t4AZSshzFSj6J78llEO+0p+j/AIjSyd7XiSyuNvMRFBAoI+FNlnrBNmBSBsNTFQxJyEzPyPyZ8fy619va1Ll2pTic8cF5hUrNpCXKgfDzVyOPtUO0d/E5FNRj+09a9TTSdYdh25LKV7qLAoAZu3a7QGa82qtd0Cta9/wtX1h2ln+1GJzNBVxOMw9DJqfesVHUYyjchCFropTaVXsOr1JUdmX9HodbiIkRdTaKI8Y2Unl+9cf96fWz6T9753t1muzXjJeLlefrVhrFMi1yCbDK28xANkGiXWSW5cuEwQfH11aO0FfNaXcXgMcwoo0lbuMA4rp7rO2Y9mLnaKvl0ZKFZLtBZzFDIJx9rIVLVfIqQtVYW49NnpWa51yV0LAI+T6HDnvqmKHh6dku0lK1k8Q9WM7RW+1dk6L1HJ0qbsPjalW3akBP7W5S8YMdK2ME0yXDmLlcNbEqjQMRIS5RtEiUHvBRtvBbiXEon+T1105Z8rBrhA2kCymFBM7skIkoABmeMGc+2C2+9rP7YVgHCJlaxO+LsH2gKc3Uv1b9tuOwWIxiclUU5rstWr9qa1yvdQKlt6d1VEOpYiGO6dhTDIWc9NR3J5itOUrwvMdtrpMBwAjMYuxXxpR0ibzc5mBoiBgI/JGVgOR8B98s2Pwv8UWaSfStYyvWdxEyUfmYkZmIIoE4GQcICSuRq9IkvX52s73d+IbMZC2pK8ZXJA2AXcsLa7hXXPqc82rXHWEPXo+6fo/Lq5qaFuqdH8Q8ANzzChi9pF2oDj81970exBR2w7IWa1UVxA9o3ZF6EQInM46ulXmXgqCM5c2OnDiDnsc/OXEayZYp+U7WkNhToxnZylXfXBoMhNjOZOWlNpclyRa+11EIWovnVG227fPjhedp4juRlxGB5FMzsMRHrMzPoMRH0zqi+2Xi+oJmRorPIkHqTQLo1oiPSdrBAfUP73RWcfxo1BtrSvcuLKLC7d9wPmV2q120hL8B1ysB4lMZl8lmsNRxqq8oxMFn7Z5IbK8a62o/LYpXmaoczfWZNnIeWGeBTXSTOGy+azdqO7nKqv47s9k8b52vPbGjm1lRo2m4RONyhXAydSCbJDWXXsMGyKDkBX1rBbnsHK71+KXP22GupVpQQ7T0V1Lt56on4S0xlQARD9UlR/168/7avtDXYAWq9AOW3yVildpOZEyMbLJrpAp5TtHsn1nVp5Eu5jUx5pE9SjDSVAY49RVOd8Xdlma1iMMytavU8Tge2IYS+pLrJux+TwzU0sfZaKyCb1NleKvxWZr8pwWyGGQWL2t7UFmuxdbsvj8Zk7OUfjcZjjC1irlOnSbUGt17Fm9broqLGtFc2q6bmk1sJABMj1cXZXxg1TMYvVHUoLfd62xZQMjO3ykrgTVvtP1J/jaYis+DiDGdxMYmJifSRmN4mNVd1aVrVwbVYRP3sUmjc0qwPFmfBLR4i6jqGc7IZlibdmhiozNXIWK1Ztx6ZyFKsmvYbXqra8lkxJQw1gfCZD098aXvxUUXZ+xmMxjKNp+PTg8PhhKzQt1GXrjO1VK6xKEWK6rTKyawmFhsK2Hrs2hvGNbICrxMT6bb/Hb0n47/ABjXPjH6fh+XUWF3mEgPev3R5HFZnAY+ghtvs+7tbQzVWVLJkYR8FZVkqRcIYtOOMrMXK/tSKTm0H1IM+Phg70wpdjhwjsTmrOTJeTXGMHCX+mwMjetHX/fTayqS6ZrtATGvtLEB6v5OTo9p+8fH0Y2tXEInbcFEyOoURG/tWJSw/wBAaq/tB4tccrbyyrVveC2PbyypkeEbDNo1NZH5Uodt9bj1PfKoWNzcclTJ7us4Y71HNxSYPPcOzwSld0fd6zDX8jQymS7UY9iqfZ6sFjA0bNqveKphkrsfLJw16TVQYXllFBr9io5B8R1bHdh2Yt5DtI+xQymeq1Y7O41Q5S1jFBYyBKtWwldj7bYzp81FPUnytSsTOR8i+YU2z3Q+IK1k8iNckJr1vLuMQgze4jWaoGTeyERtwIuSwQ33f4YtMLx0yvaVbZ2pWEHOF0p1mVRLDKUfuJzjsFje1ti6i1dtUc5kXnYiuyLWdaaazKhrQtBLDqSaaKwqxKF9OT4qHnqqKvdb2pxVXF523VosfQyRZrIDjwtszVv7ePWvNV7FZa/KSKqjFz00dXpfa1Ah7FzvdnbHxZ26tuzWCjVYFay6vJlbaJzwgCEuMVS+PLiXGZ4z9OsYPjIvTHpjqsR9O1hxRv8AH4xWjVu3QN64AhnaFDdpGg3MqvfCV3xow+JydSxjc3ZtvzGXt16KsFkGMt1rBQSJ5lTisEPCNp67x6e/v4j8Kx7I+HjJY5LOVMzzXZ3D4DK1CSLZWVytlsxftYlTQmYeBY+4OOaKWGHEQ+ePz2RnxlXfxdV/pj4//U9ZHs74s7TG11Fj6wA2wpEkNpkyuGtSsCgSrRvvDG/g/M0rtBXrQTqZdISeVbbnKWTvH7sbzuhmm1LRXs9ie32TtLlZudUr2cIFbBYsmAoJiUUumsEH7vMNscfo1eLezln7Xd16fLP51nYorMdE4muKcA1bOvEjEo4mXH5SA2n2zxL004sV43+n4TE7TMb7+nrtPzvb87XcIx/17/H7+s/CspS+eJnDublOx3SUxkJz5vaQARApYY65Em0hiYXG5REEfxnVO94Lhr9q+0T7N3tJiVOq4MEPwOLbZG8aK1o3jYb9p8mszrQxfA4lPECMZ+ZOnmL4f7tL12h8c3ZmuZrnIE4gYxRTWr2HrglFIs4mK4BwhIzyNMtiNj92kJG0rqxpdg0Sqa7t+96rT7RvyLft9aovwNCiq/Ywl1tqxar2bLGRaXTxiWC2AJYwZV4A+fpPz9W14bsPafm+0+dbRsUKeWPEpoLtqmtbshi0WKzbtimyIfWhhmMIiwCmGoVkSx9mpt3TeJrDZo5XRtwT4jl5d6zrPkfd7hW0RlsbDJeznxj53HVtbR6aUY5JrxqmCIPSuejVbd9Hfpj8FVmzebx5HCkqDaWvcUe1YRvAjM/hskRj7/w0mXaT7JHknv6VCtjakD7CCybcg5m8SyCX5MldP5MZ+el0BPz/AGxJa4OuGNdqlT7TRtxd8kyezvWxbRpcfCn4oYzymoswleRrxMsivDoS5HtiHgNhS3K4GfRMD+v7wKRaGmO12a4OEhQa1F9F5p1BBCNGjRp64I0aNGhCNGjXktWwASMigQEZIjkogRGI3kpmfSBiI+OhC9ejS8doPHf2YrrNnnzsQDSSQ1adl0iwd5ISLy8AHGPWZI4jiXL5vu1ie777IN2dyDOjLbFFhCqVDeTAy42c+QK8s2wJ9EBWZs5QrjYTwYz5Tpt1hzp+o7mKZ3Ro0acmI0aNGhCNGjRoQjRo0aEKD99WTajEZR6GCp6MdfclpzAQtq6jiWyWbTC4AoiZORnaNU/Q7c5HHTRW0ZIrV5I+UvWBuZBFF93D43m3ILaFaGV35V1o0qnISXmaiFkCpIkSHJ97ds6kv8iVikyzFCIE4l7eWcThHzYrNrgImSWHdWCzgZ4MUa59sl5O0/fHimOrPt1VMBTeQ2bFfqWMYP2ouZorCxOs2BYH2o4EFVrJhyll84YHTCngKHdlvEPlG0scZzQgrlHCwNh6T2ddyRdl0ssBUVbUy1TYefcPya6y6rkKE2n1/kuNTvzyVp1Aqr65HchJ1qa9oQdksV2yOQe+ZYZVbdvEV2wHsKvKpDqs29ZxR7x8UEta3HeTOm2aUTNMAPhRbUr0knAREQL7txQ42mLndc4U1Uj02dDM4zvBxV2UqQJCN2uXQuKCUrjcMiPQTdQQGh6l18gcMrFsqOqQOkniTBKsTnu/0yws5WkdSIs2HDjJatr12kDLgrFw61KAm1Fcnyx1lCKteZe4whTNYJHfTdhybPmaEoaWLUFAYKXKHI3ezaLNizbm0wLXTDJP8oak1g4sVJeb6vIJU7tLh0TXwJ02FAOpU6tBteHgSyK++q7iRNXKUhhLr1ssxDYGpzHkVhMt9GK7f4SzQdlE1ltq/IKYSq6mHZGQRNJUrTLJcJrs1pSlnqjkMMXXNUiAkWHo95D3XqR+cSFWxNUnKiAamwlmJzlnp13enRCSrqtS6ZnlFYwg+E/K30BRMRMfT6xqi+0He/jEKbAUjd5Wlad0BBK0qKijJp+10S1q1i+ftTk6wigHIWtDuZrC0Bvu2pHsH2cPSPZ6bh6fN9syPt+HtLbShIV6tLR4/fueL8+x395HTL6Wjx+/c8X59jv7yOuF1yLtyv8Ag9+qWvxG9612BrlriGuWvP2eiF9RuzO896nXhw+6HC/nwf2TdbaU/D9M/wBetS3hw+6HC/nwf2TdbaU/D9M/160mguTf73gvBOHfrlH4fiV26jvbDsbWvV2VraFWUM25KaEEO4zvBRv6gYT7hYHuAvcPrqRaNaRebLWJkrMLY9cFPBdqwgOpIjAQtpCoJOPq7Rxgz14wyHIBkPvTxmY3jeJmJ3ifnD9XVpdz2IWzPrUwN1vtZZbQLaQasl2yISgt9/etRxw90cPvc+WF72e7E8RcJBRJ1WybaTi5byjlMlXNm0ATq0fVj16XAi17dTvmurMtKhgmm107DrYxvhYWpbuE1RlMdOHgrh8KXe10oDFWT4rmdscbCjYfjMY+Dn1Pph7q5FuRiLRn5i+TV9PWsAzmSjcijhMSI/NjflBRO/oQkJAJQYlz06fh176pySYr2Djz9YBh2/GJtLmIgbS4iY5D68HcA4Q70HYdonCcIdECg83NES3I9B2ndzq90bea7eLfmFDPGhx6mJ5RPzrsbjtBcZ8puMTP0EXCZ/zNWH4Y8fEYOkUREG3quaUR85pObyKd/j8NvXVc+NOY54f7/Ut7/wAnGtP+rlw1ley3a2aPY1dkeUGNUlLkI98Ns2yrrKN4n1A2iX/EajPomvoyjSH+6rqfMz2LuPNu31DsZ4qtvEV32NvWDo1mcKCTIG9M/wDnrQIwKGGPuGso49AD+FOC5+3hquOxXYdt+3XppmR65TBP4CUpQPq9wifpziPYO/4eorUQIewduAxxGInlECPp8Z3IuXzuRFq/PB1TksraYW5dOl7i29Oq1qog949olILYOw/HY/wdbmtSp6KsnuoSHAFs/wDOIndJnn6FS0nG4uRrOPNGz/GKansb2JrUEBXqKBCVxsKwiI3n6SOfWTMvpOZ316s/gFWkkiwtblH89ZxyEo+MfT6TE7TE/R9Gs1tr5Mb68cLnufxhcZzzzPPzytfqgN1YkJK+87wuX12Ohjl9apZJgpkzgRoxI8ulYL1PoD7+iwAYXzVn7ihhONhqcrSpZTHIFgEzHwmRGInbf+TXs4/8fy6+wX5dWN1fVrprG1TOqIH3uXClQZSJLcJXPUf7a9npt1LNaD6XXQ5PUiN5XLQkIOI3j1Dfl8dSDXGNV4cWkFuakOaHCClx7P8AgwqAoRfctGcCMTFXpVEwYjESQxCzeXuHfZ1hv5dLR2lxMqvWU7xI1rD0AU8ubIU018j3LiO/T39v4Wtku2td3eIzbJ5CN4j9/XvTeP8AKm633Bq6rXFd/GvJwGByzAWc0lbMYxpYAMSrC8Kn/pn/APCWv7Svp0dJb4XvTMjt/ktvfb73HHzH/WZadLVZwn9eduHirLRxmikE7VdhrN7M5KvUXDneeewh5QMAs2Hs1pT6Ar5Ixgvrs9keus8rwp5yN4iKG2+//OmRPwj6PKz/APNpvMD2Lq12WHJSC22jhlhkbyTT9fUpmZ9I5FsEe3eZn4zOsufEYmZnaIj1mZ9IiPj6zplbhFcea23aGgADpOGPWuPkylBL/wCkgnb/ALprmMFU3DqfLHIKBLzY1nEOZnAHXUPBXwOef3vwtSnw2dh/O5MGlETXx3GwzeJifNT6VFxP1ogZY+fyyrUZ73+8ocjefb35VkiaaUCBc4QJAMlHpGxXLPGAiY5Gsl8dNp3C92847GpU2Imy3d1svhu5kbyPwH2qDimIn4cNXd/fVaNgOMP+pU5tg6fBVlpatfcFzfRb2lWdqvO/HvMDDYrIZMxifKV5YAzG8NfOy6652mJ+UeSw+P06sPStfZEbpjgAGOXTblMcD4gYIZVDZaMN5THEJepPr9JcB9efGfN6r9Rhd0La2tIVa7KZyLgDuSzd1HZC5nDzNjM38itasN5fJX1NZDptXoFsVEJQQJCpUTMyyrCyFwsDqfGdsvPgfYuqN8e0Vb7X9RcLMMSamIErA1RBYLs8JL5iyS5XRg/Q/kwmdWV4J8JXuYTL02NFDL+Vt1ZIChbpivQoQXCNvecTMs4+nsZ96NT+92UG3N3E7ZBdrzNu7auzjWLxATZxU44PKzZb5d9eFWtlqWb+VqnZc1aRnqah0rZj2S4TOPX/AEr24vqtG4eKB1IhvRAEcx+9hSM9s+yl7s/lFpBoutVQRlcbdriSlOSwxkTkGNZIE2QNFmtA9NqDP47rgNk/anvvUns5Ob5LR1cWFyv1S3DzNmvDKtePhLDNxguAgdy0jPjizgO7To6Rg4Yw2P6ZKIB4BFi+/wBTHcWBKzCzBCXThZ/D6xN7gsUtnY/DLemXo+12BKyvYinoD5ErDIlGxwS082cwIOG3L6NcLUEOexvojADp+XzTtIFtWlb16slzpnc0wfntCoLwZdn6rqOQyNkevkbeXjDxDELuWIisCrTwPmmdzdytWSaw7PTqjX25GngbKu7XY6tQr2K6V0BBtougmpWkgCo81ZCF8SXWWHUCeVnqcZ5htzlwjMT7Dd3nZ7E0V0UOGaLr964prLAqALdUuiSvOViQCWVIUCklJ9X5HkRExcnrJUsdzBislWxmOxNQSSma+SMGwTylPRcQwgKym1j6bq/JnUsTzEuULZqQxhZDPl81W1nuquLtY9G7IDsyVP8AjY7xGYXOYPJ46AC6+hk1HClra6+sWY5gVbCyMDOtsJMhy5kwlPtn4adXB2GGhJtGAaSgJgesQLCGJIfXefSfTVMM7RBmUcVIhZNOzXqWrgkl5pZiBNl+qG0PWpLrZUi5+vMJ9/vXzvVK9oiN5mYiImZ+M7fTOpbBBKjV3tNNtPV85sydpGwbhiu3Ro0a6qAjRo0aEL5pMvExj7mf7Q0+zC2GmiuhGVukMnu+uxrEEtyWLms8TkQUkCMOkzrGX1AFyiL8uqdwvY9q8wFp62S2Qy6F2upDQZXt28fbUoxiRlIoRVFKh++DT29xc+LvO82F3pPLHBwEkfRQvu17k+y9FDLCqmP+QVNQ7Vi2GQZNLrGkZa0paC4fIsVCVep+iOQkBCuD+LruvDOYejeq00NsIyFespcsgknUdd8mKHLiUolsO6KoTYS48e0njt/DkdwM7IVqr/IBUyLZshUMLXKCXVr1LIsSsbhzBCVKwxloEsF7Gmz4s6nEJBmez6orUqlIuKW5EDlwn5goJD3ZSw2XMl0m11mtMGbOfyrJ5e7XBzCMNvQur6r5BkneclYeNgekHTkZDgPCQmJGR2jjISO0SPH4cde/WMwWICuhSFxMLQsFBElJFALCBGJIpmSnaPjOsnqU3JRCjRo0aekRo0aNCEaNGjQhVhX7iq0GRSywQeYGzXr9UQRUZGSTl2imFqWRjZyCFtaVknnxHph0Qkh148z4asY8ZW7zJrKCE1y8oEwLG5DFmJcYieJ1clZ32mJ6nTP/AAerb0aSEslVCHh1rdFgsfZsWGE5xWmsEXzYbZr3xevgqEp6NypVNSeg5ArQCjS4Nx12ZDFUKKYvWbzGRiilzrlq2BSJ16FhDjtStcDyJFtzySCx+UIOmoABYxahpifjG/5J9Y/1fN0oXbPwuZW1TyKOjieduLC1QtrqtUWPpZ6rF3yS6bEqJTcrWZISVlrxWx8vhqq9fSEcycDKs/C9yuLVeZamy47TLPmwpMsJAa7jRluosEpUL56453INb1zsu+UXxZwrVhDLdlW4xak4z7YFYbLlmlLjBTg8iqlkU1oUpSRUqrUbQkoJfU6bFkw2MbJlicP3CyJGzjThxZPz8WOj++BGe0T8vIdY1Q7c6LgqmHPiJ81x7I1FX+HW7HPjNQiKldqE0upDiO3gcPiwd1pptZE+bxPyp8zLy0pIupt09IlUozHdPiCsL3usFeSXaSFQLCTVbO99uLJ2gjy5vYfHK5Qo/fHluE8iUwkrIbpx9eQABIiMhERki4wRTEREkXTBYbz8Z4AA/eAdLvjO5O6i9Usrq48YSwncys2mvEo/ZJC1iZ45gABnnKxn0vLrrwzIAtXCurkxlaS4xyiILaOUQUlETt6xBzAkX+dtpQmlenS0eP37nz/Psf8A3kdMvpaPH79z5/n2O/vI64XXIu3K/wCD36pa/Eb3rXaPw1918H4a+68/Z6IX1G7M7z3qc+HD7osL+fB/ZN1tqT8P0z/XrUv4cPuhwv58H9k3W2hPw/TP9etJoLk3+94LwTh365R+H4ldujRrjy1pJXmyR7uXD/zkqfkuZaf5fkbsf7dNN3pd2ycpTZWduOxCxLR9DQ9cwS2jO/pwP4x9I+n8qsdyc79oq0x6x5zK+v5JXej/AObTvmXp6a1XCCq6ldMqMmRTpkR0N7cZVTZMa+m5rv3GVrJyeFZVc+vYGRsV3GpwyUmQzEAYR1ZFfMDWQOUfAOaWKKYApJYZDsr2xs1LCHVSgHgUSBF/BkuZ3YhwxtzhgcgCd/k2cD2Zw4aanxPdxZZBQ3qi4m/WEBMYjcrdUJIyr8d+MsCSMk7/AAkzjf36TCq2CWO3EtpFklHwmDjcFxP8X8D6n1uGt3orSLNJW/EvGzzxzn5YiRzFZ+5t3W1URlmD0j0f8bUwviO7dKylfB3KsSwGHdCRifVbI8tzAt4j1CVlHw9fnazt/wC4ZPLcY3p8/TlIjGYTzmY9Pmesz/m6WquETHqUl8r1YGZmYhvCFy2I+bz4BAb/AIMaczug7Mhd7L16ZxHTs07SJ/ikbnCMx+UJ9Y/Lqh0jbt0Za0Q7IV2uHQ3zj2YSSrG2e64e+c9Qj5pKwCQMgKIgogeURPKImREpjfb3ceWmP8GL4i/kQ+k6lco/LC7FkGen8U546XS5VJTGrcHTatzEuGS34tVxhg7/AFS48S4/Ty5Ry56sXw09vho5WsT2RAWlnQZJLgJFrWy9bOUzEQprOZMn/GHq8004VrSpxRkGXYY45zhKrLLza7eecfvYtgejXGC1y146t0uB/TpKu87s/nzyeQKuvMFXm2XR6NmwpZL6FfYlCFkFQoT6wegb7zpychk1qGTaYLAduRsKAGN5iI3IpiB3mdtekSj6NvX+qNTbG8/CuLw0O2Y4j6KJXoirAJhIgrs72iiIiUZ/lH3rlmY3mfT3ec01fcHStqxlcLvW8wM2IPzBSbePmW9LkRScz8jw+JasrXAR/RqXe6SN0wMcxrcZwAHdC50rQUnawJ+aI1ro7x0b5XJeu21659G//rTdbFYOPv8A5P0614d6wcclemI23vXeUx6bl5giGJ/0TEv9LV3wTwrvHQO8KJpRw1G47fBWB4WB/wCWo/LRtF/qOirb/sctOppLfCscTmAmJ/8AUrATP8aSrnI/9XLTpaj8JvXnbvErpow/6Xz8Ausmf16obxT94pV0Lx6GQL7vLqfOghqDBS7iQzHE2cOmBTv9f0nVvdqO1SKlZ1l7OKUgZmW+0+z6o7TG5zPsEPiRemtf3bDtm246xkHwxfVlbpA5mRQACJ1lCPu4klUjyGI/5xLvpPUbQOj/AMTX42oJY3HokYjHozKbpGuWU9RvpHrjbgrB8OXd3F3JgZjPl8fA2imPmm8+Y1VT/IEy8x9eEiqPy6d2PhqrvD73eFjsesGxtZsGVmzv6FDDgRAJ+PqtIrWf8cTL62rT1E0re/i7lzxkMBuG35qRY0eKpAHM4lGqX8VvdkzLYO9XSPKwoV3agiHMjtUmDYUqBgo5daV9D/T32P5uridM7TtvM7TtttvM/k39v87S2Z/vIvNcpsKCSC6hYVmrkRpzZsY/HxB7P+UuVnZQLLLPvXwp3Kiqw+YVeZQ1oLYO1W1FxY9r2mCDKU/wtd5lN0faHmCrT745KhNiOMXq7fKRdxkERLKrkLVar10sMvk/M9L5TpQTmVpYK7ZByV07ZWJbYcKL0OXXr25zHmqy7RRZsVRpHjoT5hVZ1gvLxxBZtd0jRfH9hfNdq1PwVZ9vHrzAfa57FOGuQ1FKyNSiBsEHJBYULKUWF8YRW6W5SHs0y3ientBODsVquaC8flZizWrrArMY8DrVrA9daSN5v8zAMBz65kHFn+O4R2uLRHMri6pk1NaYJxg4Gc8ulLR3vd4eKs5qzA2ytYwkYzHeeSpgA2K9OrStGpchBrZDJOCFYmMj09i1sJyvifQJTQwlQX+XS1XmLhHjcdVJASCA5OTNiyrcPcVdUqhQb9bWot3YbIptTUNDhetp1WJkiERZUZAmBWo3B/QZHGHgc9WQ4fNUEyxB96zK+GYhwnDm1gqOyUyMqnzu4Wrjw49XmiDOTHcys/O1Wvrtt/Qzcd6t7e1bXot/EkhtMGBBx1jzgAxOOfRuZzsN3i2M6eRO3jLNLHzNSwNvF3mNatzupXZcrElCrM0bSay+QQhyWilzGq2tfJ5zyFQbi5HKV7Nlb2GnHUcfSjMS+1Yq24T0xeYVhrDRTBPs0kwCesTnz84K17gLGSdas0KNkK45GlScTIbIlVrqdVGxYoiMTLmFTuLxYsCU+QlVYh3+bqtfCj3aWndpcnVr5mzXbi0ZAkWq5OMbjuqqsDrCLBkvZcMWTUN6nmW/KmXL11Nt3OrNa45n5fRVd1RFCq5g2RGM4EAxt58033c/3jUatllfIGijarOPH1U82sqLHil1gF37CkzavOcYMt2GrRJ7BwFgL8y9l0PExghkSgoiRIZghmPomJj4xrW935ZmRVkrr3xN6hm6dh6ujPR80uujFnRx/L1ZOVoBVyLlrjiI2gE5+nV2eG3tqdS4iiTGRVsJ8utTGSwU2a8ExRL3LguLSIZ1ePz3wGkN6KdYUHCZyOz6LjWsC6j+IaZOMjMCOYpvNGutbI+/rs1aqjGKNfJnX3WOzGRFKycw4WpQkxpkUCArAZIyKZgtoCI30JUuPjd8QtrCUkeRbXVYfaUFhjDA31aE8oZbXTKeoyJfC68tFbRXDOX4MgkT+8DKhaoZdORtXrFSxUNEXrpNqu2g63lJiJCAK1XfZ5mmsbJZAnPx1MO8Xs4Nnnlmqq3UZC5YTLuZWHYrIJgTXjbtu4uXEJL3BF2sSF+yuvZgGhjYR3Z4FOLv1bfWka4XOdkDWR+XWyvYQVtZz7IOlL4sR1BkeoNafSQ1eW1k00XGNcxJ2FnyETjhiFKpgD0su0JrMH2SacWJTlfL01HYNoWc9lKDMYXmapOTYp17dYSGugbhpeNmsm15hRyutC+b6z78O8yV08XXx8gOLWqMZFtairWVdKEPlzyDy7sUvKuqukUyhs2lY4OBVxyHILdb3McEkP2urN6cMYhJ4qchV42GG0l1GVrFdFyi52816l06RVgNYPcCIXERvxB917K3ZzK2LkTNi0KQEnkDrXplGXos2jSAVgs9e2zgiqHQpKgUg5wxvqisgeMa4+l0jwP0UtwpiCwyen7xWH7j/EldoW6ybd1j6Nk3717k9Z9dfFjosrtFMv2DiCYps6o/KcQIC46dnsR3gVMikX03C1ZCBbeosDlG8C5RjDUM++DgAtaouzXykzZNS2GavklvGDARiBAwkWRMcHmHm2BMe8p5fO0z3hd7wKla1TA1WTdk+P79GZlC65BK8TTZDCaZvsLrMyjejC+h5tZt/wCc60GkbNlNvGhsF2TRLh/yJz1dpjADICFWOkunfl/WSeUCiYiY+E+sa56+a+6oFzRo0aNCEaNGjQhGjRo0IRo0aNCEaNGjQhGjRo0IRpaPH79zxfn2O/vI6ZfS0eP37ni/Psd/eR1GuuRduWh4Pfqlr8Rvetdsa+6+Rr7rz9nohfUbszvPep34cPuhwv58H9k3W2hPw/TP9etTHhy+6HC/nwf2TdbZ1fD9M/160mguTf73gvBeHfrlH4fiVz5ahvb3vSpYwIO24VycHKkx7nvkOMHCEx72cZYuJKPavmPOQjU01Au3vc7jsoSjvIlxJgxVMWHp4CzhJ+iGq33IQ33/AAA/BHWop6geONkt2xAMdErzJ4cR5pgpK+67tsNXLVrzFtFUW7RsXxk2KTaG3AtKF8h2XJhy/J8NPX2L7eU8guW0rCrAAXBkrKJlZ7RMgwfnLOIn5hxE6gv7VTBev70d677/APKF/wBd/jv++/XU27Bd3lPGpKvST0VEwnFEsNpG09uRkbjYyS9I+cernSt5a3Wq6gHgjDzojVE4YYzMdqh2lCpSLtcgyZw51I2I323+Mb7T97f6f5dJz4mu4+KjpyFNMeVs7jaUv4V7TDk4tqXEcAB8zI2PvnIF9GnN1j8riluWS2gDFnHEgOIISifomJ+OodhfPs6rajSYkSBtE4hdbq3FamWfMb1rJpKmIjfaN5+EfGNvv6e7wux/yDj/APMd/eXa8/7VXAxvtRmPUpna3bGZkp3neYsxv+Tl8Po1YnZfswmnXXWrrhKFRxWsZmYEd5n4lMnMzM7zJTvvq701pqlf0m06bSIJOMc0bCotnZuouLnFUd4hvDaV45vY+Fjb2jzCS9oW+mMwpu8bAFtXpxcQ+8QBZTxENlRydEkMKtbQ1L9ok1ODpkUT6/TBi0JLYt1FOtnPHUd7YdgaeQCF3KyrARMSMMGCkZid4kS9CGf5J07RHCKpZN4qq0PZlskDxHR2pbrR7Kx1hg7o2npSvd3PiquVVim8hmQAYjjbUQxan70MRwECmP8AGcw3+mNTe741aUR7KGQMt9ogoqAMztP1ousn/s6zeT8H2GZO4DbR67/I3nzH+pxNjb+L8NdKPB/ixKJN2SYMevA7pwMz+XpQs5/k5baKtzoao81HMe2dgIA6kjKV01urrBU3d7dXe016lQcEorE+WvprDkIpRu3q2mHEi0DDprENljzd8Z206qEQMREbRERtER6RER6REfxY1FOxfdTj8dzmpVBMsjYz3JhlHp7ZNpsPb0+HLbUz1S393Srua2gzVptENGEn/kYwk4SpdvRLJLzLjn9MUaNRnMdqDB4V0oJ7SWbiiChYrSPoPNhz89zfYoBH8OS4CElORx18bClsGS4OULI9CCeLBiY90cTAuM/xSjVWparztP4kMTXloDZ81YVy/e1USc0jH0kN4jphO/1mGEfl0l/afMeZa50+kts2HzEb8R6h8oHedimYH2n6aZqh3MYJj4qRQtjXljlqcd66KW2kGybCwVNyHezg6fMSAJMh9ks9m8uLwqYKZ3mo7edomZyF6ZmI+Hr5vWq0TpOy0dLmNeXOA1pg7B6OWEqivLKtcuEkACYz+8kqvc125jHZFNpwGa9mrMExzOFsCNjiJ2kiCVxJB+Dz+kBg3H7O9/eItEpabyeo85WgGcq5uZA8pBIvBcsOI+gN9YMfClgo+FNsfyZC9H/63rLdle4XF0X+aq1iGxAkAtZasvkRP0KI67nQO8fxdcNI31neE1IeH5D0dWNk5xtyXa1t61uNWQRntVCeKjvLizZXjkSJJqNh9mPiDbK5iYEoidjCkw6xlG/ssPrT7+i3hE+4Tu589kFKLY61Yxu2ecSUnImRpVJ7bER2wS71/wAFUIfraZKfC5hZkiKq4jOZIym9d3Ipki3mfNffMp/TqV9hu6+ljYaNNMq6xAbJlzXEUhHEY5vY04GI5bAM7epT8SnUpumaVG0/DW4IMEE4bczhj/lRzY1alxxtRwjmx+SmejRo1k1fojSyeKY041U2QVYN11z9pUxClobFWq+HkTFEzcXYqm0elzPqj9700zelE8d2QPnhUguWmTbbxWISUkaYqpiAjaffMWjXH1tmEPwM9R67tVsq70LQZXvqVOp6JOO4AnwS51JsXlDWMlWeSSqOc5sgwax1wrSMGvh03CUEweMb7nIz7dZ/tJ26de2KSdckLYNlV8EEpDug6qh1auhELSaK1ayAiQLCPNAw+Zu56r3sPFM6VISjcnpWw+M7lLRFaZcRDvzGbKnAL9+LZBpAbI5FqYXsUXAXOOTFZxxiufTEp4shpMFa43hkQlPy0/PDqFxH3ar+OBwhe0fhLaq5lUUxGyRJg7J6FXXeQiyZ+Zxu5rrSucjSRWljAAQP9/U0qES8mIh07I8+apiGyHy2vlJ1MqBtsRD6jlrAAXMO3Y4pWsUiXGAecTv1t+O/t1PMN2SyTpyNrHAdujWtA27RTYkLBWLVNTHuCek0XLEZhcq6i/QP8JB6X692hVPZ6gKzYDwGgbh4SQvStYtAN1jO6UzPvT9Yvdw331X3NsXOY1vP4FZu8NJlSrSpuBAbO4yMCmb+x5Qypfq1mkUMmnnJWDIgpCsbcKaRMo3Lkma3qsTHbqfyar3wHdqZV2xlc8WRfHN1pmJmR9Wxen52+/Ump1fcXsEzD11M/C33uJS69liXuOO7NZLIdHfhycyzQIgg/QTIzqQsmDMiqG7MIRbHKh/BNkJX2qwLJ+DrtsTGCGeRWcdeWfL19/qyPfPztvbJ+zV3aPLqbSRGfYSPBefaQM1qhHMP/qFJu/VBOy1xpGUVsZnslPSachJwupQ5uCV9QwlMBwVupnJULWM8g1bHdtnyJw2Kxw/oDXuIkdx3cjp2RryJRBx10xKZ9nIep8z6NU34hZdLstQHjH2x7Q1UGHoY7Prg0ZiS9Thchv8ALfwUxv6RwnUi7qM1OOyd6k6JJlQlvrukoM3JYtIKmGhISZQwTKWSB+32ctVd3RIrNfOUlaaydT4rUjzS3PmcRj4La52azYWUKsK34PWLQmfjscCW0x67SPzSj7+szqi/CXnZLHurHO5VLjdvWZmVXNrwFMzvv7rLQ+dP8Hq9NXzH67Q7nWAqUuKeWcxRpdvHJ2tVVwgqsscmpkb9TG3bCFi11apYkye0BKdt+KuH8FZ+f/AnHzGJ0i32SbLO63ZmsJzCXWr7GjyIIgkqQpdn2zzk0RYd0+MF/Cb/ADuGu9IS9o6QmNz7epVTnu6KkRmGCyg5mrc8um1i9lVsmxQzLlsKp06Kb0VWcLgmmvVfXBaDLzIczOAdnc8JU12rUlASoJdFgSkOPQhtiq0CiOsMFPA+Hz4+PHXpq5oYMHEpXJTgaHTg+onpNhkzBiHpsY8/SddfYbIyqvXZ6hPROZ2gZgBKGgYSM/ULcA4D/wDKOt/aWDrZ9UF0y0HuTHVJPyCfXwY9qjsYcVFJtGm+UJe5kMNq3VquQRxKJn5Nar01lR9RSAjUe8fOSCMOlDCMBt2VC6QLbapXEr97f6fStUPp7fFvTD29TXHwJZhL8daciJBRWKsQE+kgxWPqLbEgKlcC+T48uboIeGxbezUW8bdgHZDF1JAjFNLLWyGdpFnWFFRce6eHEeo4uJ/ejWQoUZutUc6fTeAZSyYmw5YyYVWWBmYNbFMEJ47QwdpMlEJyPyXz42L/AFanXhZxq1nTrDXKxa+2jKrnOBKq+PCs460tpKx4Q5+WmsgAtX7TeNU2+03L5qZTNSvaOa7zNbgVxauWlK0gMDvu4VzzcBRPqRhPOZ9dXh4ZEGWQwqzGOq27NpkhHKAOa2UsnMHHrs4Q2Myn3egl68Y1pbym464OTW9eEJ+DNbGf7/ytkYFvGuzXQjbaNvven8mu/WDZkFwRo0aNPQjRo0aEI0aNGhCNGjRoQjRo0aEI0aNGhCNLR4/fueL8+x395HTL6Wjx+/c8X59jv7yOo11yLty0PB79UtfiN71rtjX3X0Nfdefs9EL6kcMTvPep34cvuhwv58H9k3W2ZXw/TP8AXrUz4c/uhwv58H9k3W2ZXw/TP9etJoLk3+94LwTh565R+H4ldusHmO1latMRYsIRy5EPVcC5IB4QRRDJD2gRwM8eXxD8PWc1SHiK7U2aAvv1WADqOBzV0IcmbCCGm7EWXAawfXZzcoDSBwZdKT6mxcOm7SFebwrHHvKx0/8A7Qo+nx2tJ/Wa7I7yMdP/AK/S/pSf1mlL7DeMvJ26z6FpVLG9qKWSxlW7VNLm1GUchkKtUb9JXm4YalruqaTeuwJCOr8oog2mXdZ39ZbtOnIZLCvx1DHU7TalIcjVfZZfJK1uJ9swsU/I1mg1JJ6I2mABsYe/EV6SUsJg/wDyj47/AC+l/SlfrNff2f0Z243Khb/CIsq3KfoiPf8ATpcPEh4vWUcUrJ4R2JyKzyVXFNMXHYBNl8M6vEkmsD6PFchMkG/Mp+jY8x4gu8LtTRsiONnB+Xt3KWOxiLFe7ZyNixa4zbeXQsAlSMeqW2ygg28vVeZksQDmSiFeSO8bHlG43qZREkMzFpO0EM7EE7M+cH0xr0fs/of5bU/pKv8Av6qpHfOnGc0tRbsE65lWBNVBNWEJs3TaDDJs7OKKziWr/CMZXUHvckZynaPxF1aznomtebKecSxNeTQRg6a0qJ8HC6zyd7oB8r3T8vHsnlBKIVg/s/of5bU/pKv+/r5+z2j/AJbUj8vmVf8Af1G8l3vpTNyDr3SmiDWP6VeG7kqvSteXUK2EbnsXeQtYrgoNssEZ+T1h6fiNpG5iQr5AhTWO0b5qGtcqWL5iVQ0hc7n5V0R01nHLpiW0vXzJQp5+z2j/AJbUn/8AEq/7+iO3tCf/AF6p/SVf9/Vd2PE3TFjVxUyZypUukhrDINjqrSMIOWwDpOWSe4FwUCmG0kgG+pHh+9+uyGk1bqnCw2sAWYWM2jWUCLazAcxUpZMwAmZh7zUM8JMOomBRCkP7PaH+W1P6Qr/v69OJ7SosTPQcp8DESRJaDIGC9R34HJRvEenp66gtTv7qn0S6F0Rf1OBmkQXArHqEZmTYDh05FgyMz1B+by1JOzWSBtu2YFzAl1SEh9RmNnDvEx/GCdLKCsZm3dPLIHj7blFgc9t469F6mKCZn5p9K5ZauY+hbuXwDX3BZCaVe8TZmVVLV53oO5dApK9Ax6wI8BaSw/iwuPjru71Aldcbg8ILHOi9PUj29FSzXb+b68/JtfwL3e/h6TqK94SXmd+oFc2RkSxyd4gjTNZjARlNzGJBLq1CW2BFnSJ09IV9QvSBGayGNxE9TCwURDhO3bsRtBTDmVmxYGS+rxsWf8/2fH5+9p6gXZ+hDclZs8QkK6hqpMfnQ2zIWLvrB8ZFilYr6vsZXbx+eep7pQhGjRo0qaUaNGjQkRo0aNCEaVjxc3nBk8D0EzYYScvuvkIx0+WKEi93xKCINtNPpWvGdfBLsC0XoXY882rAs9xzWuInrHC4nnwg66g5fDqkkPiYa41gNUyr3Qp/82lvP/1Pilrz/Yyuu3j/ACYsAnYqjlcmINAaJuspJkMrUxDpojYHbBX4AI/NH3sIsdnuxLPK+YovlRF17PXKZH0SLD5wLNwMVslIbQO235dehTiNkOxzxERr/a+H8ZtxD6c+VmEIbPkRT5JFUx6ybexNdwBZw1uphjAQDErbNtidouk29aKIa9CZi7XZNkyk0rT02JQuZiC+AiAAARTaOMPyGfRkvSLXSwoNZaOEODTJOcmSBB5pAAV098HYmj2e7EZlFQmsS+hYTDHFLm2LeTFdFJMlcDvLWuUHycCI/RHprV3ksS4pVXQuS8uCR6cPXJSmd+Pu2GOfT4gPwjj+XTz+K3vLiz2MpKWRN6meqY4iECBp16VltlbJV6FBzXrIZIT68j+/Ol/7FdyA2yWvkIG4gNRyRCELhnWcfJfyzEnw9/Rg+l6B6dTXCu8tLSzP+ljbFj/9Z9WSSYJO3H+lXvYhT6ON7QgYTWrHiYTWXYLpmIZLNYoby1STZ2VNaqU7M3YzhEhPz9RXuZ7ZLp5jEWSIBGvk8c02FuAzXl4LaMx6zw4GUqMPRXsS3mW862TdhO46hlK+di4lDDs5BdQrCx2SLcbMWDQhRRIVgp5O1bx4Dy5Nir1Sk/Zqm+537GySMi5mUmIxdRxlSQL+jYyBEamQFlsFJppqNfyq42lxx1R9h+s5jHimzAzt6cZVFXqt1jBxUL8Z/Zgqnac+GwxMHeUMRtJubXGqIrjlPM1pULC5R6Qc7arrGZXq5zFkwZGfKPTuPzeCvmK928kEsLn6+74euml+yCYGsa6WRF1aX1nAtyxsI6xKKD9/LmJu6MQQTwgm9IfcOk8yl0juVWqY1cA+vTFleRhpHdMG2V15P0k+mStmbcQA5L6mod8x3GyBhHynH7KsrKr/AOJqTjrSRtzC2O+DS9vayid5mV0cPJRP4fWy6pKf4xgle/8AJpqdKR4Lcd++8q2B3lVfGU3SG8pXZib1x1eD+BuUi1TY+N/k2PMdNr/u1OoCKbdyqtIva64eW4iVz0pn2Qvu86+IXlBiZPCGdlgjPEzpNiAtiueDPeHFLvX28Un/ACabPWMzmGVZS2u4BYl6mJcs/UWKaEg0D2+qYTMTp7i5pa5uwjvUAGDK0/hkCKuRgURLazJ+TneCg1TEcZKPrxr0YfMkKYIdoEYDqBAwRiIjsQ7FuMcikP52vX2rxcYXJXMI4ohlN/GlG3In1mT1qMh8eZsQYBwH/CLaH+DnWKo4UwNtYRWcmDDp8zmIAWe4k8vQWkTfWJ3+Ps16jQuOOArNPpDVjmIE+Ce5g1hh6WAHb4J3PAhnodXvbCISTKZPUMcYQ4VPrsHb14iXlAn/AOJOol424IcpjSkiDzONvoABCTOZrWape6IKPnHZqRHvD0M/ycam7g/FQXZ5lmnZxbLU3oZZ8wl0Lk7FHHoV5KEnX3ax1mAqBs4932Ij5x8denxFd8Q5nKY4CpWKs0gsU7kkUPNc5OtWcK7HRXCUnVth5JkAxkhcE1FwNesdbn/zTvPckI1VV2RxchXKmPSkXkNevzkpssVXIDcLwDgumCUgHyZS4mTPsMx00XhR7Pw7MBIhwVSqHa2mZhi2vgqdYJj5pJNZ5KeO2/JKPd8/mr079VzT6kKr8q9WVRBkZAxQEIDO4QabdgFN58ekjmfzA0+fgq7IpGi3KrFgzlJXK+qELPytWWrT6fHiZk5oz8GLMC+tq+0tXIoPcHenDYw/2kTsyICjQZk7UyQjr7o0awqejRo0aEI0aNGhCNGjRoQjRo0aEI0aNGhCNGjRoQvk6Wnx+/c8X59jv7yOmW0tPj9+54vz7Hf3kdRrrkXbloeD36pa/Eb3rXeGvuvga+68/Z6IX1KczvPep54dPuhwv5+v+ybrbKr4fpn+vWprw6fdDhfz8P7Jutsqvh+mf69aTQXJv97wXgfDz1yj8PxK7dU5369iTycsxgNFB5DA5ylDzXLoUu03FV3M6QmnmYA3kEdYNy/Jq49YzMYFFiIF6VPEZ5QLVi2In6JiDiREtaRebpd+8nwXpyNrs5kfMJqZHBvxzHvr04WnJqoyoprmgHB0A5rLy/yr/Lqc1fFkT7e/sP4XruDdkQ7O5avQx2QcVucfcxXnwpXHe1rqDE5HHdFRgCwCu5dgAlX4Pt1ec939D6aNP+jK/V66/wBg2O328nS3+95ZP/c0iJVT+KPw7WO0lOrRXkVUk17Va6TGUSutc6tv0t5C9TAFFyPn7D5/VlfH3yCr3Ptdm6mYv2lWTx2PbUp1U1PLor27ZzN7JhLH2XdSyhaaoL6hwlfXjk2WmWp0XYHHx8aVKP5ayo/+jXz9gOP238jT2+P/ADZW39nohCxPdcUEq16+g5TJxt6bbjddG3+vWb7U4hzqzk17JVWsDgFiFw00xPGCMBkxgmQHLgRzMCz3SLIHpz0j2Ex8/wDqdKdvT/m6p9P5mj9geO+HkqX9GT/3NCFXbe5nLE6GT2hswraOVYa3ENxizMEDJsk+N2PAjg3MGQQsB6Y6+WO6XJHuKs5YV7VcRmWOIJFVFZEySsFMmxla7M+/pfvj2r5LNjbH/YBj/wDIqX9GV/3Nff2I4/8AyWn/ACdBX/d0QllZdNbaNty3j05TO8zv6zPry148z2cTY49QBkllDFltEypkTBCwd4mOYmAzG8fGNecextCfhUqT/IhX/d1xHsdQn0irUn+RCp/+jSpFC6nh+rQKAO5kGAjqeybAL60MCFkLzrIS1wQoIWISfHhHHbbUl7L4tardxalgsAVUgQWAgIxPmC9IGI29TLWTjsPS+MU6vpP0V17xMf6GvbjcQpMTCVrUMzJEK1iEEU/EpgYjeZ+/pIRKUvxxVe2huqj2dnnjWp6dpKF1vNFch/MYJtggelBqgJ69NgGjovKfWU8ICHdb3g5fH5K2WTuYd5vSzFYcbCkz5cZInqsWxF1tRnHAE8rccSFhF7GAK2H8RPY2HLUCEJU+xarwi4tSisIt1VuuLeyWMrD5RCkH1+pYkyR1FpV1CV1KIud1aF5OMq+1lkPtXK1m7gwodWbuWVK5rDjsyIk6lijtSLJSVrpsDn1CSG4gw604Bd2ZYLP+FHur7YJfWdmsoqvXqmcWMcpw37+QsMqpUE5a2xjVdRKQTZE0HLGrn+DT7dOnqpu5jscVUNrC6s3OT33HrQtL2XLb2usNGF771W8oBRzwM+j745T7LZ09uS5HMo0aNGnJqNGjRoSQjRo0aEQjSEfZBO7Ww+ytqVJJhLQ+k2BiLTH0iMr2PAxMT2mr0MvG4z6Yp4/D5r76rzvt7B0chjrCcgDSrLGbJzXcyvYGa4yXJTUmsxOQgg9DjkBSBehTsh/yOccyk29U0qrXtzBwWujug7TW8jaT5GkTLt2iAGoJgccNymRAWQuPGJ8sY1R6EgA/KkxUfO11diM1YdaO/fmLFtVe0FWpM7U8cTDXRtgIs6sMNZqMCcBD74OY216ey1q+ulCa1yxUqWRNjaqLZCDJdJWWLZZmOv8ALPsWebK3QKR6fLkPtjwnR2GArxwFUgIkIwMSpUQCxiBmfcCxBX3z4ci906qql45wgYCZ+U5L2Sz0U5lc3F0GlpAIgziBt5phMQ/uhPPYW9jpbVG1LcZmFGuZ6ZXaxnWsAURMdMGxQOt1I/gydJ/KcOnqn1du8XOCR2lJskFFaFprqlLbHnit0XDiiHYTDnZxyzewJX1aDbaxFZWAaq1fBDcn7b2RGeAtx8k4ZHYnMr2a4qP/AOCNl4f/AInWvHvM7JirLZemUgrymUu7IE43KCtM6apauD6YCMwO58fTTiNZrX9PgsTpJrqF5Xtw7CQ7+TZ7J51M+z3it7Q4+ruGXtg4ni8+J0nVPl0Oe6GqMJlzrV5yTsWOoPS+Ujb5UZC7u2vi9sWKlk056wL3UcdFejXQxRpyHQAsoyzcZiwpxSWHMaiaNlzLxynifF2lUsUh24wKoiYjl01wQTMRt7QGZhfx93u+U/0NdbkD0oXO3EY2+IwUREbDuUnuQfDiiY+S/wBDUj8S6ICpfw7SZOatrEYrzFNOYTdtsy2Jq2bP71MXWCSrkVnLOdZATx6KHmEC9COs1hF0w6chLtZju8orrNOKrbNjNvrdDFEtXVuNsNibdoGVbaiYvzoEwhzjgMKxnzYJCudVl3OdrbGKu0siKYdNVhF5cmwsbFdiXJdXk/lAELXVAWyaWelZP8mmM+xzYeS7V2LUqSgm4688UUpPyYVGvofJqkmOIU13yCK1QuA8Oq3kvpAprGzUzKHDUDnALYL4f+7g8XjVqdIFdsOsXsi0BWEOyF5xWLU/JQInCjPyyzL3dBCh+jVm6NGpwEYKlJkyjRo0aVIk58c/cQFk6+dUlJNx6jG2xj11ZWhe7a9kXNEok6rCbt7WTINMRWRcdJz9pJvdCa9iwSyRI27DEsVWrWAbJGjG1DdLjmlzSt9r0hjj5+kfJxs68TfZMb3Z/M1TWTYPHWigAjkZMUqXJgB29T6yw4xrWn3GdpJZhUkprCMZamDmIWspVKpMYkzE946wx8z48/8ASttHa9b/AMcugDzpHd/c/JS6ZDhBGIyK5UsS2stVRRBxCCkCZtYHmbYcRQTd+IssAqwzpcD6oe0g469GHW0q/l5EUik0mgkRACtqJ5IbyLqMaxJiDBmwbtz97OoRTrM18dzItvUo9dyIIki2ifSIMyItd6Wko45Acb/TER9X4/GY+/raUrem0gvIw6InfjmuzzI1YWMjtA1TFIiuurLipVYtVAKFWKqgo1D9JcfC7LAMTefVg4NnJXKQINqHZ7FKrqCukIWmuIJSsfmgsAGAGN959semtVXbfHPsApQNOvDchRGGcRIRhmQrADSiZnl0yMW8dvqa2bu7FNbyh1p0x15YML4BHALhWq0bdOSGUxxrFIz8qtSymeUaxulg5tRrJkCT8js+S41gPNblgpro1Al9hbC4GE3XT8pMsJ/ypEs2BJxBbBwMAhkqLbYWOkuPEIHU4BUR/t+/P0euqZRHAbCu3Ro18ktKmL7o0aNCEaNGjQhGjRo0IRo0aNCEaNGjQhGlo8fv3PF+fY7+8jpl9LR4/fufL8+x395HUa65F25aHg9+qWvxG9613hr7r4GvuvP2eiF9SnM7z3qfeHKN+0GG/Pwn/Ups62vrb6em+28/699aeOwvas8fdqXlgDWU3Q8FMIgW0oBipAzGDkI4tk4OAP3AHs20xpfZC8j6f8lUPhHp5uxPr9Pr0Y5eurzRdzTt6EVMyfnvXk3C7QF9pG7ZVtWgtDYxIbGJ50/vOfvT/wBX+/WAyPY5TikyK3Eztv0r1pAfCI9ARZWEfD6I0kP7oZkvxXQ/pb/1Wj90MyX4rof0t/6rVqNJ0OnqKxH5O0v7Jv8ANqdiOwKI+vf/APzO7P8AXc12q7EJjb3XPT4b5G5P+ve1PL9Oki/dDMl+K6H9Lf8AqtH7oZkvxXQ/pb/1WneVKH2Cj8n6X9k3+bU8c9lFT8Stfou2Y/qs6P2Kr/Ctf021v/r8xpHP3QzJfiuh/S3/AKrR+6G5L8V0P6XY/VaTypQ+wUfk/S/sm/zandb2KSXxK7H8mQtj/wDLajX0uxiZjblc+iN4v24n0/LFnlpIP3Q3Jfiuh/S3/qtH7obkvxXQ/pb/ANVo8p0PsFH5P0v7Jv8ANqd39gaPw7v/AOZXf/FaP2EJ/Cvf/mNz/wAXpIv3Q3Jfiuh/S3/qtH7obkvxXQ/pb/1Wl8qUPsI/J+l/ZN/m1O2XYVP4V7/8yuf+L1zjsSmPgV39OQuT/Xa0kP7odkvxXQ/pb/1Wvn7odkvxXj/6W/8AVaPKlDp6ij8n6X9k3+bU8cdklR9a3+m9an+uzrt/Yqr8K1/TbP8A4jSMfuh2S/FdD+l2P1Wj90OyX4sof0ux+q0eVKH2Cj8n6X9m3+bU6WQ7s6rmJcyLZMRJykvthbiAkwJZFAjagJkgMg3KPhP5NeaO6Gp1JbzvwczMzxy2QEZmYiJ9g3oDb0+HHSbfuh2S/FlD+l2P1Wj90OyX4sof0ux+q0nlSiMie1OHBDTAypt/m1O1T7B11mRj5nmQgJEV20RFAb8d5KwXLbedZEcCMb7FYjf/APeGF/8AMwtIp+6HZL8WY/8Apdj9Vo/dDcn+LKH9Ksfq9IdJ0Dz9RSfk7S3sm/zant+0kfhv/wCmL/vaPtJH4b/+mL/vaRL90Nyf4sof0qx+r0fuhuT/ABZQ/pVj9Xo8p2/T2pPybpb2Tf5hPaGH/jv/AEumf/q19Zh9/rvj+Rsx/t0iP7obkvxXQ/pdj9Vo/dDcl+K6H9LsfqtJ5St+ntR+TtLeyb/Nqe37SR+HY/6Yv+9o+0cfh2P+mL/vaRL90NyX4rof0ux+q0fuhuS/FdD+l2P1Wl8p0OntSfk3S3sm/wAwnt+0cfh2P+mL/va8uQ7LratimS41tAlsGXH7gYMgY7icTG8TPrE7x9X10jv7obkvxZQ/pdj9Vr7H2Q3Jfiyh/S3/AKrR5SodPalHA7S4ypN/m1McPgw7ORAR5F+y9uEfbTI7DtG3pHnvva+h4NOzsFyila5b77/bbJfGP/8AIaXD90OyX4sof0t/6rR+6HZL8WUP6W/9Vrl+PtRs7CpzeDmn2iGyP/6/2mp7IeGrEY98WaaLCbEKakXTftvIVOJRtAYsWnjEMlCZnYY/gw+9qO9rfA92Yv2W3LeMJ1p7Oq53nrqpY2PTmQItqV6/eEBH8ml5/dDcl+LKH9Lf+q0fuhuS/FlD+lv/AFWn+UbbLwK4P4K6bqPNR7ZccyagJMZSSZwV5fue/ZD8UH/+ZZH/AMfrlH2P3sj+J94/BK/eIZ/lErsiX6dUX+6G5L8WUP6U/wDVaP3QzJfiyh/S3/qtHlG2+wUn5S0z+wf+wfVXm37H72RKIj7UTERG0QF++uNpmZ+AXQifjqZdhfC/hMW0rGOpHUsGmK52AsvY4kD0tlSx7mlw+RX7fyRPx30rX7oZkvxZQ/pT/wBVo/dDMl+LKH9Kf+q0o0lbjLuKQ8EtMnAsH/sH1TvfsU/9vb/pE67l9ndv8Nan+V28aRv90MyX4sof0p/6rR+6GZL8WUP6U/8AVaPKdv09q5fk3S3sm/zanp+0f/tbH/SaJw3/ALV//SaRb90NyX4sof0ux+q0fuhuS/FlD+lv/VaPKVv09qPybpb2Tf5j6p4LPZkTiYJtmRIZAh6u0EJbconjtMTtHHnBCQfVmNVPhvBR2arRxr440D9MKyF5cTsIj68bkb8umO/L50+6fdpdv3Q7Jfiyh/S3/qtH7odkvxXQ/pb/ANVrqzS9KmdZjiD0SEo4H6XGVNv82poI8KWC+M1Hz+SclfIZ/JIzd4lH5CHXiueDns4yYksaW477bXLg/O23+bbjf4aWz90OyX4sof0t/wCq0fuh2S/FlD+lv/Va7HTs51Hdbj3p/wCUdM+zH/sCY93g07OFxgsewwElshZ5C8auSzFgbpK7KpEDECgJDjuPw1alrs1yIil1mOU77C6RGPSI2iI+j00jn7odkvxZQ/pb/wBVo/dDsn+LMf8A0t/6rXB+lqVTF7id8lNPBDTBzpt/mE8MdlY/x1v+XzBf79cP2Kf+3t/0idJB+6HZP8WY/wDpdj9Vo/dDcn+LMf8A0qx+q1z8pUOntSHgdpc//ib/ADCeYuzv/tbP6HTvriPZrb/DWv8Ap5n+vSNfuhmT/FmP/pVj9Xo/dDMn+LMf/SrH6vS+U7fp7Un5N0t7Jv8AMJ7ftP8A+0sf9Lo+0/8A7Sx/0ukS/dDMn+LMf/SrH6vR+6F5P8WY/wDpVj9XpvlKh09qPybpb2Tf5tT0s7PRPxZZj6fR5x/UWun9i4/423/ST/7+kc/dC8n+LMf/AEqx+r0fuheT/FmP/pVj9XpfKVDp7Ufk3S3sm/zanf8A2Jx/j7kf/iSn+sp0fsT/APb3P6ROkg/dC8n+LMf/AEqx+r0fuheT/FmP/pVj9XpPKVv9yj8m6W9k3/2BO/8AsT/9vc/pE6D7J/8At7n6LExpIP3QvJ/izH/0qx+r0fuheT/FmP8A6VY/V6PKVv8Aco/JulvZN/mPqner9kuJifXuFxnfiVkpXP8Anjv7tSDn+Sf+r/fpAf3QrJ/izH/0qx+r0fuhWT/FmP8A6VY/V6XylQ6e1H5N0t7Jv82p/uX5J/6v9+lq8fB79nzj717H/k/9ZjVLfuhWT/FmP/pVj9VqE98nizuZujNB9KsgJch3VS9rD5V2QyB4msY4zMceXL264176jUova0wYwzxVpongtpO3vqFaowBrXtJhwdgDngqSEtfNfZ191maAimA6Z++le9jHFcdGjRpiajRo0aEI0aNGnpy4zr5o0aE1GjRo00oRo0aNIhGjRo0IRo0aNOQjRo0aahGjRo0IRo0aNCEaNGjQhGjRo0oQiNc9GjTkoRo0aNMSI0aNGhOCI1y0aNOCEaNGjSFCNGjRpQhcZ0aNGmoKNGjRoTUaNGjTk5GjRo0hSFGjRo0iRGjRo0IRo0aNCcEaNGjQhGjRo0IRo0aNCEaNGjQhGjRo0IRo0aNCF//Z;" vertex="1" parent="7">
                    <mxGeometry x="570" y="100" width="132.96" height="192" as="geometry"/>
                </mxCell>
            </root>
        </mxGraphModel>
    </diagram>
</mxfile>